<svg width="416" height="416" viewBox="0 0 416 416" fill="none" xmlns="http://www.w3.org/2000/svg">
<g clip-path="url(#clip0_38_1782)">
<rect width="416" height="416" rx="208" fill="white"/>
<path d="M12 146.5L63.5 206.5V163.5L97.5 229L117.5 146.5L171.5 300.5V121L231.5 252L268.5 163.5V229L334 189.5V252L405 189.5L419.5 206.5" stroke="black" stroke-width="3"/>
<path d="M185.5 208V178C185.5 172.033 187.871 166.31 192.09 162.09C196.31 157.871 202.033 155.5 208 155.5C213.967 155.5 219.69 157.871 223.91 162.09C228.129 166.31 230.5 172.033 230.5 178V208C230.5 213.967 228.129 219.69 223.91 223.91C219.69 228.129 213.967 230.5 208 230.5C202.033 230.5 196.31 228.129 192.09 223.91C187.871 219.69 185.5 213.967 185.5 208ZM245.5 208C245.5 207.005 245.105 206.052 244.402 205.348C243.698 204.645 242.745 204.25 241.75 204.25C240.755 204.25 239.802 204.645 239.098 205.348C238.395 206.052 238 207.005 238 208C238 215.956 234.839 223.587 229.213 229.213C223.587 234.839 215.956 238 208 238C200.044 238 192.413 234.839 186.787 229.213C181.161 223.587 178 215.956 178 208C178 207.005 177.605 206.052 176.902 205.348C176.198 204.645 175.245 204.25 174.25 204.25C173.255 204.25 172.302 204.645 171.598 205.348C170.895 206.052 170.5 207.005 170.5 208C170.511 217.293 173.968 226.252 180.202 233.144C186.436 240.036 195.005 244.372 204.25 245.312V256.75C204.25 257.745 204.645 258.698 205.348 259.402C206.052 260.105 207.005 260.5 208 260.5C208.995 260.5 209.948 260.105 210.652 259.402C211.355 258.698 211.75 257.745 211.75 256.75V245.312C220.995 244.372 229.564 240.036 235.798 233.144C242.032 226.252 245.489 217.293 245.5 208Z" fill="#151517"/>
<path d="M192.705 291.182C192.705 289.75 192.89 288.434 193.261 287.233C193.636 286.028 194.17 284.92 194.864 283.909H196.045C195.773 284.284 195.517 284.746 195.278 285.295C195.044 285.841 194.837 286.441 194.659 287.097C194.481 287.748 194.341 288.422 194.239 289.119C194.14 289.816 194.091 290.504 194.091 291.182C194.091 292.083 194.178 292.998 194.352 293.926C194.527 294.854 194.761 295.716 195.057 296.511C195.352 297.307 195.682 297.955 196.045 298.455H194.864C194.17 297.443 193.636 296.337 193.261 295.136C192.89 293.932 192.705 292.614 192.705 291.182ZM198.206 297V285.364H199.615V290.545H205.82V285.364H207.229V297H205.82V291.795H199.615V297H198.206ZM213.413 297.182C212.625 297.182 211.934 296.994 211.339 296.619C210.749 296.244 210.286 295.72 209.953 295.045C209.624 294.371 209.459 293.583 209.459 292.682C209.459 291.773 209.624 290.979 209.953 290.301C210.286 289.623 210.749 289.097 211.339 288.722C211.934 288.347 212.625 288.159 213.413 288.159C214.201 288.159 214.891 288.347 215.482 288.722C216.076 289.097 216.538 289.623 216.868 290.301C217.201 290.979 217.368 291.773 217.368 292.682C217.368 293.583 217.201 294.371 216.868 295.045C216.538 295.72 216.076 296.244 215.482 296.619C214.891 296.994 214.201 297.182 213.413 297.182ZM213.413 295.977C214.012 295.977 214.504 295.824 214.891 295.517C215.277 295.21 215.563 294.807 215.749 294.307C215.934 293.807 216.027 293.265 216.027 292.682C216.027 292.098 215.934 291.555 215.749 291.051C215.563 290.547 215.277 290.14 214.891 289.83C214.504 289.519 214.012 289.364 213.413 289.364C212.815 289.364 212.322 289.519 211.936 289.83C211.55 290.14 211.264 290.547 211.078 291.051C210.893 291.555 210.8 292.098 210.8 292.682C210.8 293.265 210.893 293.807 211.078 294.307C211.264 294.807 211.55 295.21 211.936 295.517C212.322 295.824 212.815 295.977 213.413 295.977ZM219.415 300.273V288.273H220.71V289.659H220.869C220.968 289.508 221.104 289.314 221.278 289.08C221.456 288.841 221.71 288.629 222.04 288.443C222.373 288.254 222.824 288.159 223.392 288.159C224.127 288.159 224.775 288.343 225.335 288.71C225.896 289.078 226.333 289.598 226.648 290.273C226.962 290.947 227.119 291.742 227.119 292.659C227.119 293.583 226.962 294.384 226.648 295.062C226.333 295.737 225.898 296.259 225.341 296.631C224.784 296.998 224.142 297.182 223.415 297.182C222.854 297.182 222.405 297.089 222.068 296.903C221.731 296.714 221.472 296.5 221.29 296.261C221.108 296.019 220.968 295.818 220.869 295.659H220.756V300.273H219.415ZM220.733 292.636C220.733 293.295 220.83 293.877 221.023 294.381C221.216 294.881 221.498 295.273 221.869 295.557C222.241 295.837 222.695 295.977 223.233 295.977C223.794 295.977 224.261 295.83 224.636 295.534C225.015 295.235 225.299 294.833 225.489 294.33C225.682 293.822 225.778 293.258 225.778 292.636C225.778 292.023 225.684 291.47 225.494 290.977C225.309 290.481 225.027 290.089 224.648 289.801C224.273 289.509 223.801 289.364 223.233 289.364C222.688 289.364 222.229 289.502 221.858 289.778C221.487 290.051 221.206 290.434 221.017 290.926C220.828 291.415 220.733 291.985 220.733 292.636ZM233.938 295.182L236.983 288.273H238.256L234.483 297H233.392L229.688 288.273H230.938L233.938 295.182ZM230.506 288.273V297H229.165V288.273H230.506ZM237.369 297V288.273H238.71V297H237.369ZM243.733 297.205C243.18 297.205 242.678 297.1 242.227 296.892C241.777 296.68 241.419 296.375 241.153 295.977C240.888 295.576 240.756 295.091 240.756 294.523C240.756 294.023 240.854 293.617 241.051 293.307C241.248 292.992 241.511 292.746 241.841 292.568C242.17 292.39 242.534 292.258 242.932 292.17C243.333 292.08 243.737 292.008 244.142 291.955C244.672 291.886 245.102 291.835 245.432 291.801C245.765 291.763 246.008 291.701 246.159 291.614C246.314 291.527 246.392 291.375 246.392 291.159V291.114C246.392 290.553 246.239 290.117 245.932 289.807C245.629 289.496 245.169 289.341 244.551 289.341C243.911 289.341 243.409 289.481 243.045 289.761C242.682 290.042 242.426 290.341 242.278 290.659L241.006 290.205C241.233 289.674 241.536 289.261 241.915 288.966C242.297 288.667 242.714 288.458 243.165 288.341C243.619 288.22 244.066 288.159 244.506 288.159C244.786 288.159 245.108 288.193 245.472 288.261C245.839 288.326 246.193 288.46 246.534 288.665C246.879 288.869 247.165 289.178 247.392 289.591C247.619 290.004 247.733 290.557 247.733 291.25V297H246.392V295.818H246.324C246.233 296.008 246.081 296.21 245.869 296.426C245.657 296.642 245.375 296.826 245.023 296.977C244.67 297.129 244.241 297.205 243.733 297.205ZM243.938 296C244.468 296 244.915 295.896 245.278 295.688C245.646 295.479 245.922 295.21 246.108 294.881C246.297 294.551 246.392 294.205 246.392 293.841V292.614C246.335 292.682 246.21 292.744 246.017 292.801C245.828 292.854 245.608 292.902 245.358 292.943C245.112 292.981 244.871 293.015 244.636 293.045C244.405 293.072 244.218 293.095 244.074 293.114C243.725 293.159 243.4 293.233 243.097 293.335C242.797 293.434 242.555 293.583 242.369 293.784C242.188 293.981 242.097 294.25 242.097 294.591C242.097 295.057 242.269 295.409 242.614 295.648C242.962 295.883 243.403 296 243.938 296ZM249.408 297V295.75H249.726C249.987 295.75 250.205 295.699 250.379 295.597C250.554 295.491 250.694 295.307 250.8 295.045C250.91 294.78 250.993 294.413 251.05 293.943C251.11 293.47 251.154 292.867 251.18 292.136L251.339 288.273H257.158V297H255.817V289.523H252.612L252.476 292.636C252.446 293.352 252.381 293.983 252.283 294.528C252.188 295.07 252.042 295.525 251.845 295.892C251.652 296.259 251.394 296.536 251.072 296.722C250.75 296.907 250.347 297 249.862 297H249.408ZM260.777 291.432H263.277C264.3 291.432 265.082 291.691 265.624 292.21C266.165 292.729 266.436 293.386 266.436 294.182C266.436 294.705 266.315 295.18 266.072 295.608C265.83 296.032 265.474 296.371 265.004 296.625C264.535 296.875 263.959 297 263.277 297H259.618V288.273H260.959V295.75H263.277C263.807 295.75 264.243 295.61 264.584 295.33C264.925 295.049 265.095 294.689 265.095 294.25C265.095 293.788 264.925 293.411 264.584 293.119C264.243 292.828 263.807 292.682 263.277 292.682H260.777V291.432ZM274.318 292.023V293.273H269.5V292.023H274.318ZM269.818 288.273V297H268.477V288.273H269.818ZM275.341 288.273V297H274V288.273H275.341ZM280.358 297.205C279.805 297.205 279.303 297.1 278.852 296.892C278.402 296.68 278.044 296.375 277.778 295.977C277.513 295.576 277.381 295.091 277.381 294.523C277.381 294.023 277.479 293.617 277.676 293.307C277.873 292.992 278.136 292.746 278.466 292.568C278.795 292.39 279.159 292.258 279.557 292.17C279.958 292.08 280.362 292.008 280.767 291.955C281.297 291.886 281.727 291.835 282.057 291.801C282.39 291.763 282.633 291.701 282.784 291.614C282.939 291.527 283.017 291.375 283.017 291.159V291.114C283.017 290.553 282.864 290.117 282.557 289.807C282.254 289.496 281.794 289.341 281.176 289.341C280.536 289.341 280.034 289.481 279.67 289.761C279.307 290.042 279.051 290.341 278.903 290.659L277.631 290.205C277.858 289.674 278.161 289.261 278.54 288.966C278.922 288.667 279.339 288.458 279.79 288.341C280.244 288.22 280.691 288.159 281.131 288.159C281.411 288.159 281.733 288.193 282.097 288.261C282.464 288.326 282.818 288.46 283.159 288.665C283.504 288.869 283.79 289.178 284.017 289.591C284.244 290.004 284.358 290.557 284.358 291.25V297H283.017V295.818H282.949C282.858 296.008 282.706 296.21 282.494 296.426C282.282 296.642 282 296.826 281.648 296.977C281.295 297.129 280.866 297.205 280.358 297.205ZM280.562 296C281.093 296 281.54 295.896 281.903 295.688C282.271 295.479 282.547 295.21 282.733 294.881C282.922 294.551 283.017 294.205 283.017 293.841V292.614C282.96 292.682 282.835 292.744 282.642 292.801C282.453 292.854 282.233 292.902 281.983 292.943C281.737 292.981 281.496 293.015 281.261 293.045C281.03 293.072 280.843 293.095 280.699 293.114C280.35 293.159 280.025 293.233 279.722 293.335C279.422 293.434 279.18 293.583 278.994 293.784C278.813 293.981 278.722 294.25 278.722 294.591C278.722 295.057 278.894 295.409 279.239 295.648C279.587 295.883 280.028 296 280.562 296ZM292.055 297V289.5H289.737C289.214 289.5 288.804 289.621 288.504 289.864C288.205 290.106 288.055 290.439 288.055 290.864C288.055 291.28 288.19 291.608 288.459 291.847C288.732 292.085 289.105 292.205 289.578 292.205H292.396V293.455H289.578C288.987 293.455 288.478 293.35 288.05 293.142C287.622 292.934 287.292 292.636 287.061 292.25C286.83 291.86 286.714 291.398 286.714 290.864C286.714 290.326 286.836 289.864 287.078 289.477C287.321 289.091 287.667 288.794 288.118 288.585C288.572 288.377 289.112 288.273 289.737 288.273H293.328V297H292.055ZM286.237 297L288.714 292.659H290.169L287.692 297H286.237ZM299.517 297V295.75H299.835C300.097 295.75 300.314 295.699 300.489 295.597C300.663 295.491 300.803 295.307 300.909 295.045C301.019 294.78 301.102 294.413 301.159 293.943C301.22 293.47 301.263 292.867 301.29 292.136L301.449 288.273H307.267V297H305.926V289.523H302.722L302.585 292.636C302.555 293.352 302.491 293.983 302.392 294.528C302.297 295.07 302.152 295.525 301.955 295.892C301.761 296.259 301.504 296.536 301.182 296.722C300.86 296.907 300.456 297 299.972 297H299.517ZM311.068 295.023L315.273 288.273H316.818V297H315.477V290.25L311.295 297H309.727V288.273H311.068V295.023ZM325.115 292.023V293.273H320.297V292.023H325.115ZM320.615 288.273V297H319.274V288.273H320.615ZM326.138 288.273V297H324.797V288.273H326.138ZM329.928 295.023L334.132 288.273H335.678V297H334.337V290.25L330.155 297H328.587V288.273H329.928V295.023ZM343.384 297V289.5H341.065C340.543 289.5 340.132 289.621 339.832 289.864C339.533 290.106 339.384 290.439 339.384 290.864C339.384 291.28 339.518 291.608 339.787 291.847C340.06 292.085 340.433 292.205 340.906 292.205H343.724V293.455H340.906C340.315 293.455 339.806 293.35 339.378 293.142C338.95 292.934 338.62 292.636 338.389 292.25C338.158 291.86 338.043 291.398 338.043 290.864C338.043 290.326 338.164 289.864 338.406 289.477C338.649 289.091 338.995 288.794 339.446 288.585C339.901 288.377 340.44 288.273 341.065 288.273H344.656V297H343.384ZM337.565 297L340.043 292.659H341.497L339.02 297H337.565ZM349.118 295.409L349.027 296.023C348.963 296.455 348.864 296.917 348.732 297.409C348.603 297.902 348.468 298.366 348.328 298.801C348.188 299.237 348.072 299.583 347.982 299.841H346.959C347.008 299.598 347.072 299.278 347.152 298.881C347.232 298.483 347.311 298.038 347.391 297.545C347.474 297.057 347.542 296.557 347.595 296.045L347.663 295.409H349.118ZM195.114 308.409C194.811 308.413 194.506 308.491 194.199 308.642C193.896 308.794 193.642 308.994 193.438 309.244C193.237 309.491 193.136 309.765 193.136 310.068H191.818C191.818 309.689 191.909 309.326 192.091 308.977C192.273 308.629 192.517 308.318 192.824 308.045C193.134 307.773 193.487 307.557 193.881 307.398C194.278 307.239 194.689 307.159 195.114 307.159C195.909 307.159 196.583 307.36 197.136 307.761C197.693 308.163 198.116 308.693 198.403 309.352C198.695 310.011 198.841 310.727 198.841 311.5V311.818C198.841 312.587 198.695 313.303 198.403 313.966C198.116 314.625 197.693 315.155 197.136 315.557C196.583 315.958 195.909 316.159 195.114 316.159C194.477 316.159 193.911 316.019 193.415 315.739C192.919 315.455 192.528 315.076 192.244 314.602C191.96 314.129 191.818 313.602 191.818 313.023H193.136C193.136 313.352 193.229 313.661 193.415 313.949C193.604 314.233 193.848 314.464 194.148 314.642C194.451 314.816 194.773 314.905 195.114 314.909C195.621 314.905 196.053 314.746 196.409 314.432C196.765 314.117 197.036 313.723 197.222 313.25C197.407 312.777 197.5 312.299 197.5 311.818V311.5C197.5 311.008 197.407 310.527 197.222 310.057C197.04 309.583 196.771 309.191 196.415 308.881C196.063 308.57 195.629 308.413 195.114 308.409ZM198.045 310.977V312.227H194.227V310.977H198.045ZM199.743 308.523V307.273H206.834V308.523H203.97V316H202.629V308.523H199.743ZM211.882 316.182C211.094 316.182 210.403 315.994 209.808 315.619C209.217 315.244 208.755 314.72 208.422 314.045C208.092 313.371 207.928 312.583 207.928 311.682C207.928 310.773 208.092 309.979 208.422 309.301C208.755 308.623 209.217 308.097 209.808 307.722C210.403 307.347 211.094 307.159 211.882 307.159C212.67 307.159 213.359 307.347 213.95 307.722C214.545 308.097 215.007 308.623 215.337 309.301C215.67 309.979 215.837 310.773 215.837 311.682C215.837 312.583 215.67 313.371 215.337 314.045C215.007 314.72 214.545 315.244 213.95 315.619C213.359 315.994 212.67 316.182 211.882 316.182ZM211.882 314.977C212.481 314.977 212.973 314.824 213.359 314.517C213.746 314.21 214.032 313.807 214.217 313.307C214.403 312.807 214.496 312.265 214.496 311.682C214.496 311.098 214.403 310.555 214.217 310.051C214.032 309.547 213.746 309.14 213.359 308.83C212.973 308.519 212.481 308.364 211.882 308.364C211.284 308.364 210.791 308.519 210.405 308.83C210.018 309.14 209.732 309.547 209.547 310.051C209.361 310.555 209.268 311.098 209.268 311.682C209.268 312.265 209.361 312.807 209.547 313.307C209.732 313.807 210.018 314.21 210.405 314.517C210.791 314.824 211.284 314.977 211.882 314.977ZM229.111 307.273V316H227.77V307.273H229.111ZM228.588 311.432V312.682C228.285 312.795 227.984 312.896 227.685 312.983C227.385 313.066 227.071 313.133 226.741 313.182C226.412 313.227 226.05 313.25 225.656 313.25C224.668 313.25 223.874 312.983 223.276 312.449C222.681 311.915 222.384 311.114 222.384 310.045V307.25H223.724V310.045C223.724 310.492 223.81 310.86 223.98 311.148C224.151 311.436 224.382 311.65 224.673 311.79C224.965 311.93 225.293 312 225.656 312C226.224 312 226.738 311.949 227.196 311.847C227.658 311.741 228.122 311.602 228.588 311.432ZM232.912 314.023L237.116 307.273H238.662V316H237.321V309.25L233.139 316H231.571V307.273H232.912V314.023ZM244.663 316.182C243.845 316.182 243.141 315.989 242.55 315.602C241.959 315.216 241.504 314.684 241.186 314.006C240.868 313.328 240.709 312.553 240.709 311.682C240.709 310.795 240.872 310.013 241.197 309.335C241.527 308.653 241.985 308.121 242.572 307.739C243.163 307.352 243.853 307.159 244.641 307.159C245.254 307.159 245.807 307.273 246.3 307.5C246.792 307.727 247.196 308.045 247.51 308.455C247.824 308.864 248.019 309.341 248.095 309.886H246.754C246.652 309.489 246.425 309.136 246.072 308.83C245.724 308.519 245.254 308.364 244.663 308.364C244.141 308.364 243.682 308.5 243.288 308.773C242.898 309.042 242.593 309.422 242.374 309.915C242.158 310.403 242.05 310.977 242.05 311.636C242.05 312.311 242.156 312.898 242.368 313.398C242.584 313.898 242.887 314.286 243.277 314.562C243.671 314.839 244.133 314.977 244.663 314.977C245.012 314.977 245.328 314.917 245.612 314.795C245.896 314.674 246.137 314.5 246.334 314.273C246.531 314.045 246.671 313.773 246.754 313.455H248.095C248.019 313.97 247.832 314.434 247.533 314.847C247.237 315.256 246.845 315.581 246.357 315.824C245.872 316.062 245.307 316.182 244.663 316.182ZM249.368 308.523V307.273H256.459V308.523H253.595V316H252.254V308.523H249.368ZM261.507 316.182C260.719 316.182 260.028 315.994 259.433 315.619C258.842 315.244 258.38 314.72 258.047 314.045C257.717 313.371 257.553 312.583 257.553 311.682C257.553 310.773 257.717 309.979 258.047 309.301C258.38 308.623 258.842 308.097 259.433 307.722C260.028 307.347 260.719 307.159 261.507 307.159C262.295 307.159 262.984 307.347 263.575 307.722C264.17 308.097 264.632 308.623 264.962 309.301C265.295 309.979 265.462 310.773 265.462 311.682C265.462 312.583 265.295 313.371 264.962 314.045C264.632 314.72 264.17 315.244 263.575 315.619C262.984 315.994 262.295 316.182 261.507 316.182ZM261.507 314.977C262.106 314.977 262.598 314.824 262.984 314.517C263.371 314.21 263.657 313.807 263.842 313.307C264.028 312.807 264.121 312.265 264.121 311.682C264.121 311.098 264.028 310.555 263.842 310.051C263.657 309.547 263.371 309.14 262.984 308.83C262.598 308.519 262.106 308.364 261.507 308.364C260.909 308.364 260.416 308.519 260.03 308.83C259.643 309.14 259.357 309.547 259.172 310.051C258.986 310.555 258.893 311.098 258.893 311.682C258.893 312.265 258.986 312.807 259.172 313.307C259.357 313.807 259.643 314.21 260.03 314.517C260.416 314.824 260.909 314.977 261.507 314.977ZM272.009 316V307.273H273.349V311.068H274.236L277.372 307.273H279.099L275.577 311.477L279.145 316H277.418L274.554 312.318H273.349V316H272.009ZM283.17 316.205C282.617 316.205 282.116 316.1 281.665 315.892C281.214 315.68 280.856 315.375 280.591 314.977C280.326 314.576 280.193 314.091 280.193 313.523C280.193 313.023 280.292 312.617 280.489 312.307C280.686 311.992 280.949 311.746 281.278 311.568C281.608 311.39 281.972 311.258 282.369 311.17C282.771 311.08 283.174 311.008 283.58 310.955C284.11 310.886 284.54 310.835 284.869 310.801C285.203 310.763 285.445 310.701 285.597 310.614C285.752 310.527 285.83 310.375 285.83 310.159V310.114C285.83 309.553 285.676 309.117 285.369 308.807C285.066 308.496 284.606 308.341 283.989 308.341C283.348 308.341 282.847 308.481 282.483 308.761C282.119 309.042 281.864 309.341 281.716 309.659L280.443 309.205C280.67 308.674 280.973 308.261 281.352 307.966C281.735 307.667 282.152 307.458 282.602 307.341C283.057 307.22 283.504 307.159 283.943 307.159C284.223 307.159 284.545 307.193 284.909 307.261C285.277 307.326 285.631 307.46 285.972 307.665C286.316 307.869 286.602 308.178 286.83 308.591C287.057 309.004 287.17 309.557 287.17 310.25V316H285.83V314.818H285.761C285.67 315.008 285.519 315.21 285.307 315.426C285.095 315.642 284.813 315.826 284.46 315.977C284.108 316.129 283.678 316.205 283.17 316.205ZM283.375 315C283.905 315 284.352 314.896 284.716 314.688C285.083 314.479 285.36 314.21 285.545 313.881C285.735 313.551 285.83 313.205 285.83 312.841V311.614C285.773 311.682 285.648 311.744 285.455 311.801C285.265 311.854 285.045 311.902 284.795 311.943C284.549 311.981 284.309 312.015 284.074 312.045C283.843 312.072 283.655 312.095 283.511 312.114C283.163 312.159 282.837 312.233 282.534 312.335C282.235 312.434 281.992 312.583 281.807 312.784C281.625 312.981 281.534 313.25 281.534 313.591C281.534 314.057 281.706 314.409 282.051 314.648C282.4 314.883 282.841 315 283.375 315ZM289.618 316V307.273H290.959V311.068H291.845L294.982 307.273H296.709L293.186 311.477L296.754 316H295.027L292.163 312.318H290.959V316H289.618ZM302.712 316V307.273H309.575V316H308.234V308.523H304.053V316H302.712ZM312.024 319.273V307.273H313.32V308.659H313.479C313.577 308.508 313.714 308.314 313.888 308.08C314.066 307.841 314.32 307.629 314.649 307.443C314.982 307.254 315.433 307.159 316.001 307.159C316.736 307.159 317.384 307.343 317.945 307.71C318.505 308.078 318.943 308.598 319.257 309.273C319.571 309.947 319.729 310.742 319.729 311.659C319.729 312.583 319.571 313.384 319.257 314.062C318.943 314.737 318.507 315.259 317.95 315.631C317.393 315.998 316.751 316.182 316.024 316.182C315.464 316.182 315.015 316.089 314.678 315.903C314.34 315.714 314.081 315.5 313.899 315.261C313.717 315.019 313.577 314.818 313.479 314.659H313.365V319.273H312.024ZM313.342 311.636C313.342 312.295 313.439 312.877 313.632 313.381C313.825 313.881 314.107 314.273 314.479 314.557C314.85 314.837 315.304 314.977 315.842 314.977C316.403 314.977 316.871 314.83 317.246 314.534C317.625 314.235 317.909 313.833 318.098 313.33C318.291 312.822 318.388 312.258 318.388 311.636C318.388 311.023 318.293 310.47 318.104 309.977C317.918 309.481 317.636 309.089 317.257 308.801C316.882 308.509 316.411 308.364 315.842 308.364C315.297 308.364 314.839 308.502 314.467 308.778C314.096 309.051 313.816 309.434 313.626 309.926C313.437 310.415 313.342 310.985 313.342 311.636ZM323.115 314.023L327.32 307.273H328.865V316H327.524V309.25L323.342 316H321.774V307.273H323.115V314.023ZM336.094 314.182L339.139 307.273H340.412L336.639 316H335.548L331.844 307.273H333.094L336.094 314.182ZM332.662 307.273V316H331.321V307.273H332.662ZM339.526 316V307.273H340.866V316H339.526ZM346.98 316.182C346.139 316.182 345.414 315.996 344.804 315.625C344.198 315.25 343.73 314.727 343.401 314.057C343.075 313.383 342.912 312.598 342.912 311.705C342.912 310.811 343.075 310.023 343.401 309.341C343.73 308.655 344.188 308.121 344.776 307.739C345.366 307.352 346.056 307.159 346.844 307.159C347.298 307.159 347.747 307.235 348.19 307.386C348.634 307.538 349.037 307.784 349.401 308.125C349.764 308.462 350.054 308.909 350.27 309.466C350.486 310.023 350.594 310.708 350.594 311.523V312.091H343.866V310.932H349.23C349.23 310.439 349.132 310 348.935 309.614C348.741 309.227 348.465 308.922 348.105 308.699C347.749 308.475 347.329 308.364 346.844 308.364C346.31 308.364 345.848 308.496 345.457 308.761C345.071 309.023 344.774 309.364 344.565 309.784C344.357 310.205 344.253 310.655 344.253 311.136V311.909C344.253 312.568 344.366 313.127 344.594 313.585C344.825 314.04 345.145 314.386 345.554 314.625C345.963 314.86 346.438 314.977 346.98 314.977C347.332 314.977 347.651 314.928 347.935 314.83C348.223 314.727 348.471 314.576 348.679 314.375C348.887 314.17 349.048 313.917 349.162 313.614L350.457 313.977C350.321 314.417 350.092 314.803 349.77 315.136C349.448 315.466 349.05 315.723 348.577 315.909C348.103 316.091 347.571 316.182 346.98 316.182ZM352.634 319.273V307.273H353.929V308.659H354.088C354.187 308.508 354.323 308.314 354.497 308.08C354.675 307.841 354.929 307.629 355.259 307.443C355.592 307.254 356.043 307.159 356.611 307.159C357.346 307.159 357.993 307.343 358.554 307.71C359.115 308.078 359.552 308.598 359.866 309.273C360.181 309.947 360.338 310.742 360.338 311.659C360.338 312.583 360.181 313.384 359.866 314.062C359.552 314.737 359.116 315.259 358.56 315.631C358.003 315.998 357.361 316.182 356.634 316.182C356.073 316.182 355.624 316.089 355.287 315.903C354.95 315.714 354.69 315.5 354.509 315.261C354.327 315.019 354.187 314.818 354.088 314.659H353.974V319.273H352.634ZM353.952 311.636C353.952 312.295 354.048 312.877 354.241 313.381C354.435 313.881 354.717 314.273 355.088 314.557C355.459 314.837 355.914 314.977 356.452 314.977C357.012 314.977 357.48 314.83 357.855 314.534C358.234 314.235 358.518 313.833 358.707 313.33C358.901 312.822 358.997 312.258 358.997 311.636C358.997 311.023 358.902 310.47 358.713 309.977C358.527 309.481 358.245 309.089 357.866 308.801C357.491 308.509 357.02 308.364 356.452 308.364C355.906 308.364 355.448 308.502 355.077 308.778C354.705 309.051 354.425 309.434 354.236 309.926C354.046 310.415 353.952 310.985 353.952 311.636ZM365.06 311.091C365.06 312.523 364.872 313.841 364.497 315.045C364.126 316.246 363.594 317.352 362.901 318.364H361.719C361.991 317.989 362.245 317.527 362.48 316.977C362.719 316.432 362.927 315.833 363.105 315.182C363.283 314.527 363.421 313.85 363.52 313.153C363.622 312.453 363.673 311.765 363.673 311.091C363.673 310.189 363.586 309.275 363.412 308.347C363.238 307.419 363.003 306.557 362.707 305.761C362.412 304.966 362.082 304.318 361.719 303.818H362.901C363.594 304.83 364.126 305.937 364.497 307.142C364.872 308.343 365.06 309.659 365.06 311.091Z" fill="black"/>
<path d="M189.854 79V67.3636H193.923C194.733 67.3636 195.402 67.5038 195.928 67.7841C196.455 68.0606 196.847 68.4337 197.104 68.9034C197.362 69.3693 197.491 69.8864 197.491 70.4545C197.491 70.9545 197.402 71.3674 197.224 71.6932C197.049 72.0189 196.818 72.2765 196.531 72.4659C196.246 72.6553 195.938 72.7955 195.604 72.8864V73C195.96 73.0227 196.318 73.1477 196.678 73.375C197.038 73.6023 197.339 73.928 197.582 74.3523C197.824 74.7765 197.945 75.2955 197.945 75.9091C197.945 76.4924 197.813 77.017 197.548 77.483C197.282 77.9489 196.864 78.3182 196.292 78.5909C195.72 78.8636 194.976 79 194.059 79H189.854ZM191.263 77.75H194.059C194.979 77.75 195.633 77.572 196.019 77.2159C196.409 76.8561 196.604 76.4205 196.604 75.9091C196.604 75.5152 196.504 75.1515 196.303 74.8182C196.103 74.4811 195.817 74.2121 195.445 74.0114C195.074 73.8068 194.635 73.7045 194.127 73.7045H191.263V77.75ZM191.263 72.4773H193.877C194.301 72.4773 194.684 72.3939 195.025 72.2273C195.37 72.0606 195.642 71.8258 195.843 71.5227C196.048 71.2197 196.15 70.8636 196.15 70.4545C196.15 69.9432 195.972 69.5095 195.616 69.1534C195.26 68.7936 194.695 68.6136 193.923 68.6136H191.263V72.4773ZM204.852 77.1818L207.897 70.2727H209.17L205.397 79H204.306L200.602 70.2727H201.852L204.852 77.1818ZM201.42 70.2727V79H200.079V70.2727H201.42ZM208.283 79V70.2727H209.624V79H208.283ZM215.738 79.1818C214.897 79.1818 214.172 78.9962 213.562 78.625C212.956 78.25 212.488 77.7273 212.158 77.0568C211.833 76.3826 211.67 75.5985 211.67 74.7045C211.67 73.8106 211.833 73.0227 212.158 72.3409C212.488 71.6553 212.946 71.1212 213.533 70.7386C214.124 70.3523 214.814 70.1591 215.602 70.1591C216.056 70.1591 216.505 70.2348 216.948 70.3864C217.391 70.5379 217.795 70.7841 218.158 71.125C218.522 71.4621 218.812 71.9091 219.028 72.4659C219.244 73.0227 219.352 73.7083 219.352 74.5227V75.0909H212.624V73.9318H217.988C217.988 73.4394 217.889 73 217.692 72.6136C217.499 72.2273 217.223 71.9223 216.863 71.6989C216.507 71.4754 216.086 71.3636 215.602 71.3636C215.067 71.3636 214.605 71.4962 214.215 71.7614C213.829 72.0227 213.531 72.3636 213.323 72.7841C213.115 73.2045 213.011 73.6553 213.011 74.1364V74.9091C213.011 75.5682 213.124 76.1269 213.352 76.5852C213.583 77.0398 213.903 77.3864 214.312 77.625C214.721 77.8598 215.196 77.9773 215.738 77.9773C216.09 77.9773 216.408 77.928 216.692 77.8295C216.98 77.7273 217.228 77.5758 217.437 77.375C217.645 77.1705 217.806 76.9167 217.92 76.6136L219.215 76.9773C219.079 77.4167 218.85 77.803 218.528 78.1364C218.206 78.4659 217.808 78.7235 217.335 78.9091C216.861 79.0909 216.329 79.1818 215.738 79.1818ZM224.937 79.1818C224.119 79.1818 223.414 78.9886 222.823 78.6023C222.232 78.2159 221.778 77.6837 221.46 77.0057C221.141 76.3277 220.982 75.553 220.982 74.6818C220.982 73.7955 221.145 73.0133 221.471 72.3352C221.8 71.6534 222.259 71.1212 222.846 70.7386C223.437 70.3523 224.126 70.1591 224.914 70.1591C225.528 70.1591 226.081 70.2727 226.573 70.5C227.066 70.7273 227.469 71.0455 227.783 71.4545C228.098 71.8636 228.293 72.3409 228.369 72.8864H227.028C226.925 72.4886 226.698 72.1364 226.346 71.8295C225.997 71.5189 225.528 71.3636 224.937 71.3636C224.414 71.3636 223.956 71.5 223.562 71.7727C223.172 72.0417 222.867 72.4223 222.647 72.9148C222.431 73.4034 222.323 73.9773 222.323 74.6364C222.323 75.3106 222.429 75.8977 222.641 76.3977C222.857 76.8977 223.16 77.286 223.55 77.5625C223.944 77.839 224.406 77.9773 224.937 77.9773C225.285 77.9773 225.602 77.9167 225.886 77.7955C226.17 77.6742 226.41 77.5 226.607 77.2727C226.804 77.0455 226.944 76.7727 227.028 76.4545H228.369C228.293 76.9697 228.105 77.4337 227.806 77.8466C227.511 78.2557 227.119 78.5814 226.63 78.8239C226.145 79.0625 225.581 79.1818 224.937 79.1818ZM229.641 71.5227V70.2727H236.732V71.5227H233.869V79H232.528V71.5227H229.641ZM241.781 79.1818C240.993 79.1818 240.301 78.9943 239.707 78.6193C239.116 78.2443 238.654 77.7197 238.32 77.0455C237.991 76.3712 237.826 75.5833 237.826 74.6818C237.826 73.7727 237.991 72.9792 238.32 72.3011C238.654 71.6231 239.116 71.0966 239.707 70.7216C240.301 70.3466 240.993 70.1591 241.781 70.1591C242.568 70.1591 243.258 70.3466 243.849 70.7216C244.443 71.0966 244.906 71.6231 245.235 72.3011C245.568 72.9792 245.735 73.7727 245.735 74.6818C245.735 75.5833 245.568 76.3712 245.235 77.0455C244.906 77.7197 244.443 78.2443 243.849 78.6193C243.258 78.9943 242.568 79.1818 241.781 79.1818ZM241.781 77.9773C242.379 77.9773 242.871 77.8239 243.258 77.517C243.644 77.2102 243.93 76.8068 244.116 76.3068C244.301 75.8068 244.394 75.2652 244.394 74.6818C244.394 74.0985 244.301 73.5549 244.116 73.0511C243.93 72.5473 243.644 72.1402 243.258 71.8295C242.871 71.5189 242.379 71.3636 241.781 71.3636C241.182 71.3636 240.69 71.5189 240.303 71.8295C239.917 72.1402 239.631 72.5473 239.445 73.0511C239.26 73.5549 239.167 74.0985 239.167 74.6818C239.167 75.2652 239.26 75.8068 239.445 76.3068C239.631 76.8068 239.917 77.2102 240.303 77.517C240.69 77.8239 241.182 77.9773 241.781 77.9773ZM161.453 96.1818L164.499 89.2727H165.771L161.999 98H160.908L157.203 89.2727H158.453L161.453 96.1818ZM158.021 89.2727V98H156.68V89.2727H158.021ZM164.885 98V89.2727H166.226V98H164.885ZM170.021 96.0227L174.226 89.2727H175.771V98H174.43V91.25L170.249 98H168.68V89.2727H170.021V96.0227ZM178.227 98V89.2727H179.568V93.0682H180.455L183.591 89.2727H185.318L181.795 93.4773L185.364 98H183.636L180.773 94.3182H179.568V98H178.227ZM186.821 101.273V89.2727H188.116V90.6591H188.276C188.374 90.5076 188.51 90.3144 188.685 90.0795C188.863 89.8409 189.116 89.6288 189.446 89.4432C189.779 89.2538 190.23 89.1591 190.798 89.1591C191.533 89.1591 192.181 89.3428 192.741 89.7102C193.302 90.0777 193.74 90.5985 194.054 91.2727C194.368 91.947 194.526 92.7424 194.526 93.6591C194.526 94.5833 194.368 95.3845 194.054 96.0625C193.74 96.7367 193.304 97.2595 192.747 97.6307C192.19 97.9981 191.548 98.1818 190.821 98.1818C190.26 98.1818 189.812 98.089 189.474 97.9034C189.137 97.714 188.878 97.5 188.696 97.2614C188.514 97.0189 188.374 96.8182 188.276 96.6591H188.162V101.273H186.821ZM188.139 93.6364C188.139 94.2955 188.236 94.8769 188.429 95.3807C188.622 95.8807 188.904 96.2727 189.276 96.5568C189.647 96.8371 190.101 96.9773 190.639 96.9773C191.2 96.9773 191.668 96.8295 192.043 96.5341C192.421 96.2348 192.705 95.8333 192.895 95.3295C193.088 94.822 193.185 94.2576 193.185 93.6364C193.185 93.0227 193.09 92.4697 192.901 91.9773C192.715 91.4811 192.433 91.089 192.054 90.8011C191.679 90.5095 191.207 90.3636 190.639 90.3636C190.094 90.3636 189.635 90.5019 189.264 90.7784C188.893 91.0511 188.613 91.4337 188.423 91.9261C188.234 92.4148 188.139 92.9848 188.139 93.6364ZM200.116 98.1818C199.329 98.1818 198.637 97.9943 198.043 97.6193C197.452 97.2443 196.99 96.7197 196.656 96.0455C196.327 95.3712 196.162 94.5833 196.162 93.6818C196.162 92.7727 196.327 91.9792 196.656 91.3011C196.99 90.6231 197.452 90.0966 198.043 89.7216C198.637 89.3466 199.329 89.1591 200.116 89.1591C200.904 89.1591 201.594 89.3466 202.185 89.7216C202.779 90.0966 203.241 90.6231 203.571 91.3011C203.904 91.9792 204.071 92.7727 204.071 93.6818C204.071 94.5833 203.904 95.3712 203.571 96.0455C203.241 96.7197 202.779 97.2443 202.185 97.6193C201.594 97.9943 200.904 98.1818 200.116 98.1818ZM200.116 96.9773C200.715 96.9773 201.207 96.8239 201.594 96.517C201.98 96.2102 202.266 95.8068 202.452 95.3068C202.637 94.8068 202.73 94.2652 202.73 93.6818C202.73 93.0985 202.637 92.5549 202.452 92.0511C202.266 91.5473 201.98 91.1402 201.594 90.8295C201.207 90.5189 200.715 90.3636 200.116 90.3636C199.518 90.3636 199.026 90.5189 198.639 90.8295C198.253 91.1402 197.967 91.5473 197.781 92.0511C197.596 92.5549 197.503 93.0985 197.503 93.6818C197.503 94.2652 197.596 94.8068 197.781 95.3068C197.967 95.8068 198.253 96.2102 198.639 96.517C199.026 96.8239 199.518 96.9773 200.116 96.9773ZM209.663 100.977V86.3636H211.004V100.977H209.663ZM209.663 98.1818C209.072 98.1818 208.535 98.0758 208.05 97.8636C207.565 97.6477 207.148 97.3428 206.8 96.9489C206.451 96.5511 206.182 96.0758 205.993 95.5227C205.804 94.9697 205.709 94.3561 205.709 93.6818C205.709 93 205.804 92.3826 205.993 91.8295C206.182 91.2727 206.451 90.7955 206.8 90.3977C207.148 90 207.565 89.6951 208.05 89.483C208.535 89.267 209.072 89.1591 209.663 89.1591H210.072V98.1818H209.663ZM209.663 96.9773H209.891V90.3636H209.663C209.216 90.3636 208.828 90.4545 208.499 90.6364C208.169 90.8144 207.896 91.0587 207.68 91.3693C207.468 91.6761 207.309 92.0284 207.203 92.4261C207.101 92.8239 207.05 93.2424 207.05 93.6818C207.05 94.2652 207.143 94.8068 207.328 95.3068C207.514 95.8068 207.8 96.2102 208.186 96.517C208.572 96.8239 209.065 96.9773 209.663 96.9773ZM211.004 98.1818H210.595V89.1591H211.004C211.595 89.1591 212.133 89.267 212.618 89.483C213.103 89.6951 213.519 90 213.868 90.3977C214.216 90.7955 214.485 91.2727 214.675 91.8295C214.864 92.3826 214.959 93 214.959 93.6818C214.959 94.3561 214.864 94.9697 214.675 95.5227C214.485 96.0758 214.216 96.5511 213.868 96.9489C213.519 97.3428 213.103 97.6477 212.618 97.8636C212.133 98.0758 211.595 98.1818 211.004 98.1818ZM211.004 96.9773C211.455 96.9773 211.843 96.8902 212.169 96.7159C212.499 96.5379 212.769 96.2955 212.982 95.9886C213.197 95.678 213.357 95.3258 213.459 94.9318C213.565 94.5341 213.618 94.1174 213.618 93.6818C213.618 93.0985 213.525 92.5549 213.339 92.0511C213.154 91.5473 212.868 91.1402 212.482 90.8295C212.095 90.5189 211.603 90.3636 211.004 90.3636H210.777V96.9773H211.004ZM220.554 98.1818C219.766 98.1818 219.075 97.9943 218.48 97.6193C217.889 97.2443 217.427 96.7197 217.094 96.0455C216.764 95.3712 216.599 94.5833 216.599 93.6818C216.599 92.7727 216.764 91.9792 217.094 91.3011C217.427 90.6231 217.889 90.0966 218.48 89.7216C219.075 89.3466 219.766 89.1591 220.554 89.1591C221.342 89.1591 222.031 89.3466 222.622 89.7216C223.217 90.0966 223.679 90.6231 224.009 91.3011C224.342 91.9792 224.509 92.7727 224.509 93.6818C224.509 94.5833 224.342 95.3712 224.009 96.0455C223.679 96.7197 223.217 97.2443 222.622 97.6193C222.031 97.9943 221.342 98.1818 220.554 98.1818ZM220.554 96.9773C221.152 96.9773 221.645 96.8239 222.031 96.517C222.418 96.2102 222.704 95.8068 222.889 95.3068C223.075 94.8068 223.168 94.2652 223.168 93.6818C223.168 93.0985 223.075 92.5549 222.889 92.0511C222.704 91.5473 222.418 91.1402 222.031 90.8295C221.645 90.5189 221.152 90.3636 220.554 90.3636C219.955 90.3636 219.463 90.5189 219.077 90.8295C218.69 91.1402 218.404 91.5473 218.219 92.0511C218.033 92.5549 217.94 93.0985 217.94 93.6818C217.94 94.2652 218.033 94.8068 218.219 95.3068C218.404 95.8068 218.69 96.2102 219.077 96.517C219.463 96.8239 219.955 96.9773 220.554 96.9773ZM232.396 93.0227V94.2727H227.578V93.0227H232.396ZM227.896 89.2727V98H226.555V89.2727H227.896ZM233.419 89.2727V98H232.078V89.2727H233.419ZM238.436 98.2045C237.883 98.2045 237.381 98.1004 236.93 97.892C236.48 97.6799 236.122 97.375 235.857 96.9773C235.591 96.5758 235.459 96.0909 235.459 95.5227C235.459 95.0227 235.557 94.6174 235.754 94.3068C235.951 93.9924 236.214 93.7462 236.544 93.5682C236.874 93.3902 237.237 93.2576 237.635 93.1705C238.036 93.0795 238.44 93.0076 238.845 92.9545C239.375 92.8864 239.805 92.8352 240.135 92.8011C240.468 92.7633 240.711 92.7008 240.862 92.6136C241.018 92.5265 241.095 92.375 241.095 92.1591V92.1136C241.095 91.553 240.942 91.1174 240.635 90.8068C240.332 90.4962 239.872 90.3409 239.254 90.3409C238.614 90.3409 238.112 90.4811 237.749 90.7614C237.385 91.0417 237.129 91.3409 236.982 91.6591L235.709 91.2045C235.936 90.6742 236.239 90.2614 236.618 89.9659C237 89.6667 237.417 89.4583 237.868 89.3409C238.322 89.2197 238.769 89.1591 239.209 89.1591C239.489 89.1591 239.811 89.1932 240.175 89.2614C240.542 89.3258 240.896 89.4602 241.237 89.6648C241.582 89.8693 241.868 90.178 242.095 90.5909C242.322 91.0038 242.436 91.5568 242.436 92.25V98H241.095V96.8182H241.027C240.936 97.0076 240.785 97.2102 240.572 97.4261C240.36 97.642 240.078 97.8258 239.726 97.9773C239.374 98.1288 238.944 98.2045 238.436 98.2045ZM238.641 97C239.171 97 239.618 96.8958 239.982 96.6875C240.349 96.4792 240.625 96.2102 240.811 95.8807C241 95.5511 241.095 95.2045 241.095 94.8409V93.6136C241.038 93.6818 240.913 93.7443 240.72 93.8011C240.531 93.8542 240.311 93.9015 240.061 93.9432C239.815 93.9811 239.574 94.0152 239.339 94.0455C239.108 94.072 238.921 94.0947 238.777 94.1136C238.429 94.1591 238.103 94.233 237.8 94.3352C237.5 94.4337 237.258 94.5833 237.072 94.7841C236.891 94.9811 236.8 95.25 236.8 95.5909C236.8 96.0568 236.972 96.4091 237.317 96.6477C237.665 96.8826 238.107 97 238.641 97ZM255.224 93.0227V94.2727H250.406V93.0227H255.224ZM250.724 89.2727V98H249.384V89.2727H250.724ZM256.247 89.2727V98H254.906V89.2727H256.247ZM261.264 98.2045C260.711 98.2045 260.209 98.1004 259.759 97.892C259.308 97.6799 258.95 97.375 258.685 96.9773C258.42 96.5758 258.287 96.0909 258.287 95.5227C258.287 95.0227 258.385 94.6174 258.582 94.3068C258.779 93.9924 259.043 93.7462 259.372 93.5682C259.702 93.3902 260.065 93.2576 260.463 93.1705C260.865 93.0795 261.268 93.0076 261.673 92.9545C262.204 92.8864 262.634 92.8352 262.963 92.8011C263.296 92.7633 263.539 92.7008 263.69 92.6136C263.846 92.5265 263.923 92.375 263.923 92.1591V92.1136C263.923 91.553 263.77 91.1174 263.463 90.8068C263.16 90.4962 262.7 90.3409 262.082 90.3409C261.442 90.3409 260.94 90.4811 260.577 90.7614C260.213 91.0417 259.957 91.3409 259.81 91.6591L258.537 91.2045C258.764 90.6742 259.067 90.2614 259.446 89.9659C259.829 89.6667 260.245 89.4583 260.696 89.3409C261.151 89.2197 261.598 89.1591 262.037 89.1591C262.317 89.1591 262.639 89.1932 263.003 89.2614C263.37 89.3258 263.724 89.4602 264.065 89.6648C264.41 89.8693 264.696 90.178 264.923 90.5909C265.151 91.0038 265.264 91.5568 265.264 92.25V98H263.923V96.8182H263.855C263.764 97.0076 263.613 97.2102 263.401 97.4261C263.188 97.642 262.906 97.8258 262.554 97.9773C262.202 98.1288 261.772 98.2045 261.264 98.2045ZM261.469 97C261.999 97 262.446 96.8958 262.81 96.6875C263.177 96.4792 263.454 96.2102 263.639 95.8807C263.829 95.5511 263.923 95.2045 263.923 94.8409V93.6136C263.866 93.6818 263.741 93.7443 263.548 93.8011C263.359 93.8542 263.139 93.9015 262.889 93.9432C262.643 93.9811 262.402 94.0152 262.168 94.0455C261.937 94.072 261.749 94.0947 261.605 94.1136C261.257 94.1591 260.931 94.233 260.628 94.3352C260.329 94.4337 260.086 94.5833 259.901 94.7841C259.719 94.9811 259.628 95.25 259.628 95.5909C259.628 96.0568 259.8 96.4091 260.145 96.6477C260.493 96.8826 260.935 97 261.469 97ZM267.712 89.2727H269.053V96.75H272.348V89.2727H273.689V96.75H276.984V89.2727H278.325V98H267.712V89.2727ZM198.79 105L199.472 105.818C199.207 106.076 198.9 106.256 198.552 106.358C198.203 106.46 197.809 106.523 197.37 106.545C196.931 106.568 196.442 106.591 195.904 106.614C195.298 106.636 194.796 106.784 194.398 107.057C194.001 107.33 193.694 107.723 193.478 108.239C193.262 108.754 193.124 109.386 193.063 110.136H193.177C193.472 109.591 193.881 109.189 194.404 108.932C194.927 108.674 195.487 108.545 196.086 108.545C196.768 108.545 197.381 108.705 197.927 109.023C198.472 109.341 198.904 109.812 199.222 110.438C199.54 111.062 199.7 111.833 199.7 112.75C199.7 113.663 199.537 114.451 199.211 115.114C198.889 115.777 198.436 116.288 197.853 116.648C197.273 117.004 196.594 117.182 195.813 117.182C195.033 117.182 194.349 116.998 193.762 116.631C193.175 116.259 192.719 115.71 192.393 114.983C192.067 114.252 191.904 113.348 191.904 112.273V111.341C191.904 109.398 192.234 107.924 192.893 106.92C193.556 105.917 194.552 105.398 195.881 105.364C196.351 105.348 196.77 105.345 197.137 105.352C197.504 105.36 197.825 105.343 198.097 105.301C198.37 105.259 198.601 105.159 198.79 105ZM195.813 115.977C196.34 115.977 196.792 115.845 197.171 115.58C197.554 115.314 197.847 114.941 198.052 114.46C198.256 113.975 198.359 113.405 198.359 112.75C198.359 112.114 198.254 111.572 198.046 111.125C197.842 110.678 197.548 110.337 197.165 110.102C196.783 109.867 196.325 109.75 195.79 109.75C195.4 109.75 195.05 109.816 194.739 109.949C194.429 110.081 194.164 110.277 193.944 110.534C193.724 110.792 193.554 111.106 193.433 111.477C193.315 111.848 193.253 112.273 193.245 112.75C193.245 113.727 193.474 114.509 193.933 115.097C194.391 115.684 195.018 115.977 195.813 115.977ZM205.296 117.182C204.508 117.182 203.817 116.994 203.222 116.619C202.631 116.244 202.169 115.72 201.836 115.045C201.506 114.371 201.342 113.583 201.342 112.682C201.342 111.773 201.506 110.979 201.836 110.301C202.169 109.623 202.631 109.097 203.222 108.722C203.817 108.347 204.508 108.159 205.296 108.159C206.084 108.159 206.773 108.347 207.364 108.722C207.959 109.097 208.421 109.623 208.751 110.301C209.084 110.979 209.251 111.773 209.251 112.682C209.251 113.583 209.084 114.371 208.751 115.045C208.421 115.72 207.959 116.244 207.364 116.619C206.773 116.994 206.084 117.182 205.296 117.182ZM205.296 115.977C205.895 115.977 206.387 115.824 206.773 115.517C207.16 115.21 207.446 114.807 207.631 114.307C207.817 113.807 207.91 113.265 207.91 112.682C207.91 112.098 207.817 111.555 207.631 111.051C207.446 110.547 207.16 110.14 206.773 109.83C206.387 109.519 205.895 109.364 205.296 109.364C204.698 109.364 204.205 109.519 203.819 109.83C203.433 110.14 203.147 110.547 202.961 111.051C202.775 111.555 202.683 112.098 202.683 112.682C202.683 113.265 202.775 113.807 202.961 114.307C203.147 114.807 203.433 115.21 203.819 115.517C204.205 115.824 204.698 115.977 205.296 115.977ZM210.157 109.523V108.273H217.248V109.523H214.384V117H213.043V109.523H210.157ZM228.477 115.182L231.522 108.273H232.795L229.022 117H227.931L224.227 108.273H225.477L228.477 115.182ZM225.045 108.273V117H223.704V108.273H225.045ZM231.908 117V108.273H233.249V117H231.908ZM242.181 105L242.863 105.818C242.598 106.076 242.291 106.256 241.942 106.358C241.594 106.46 241.2 106.523 240.761 106.545C240.321 106.568 239.833 106.591 239.295 106.614C238.689 106.636 238.187 106.784 237.789 107.057C237.391 107.33 237.085 107.723 236.869 108.239C236.653 108.754 236.514 109.386 236.454 110.136H236.567C236.863 109.591 237.272 109.189 237.795 108.932C238.317 108.674 238.878 108.545 239.477 108.545C240.158 108.545 240.772 108.705 241.317 109.023C241.863 109.341 242.295 109.812 242.613 110.438C242.931 111.062 243.09 111.833 243.09 112.75C243.09 113.663 242.927 114.451 242.602 115.114C242.28 115.777 241.827 116.288 241.244 116.648C240.664 117.004 239.984 117.182 239.204 117.182C238.424 117.182 237.74 116.998 237.153 116.631C236.566 116.259 236.109 115.71 235.783 114.983C235.458 114.252 235.295 113.348 235.295 112.273V111.341C235.295 109.398 235.624 107.924 236.283 106.92C236.946 105.917 237.942 105.398 239.272 105.364C239.742 105.348 240.16 105.345 240.528 105.352C240.895 105.36 241.215 105.343 241.488 105.301C241.761 105.259 241.992 105.159 242.181 105ZM239.204 115.977C239.73 115.977 240.183 115.845 240.562 115.58C240.944 115.314 241.238 114.941 241.442 114.46C241.647 113.975 241.749 113.405 241.749 112.75C241.749 112.114 241.645 111.572 241.437 111.125C241.232 110.678 240.939 110.337 240.556 110.102C240.174 109.867 239.715 109.75 239.181 109.75C238.791 109.75 238.441 109.816 238.13 109.949C237.819 110.081 237.554 110.277 237.335 110.534C237.115 110.792 236.944 111.106 236.823 111.477C236.706 111.848 236.643 112.273 236.636 112.75C236.636 113.727 236.865 114.509 237.323 115.097C237.781 115.684 238.408 115.977 239.204 115.977Z" fill="black"/>
</g>
<defs>
<clipPath id="clip0_38_1782">
<rect width="416" height="416" rx="208" fill="white"/>
</clipPath>
</defs>
</svg>
