<svg width="96" height="96" viewBox="0 0 96 96" fill="none" xmlns="http://www.w3.org/2000/svg">
<path d="M49.1807 71.3387L81.1681 47.5779C81.7021 47.1814 82 46.6547 82 46.1069C82 45.5592 81.7021 45.0325 81.1681 44.636L81.132 44.6104C80.8731 44.4176 80.5615 44.264 80.2161 44.1591C79.8708 44.0541 79.4988 44 79.123 44C78.7471 44 78.3752 44.0541 78.0298 44.1591C77.6844 44.264 77.3728 44.4176 77.114 44.6104L46.994 66.9856L16.886 44.6104C16.6272 44.4176 16.3156 44.264 15.9702 44.1591C15.6248 44.0541 15.2529 44 14.877 44C14.5012 44 14.1293 44.0541 13.7839 44.1591C13.4385 44.264 13.1269 44.4176 12.868 44.6104L12.8319 44.636C12.2979 45.0325 12 45.5592 12 46.1069C12 46.6547 12.2979 47.1814 12.8319 47.5779L44.8193 71.3387C45.1006 71.5477 45.4389 71.714 45.8138 71.8277C46.1886 71.9414 46.5922 72 47 72C47.4078 72 47.8114 71.9414 48.1862 71.8277C48.5611 71.714 48.8994 71.5477 49.1807 71.3387Z" fill="#A4A4A4"/>
</svg>
