<svg width="1440" height="573" viewBox="0 0 1440 573" fill="none" xmlns="http://www.w3.org/2000/svg">
<path d="M107 27.0031C65.0977 26.8188 0 35.0031 0 35.0031V311.503H667C667 311.503 575 296 489.5 220.5C352.745 99.7394 289.44 27.8053 107 27.0031Z" fill="url(#paint0_linear_157_279)"/>
<path d="M107 555.998C65.0977 556.112 0 551.049 0 551.049V380H667C667 380 575 389.591 489.5 436.297C352.745 511.002 289.44 555.502 107 555.998Z" fill="url(#paint1_linear_157_279)"/>
<path d="M1234.29 102.358C1075.8 238.186 878.434 310.098 667 311L1440 311L1440 6.54266e-06C1440 6.54266e-06 1333.38 17.4374 1234.29 102.358Z" fill="url(#paint2_linear_157_279)"/>
<path d="M1234.29 509.479C1075.8 425.187 878.434 380.56 667 380L1440 380L1440 573C1440 573 1333.38 562.179 1234.29 509.479Z" fill="url(#paint3_linear_157_279)"/>
<path d="M187.521 232.56C112.969 228.623 0 269.723 0 269.723V333H1440V269.723C1440 269.723 1402.83 226.511 1373.82 232.56C1352.2 237.065 1352.68 264.622 1331.2 269.723C1297.04 277.831 1290.93 227.974 1256.99 219C1199.74 203.863 1173.02 275.602 1114.09 269.723C1075.44 265.866 1060.67 231.756 1021.84 232.56C968.221 233.669 961.6 307.07 908.022 309.397C856.554 311.632 842.538 252.39 791.198 248.128C752.229 244.893 732.517 270.691 693.426 269.723C646.683 268.564 626.366 232.916 579.61 232.56C531.736 232.195 509.998 277.666 462.785 269.723C424.919 263.352 416.551 224.528 378.552 219C338.01 213.103 318.707 246.503 277.772 248.128C242.034 249.547 223.237 234.446 187.521 232.56Z" fill="url(#paint4_linear_157_279)"/>
<path d="M187.521 429.287C112.969 431.728 0 406.241 0 406.241V367H1440V406.241C1440 406.241 1402.83 433.038 1373.82 429.287C1352.2 426.493 1352.68 409.404 1331.2 406.241C1297.04 401.213 1290.93 432.131 1256.99 437.696C1199.74 447.083 1173.02 402.595 1114.09 406.241C1075.44 408.632 1060.67 429.785 1021.84 429.287C968.221 428.599 961.6 383.08 908.022 381.637C856.554 380.251 842.538 416.99 791.198 419.632C752.229 421.639 732.517 405.64 693.426 406.241C646.683 406.959 626.366 429.066 579.61 429.287C531.736 429.513 509.998 401.315 462.785 406.241C424.919 410.192 416.551 434.268 378.552 437.696C338.01 441.353 318.707 420.64 277.772 419.632C242.034 418.753 223.237 428.117 187.521 429.287Z" fill="url(#paint5_linear_157_279)"/>
<path d="M92.0455 231C54.9688 227.539 0 255.899 0 255.899V354H1440V315.158C1440 315.158 1401.46 271.421 1368.41 269.842C1332.62 268.133 1324.47 315.144 1288.64 315.158C1239.78 315.177 1243.37 243.265 1196.08 231C1122.02 211.791 1103.28 358.87 1030.4 335.575C987.916 321.997 989.527 273.574 948.58 255.899C874.686 224.004 831.444 309.05 751.193 315.158C654.782 322.497 599.177 238.278 507.784 269.842C473.918 281.538 463.526 310.422 428.011 315.158C375.612 322.146 359.007 251.748 306.307 255.899C260.805 259.483 251.209 314.725 205.568 315.158C150.384 315.682 146.994 236.13 92.0455 231Z" fill="url(#paint6_linear_157_279)"/>
<path d="M92.0455 429.929C54.9688 432.065 0 414.558 0 414.558V354H1440V377.977C1440 377.977 1401.46 404.977 1368.41 405.951C1332.62 407.006 1324.47 377.986 1288.64 377.977C1239.78 377.966 1243.37 422.357 1196.08 429.929C1122.02 441.787 1103.28 350.994 1030.4 365.374C987.916 373.756 989.527 403.648 948.58 414.558C874.686 434.248 831.444 381.748 751.193 377.977C654.782 373.447 599.177 425.436 507.784 405.951C473.918 398.731 463.526 380.901 428.011 377.977C375.612 373.664 359.007 417.121 306.307 414.558C260.805 412.346 251.209 378.245 205.568 377.977C150.384 377.654 146.994 426.762 92.0455 429.929Z" fill="url(#paint7_linear_157_279)"/>
<defs>
<linearGradient id="paint0_linear_157_279" x1="334" y1="75.5" x2="333.5" y2="311.503" gradientUnits="userSpaceOnUse">
<stop stop-color="#F9F8F9"/>
<stop offset="1" stop-color="white"/>
</linearGradient>
<linearGradient id="paint1_linear_157_279" x1="334" y1="525.997" x2="333.809" y2="380" gradientUnits="userSpaceOnUse">
<stop stop-color="#F9F8F9"/>
<stop offset="1" stop-color="white"/>
</linearGradient>
<linearGradient id="paint2_linear_157_279" x1="1054.08" y1="257.983" x2="1053.56" y2="-0.000164921" gradientUnits="userSpaceOnUse">
<stop stop-color="#F9F8F9"/>
<stop offset="1" stop-color="white"/>
</linearGradient>
<linearGradient id="paint3_linear_157_279" x1="1053.5" y1="380" x2="1053.5" y2="573" gradientUnits="userSpaceOnUse">
<stop stop-color="white"/>
<stop offset="1" stop-color="#F9F8F9"/>
</linearGradient>
<linearGradient id="paint4_linear_157_279" x1="720" y1="216.897" x2="720" y2="333" gradientUnits="userSpaceOnUse">
<stop stop-color="#8FCAED"/>
<stop offset="1" stop-color="white"/>
</linearGradient>
<linearGradient id="paint5_linear_157_279" x1="720" y1="439" x2="720" y2="367" gradientUnits="userSpaceOnUse">
<stop stop-color="#8FCAED"/>
<stop offset="1" stop-color="white"/>
</linearGradient>
<linearGradient id="paint6_linear_157_279" x1="720" y1="163" x2="720" y2="354" gradientUnits="userSpaceOnUse">
<stop stop-color="#E88C9B"/>
<stop offset="1" stop-color="#FEF1F3"/>
</linearGradient>
<linearGradient id="paint7_linear_157_279" x1="720" y1="471.905" x2="720" y2="354" gradientUnits="userSpaceOnUse">
<stop stop-color="#E88C9B"/>
<stop offset="1" stop-color="#FEF1F3"/>
</linearGradient>
</defs>
</svg>
