<svg width="1440" height="741" viewBox="0 0 1440 741" fill="none" xmlns="http://www.w3.org/2000/svg">
<path d="M107 195.003C65.0977 194.819 0 203.003 0 203.003V479.503H667C667 479.503 575 464 489.5 388.5C352.745 267.739 289.44 195.805 107 195.003Z" fill="url(#paint0_linear_157_275)"/>
<path d="M107 723.998C65.0977 724.112 0 719.049 0 719.049V548H667C667 548 575 557.591 489.5 604.297C352.745 679.002 289.44 723.502 107 723.998Z" fill="url(#paint1_linear_157_275)"/>
<path d="M1234.29 270.358C1075.8 406.186 878.434 478.098 667 479L1440 479L1440 168C1440 168 1333.38 185.437 1234.29 270.358Z" fill="url(#paint2_linear_157_275)"/>
<path d="M1234.29 677.479C1075.8 593.187 878.434 548.56 667 548L1440 548L1440 741C1440 741 1333.38 730.179 1234.29 677.479Z" fill="url(#paint3_linear_157_275)"/>
<path d="M187.521 400.56C112.969 396.623 0 437.723 0 437.723V501H1440V437.723C1440 437.723 1402.83 394.511 1373.82 400.56C1352.2 405.065 1352.68 432.622 1331.2 437.723C1297.04 445.831 1290.93 395.974 1256.99 387C1199.74 371.863 1173.02 443.602 1114.09 437.723C1075.44 433.866 1060.67 399.756 1021.84 400.56C968.221 401.669 961.6 475.07 908.022 477.397C856.554 479.632 842.538 420.39 791.198 416.128C752.229 412.893 732.517 438.691 693.426 437.723C646.683 436.564 626.366 400.916 579.61 400.56C531.736 400.195 509.998 445.666 462.785 437.723C424.919 431.352 416.551 392.528 378.552 387C338.01 381.103 318.707 414.503 277.772 416.128C242.034 417.547 223.237 402.446 187.521 400.56Z" fill="url(#paint4_linear_157_275)"/>
<path d="M187.521 597.287C112.969 599.728 0 574.241 0 574.241V535H1440V574.241C1440 574.241 1402.83 601.038 1373.82 597.287C1352.2 594.493 1352.68 577.404 1331.2 574.241C1297.04 569.213 1290.93 600.131 1256.99 605.696C1199.74 615.083 1173.02 570.595 1114.09 574.241C1075.44 576.632 1060.67 597.785 1021.84 597.287C968.221 596.599 961.6 551.08 908.022 549.637C856.554 548.251 842.538 584.99 791.198 587.632C752.229 589.639 732.517 573.64 693.426 574.241C646.683 574.959 626.366 597.066 579.61 597.287C531.736 597.513 509.998 569.315 462.785 574.241C424.919 578.192 416.551 602.268 378.552 605.696C338.01 609.353 318.707 588.64 277.772 587.632C242.034 586.753 223.237 596.117 187.521 597.287Z" fill="url(#paint5_linear_157_275)"/>
<path d="M92.0455 399C54.9688 395.539 0 423.899 0 423.899V522H1440V483.158C1440 483.158 1401.46 439.421 1368.41 437.842C1332.62 436.133 1324.47 483.144 1288.64 483.158C1239.78 483.177 1243.37 411.265 1196.08 399C1122.02 379.791 1103.28 526.87 1030.4 503.575C987.916 489.997 989.527 441.574 948.58 423.899C874.686 392.004 831.444 477.05 751.193 483.158C654.782 490.497 599.177 406.278 507.784 437.842C473.918 449.538 463.526 478.422 428.011 483.158C375.612 490.146 359.007 419.748 306.307 423.899C260.805 427.483 251.209 482.725 205.568 483.158C150.384 483.682 146.994 404.13 92.0455 399Z" fill="url(#paint6_linear_157_275)"/>
<path d="M92.0455 597.929C54.9688 600.065 0 582.558 0 582.558V522H1440V545.977C1440 545.977 1401.46 572.977 1368.41 573.951C1332.62 575.006 1324.47 545.986 1288.64 545.977C1239.78 545.966 1243.37 590.357 1196.08 597.929C1122.02 609.787 1103.28 518.994 1030.4 533.374C987.916 541.756 989.527 571.648 948.58 582.558C874.686 602.248 831.444 549.748 751.193 545.977C654.782 541.447 599.177 593.436 507.784 573.951C473.918 566.731 463.526 548.901 428.011 545.977C375.612 541.664 359.007 585.121 306.307 582.558C260.805 580.346 251.209 546.245 205.568 545.977C150.384 545.654 146.994 594.762 92.0455 597.929Z" fill="url(#paint7_linear_157_275)"/>
<defs>
<linearGradient id="paint0_linear_157_275" x1="334" y1="243.5" x2="333.5" y2="479.503" gradientUnits="userSpaceOnUse">
<stop stop-color="#F9F8F9"/>
<stop offset="1" stop-color="white"/>
</linearGradient>
<linearGradient id="paint1_linear_157_275" x1="334" y1="693.997" x2="333.809" y2="548" gradientUnits="userSpaceOnUse">
<stop stop-color="#F9F8F9"/>
<stop offset="1" stop-color="white"/>
</linearGradient>
<linearGradient id="paint2_linear_157_275" x1="1054.08" y1="425.983" x2="1053.56" y2="168" gradientUnits="userSpaceOnUse">
<stop stop-color="#F9F8F9"/>
<stop offset="1" stop-color="white"/>
</linearGradient>
<linearGradient id="paint3_linear_157_275" x1="1053.5" y1="548" x2="1053.5" y2="741" gradientUnits="userSpaceOnUse">
<stop stop-color="white"/>
<stop offset="1" stop-color="#F9F8F9"/>
</linearGradient>
<linearGradient id="paint4_linear_157_275" x1="720" y1="384.897" x2="720" y2="501" gradientUnits="userSpaceOnUse">
<stop stop-color="#AFDBFB"/>
<stop offset="1" stop-color="white"/>
</linearGradient>
<linearGradient id="paint5_linear_157_275" x1="720" y1="607" x2="720" y2="535" gradientUnits="userSpaceOnUse">
<stop stop-color="#AFDBFB"/>
<stop offset="1" stop-color="white"/>
</linearGradient>
<linearGradient id="paint6_linear_157_275" x1="720" y1="331" x2="720" y2="522" gradientUnits="userSpaceOnUse">
<stop stop-color="#FFB5F5"/>
<stop offset="1" stop-color="#F7F0F9"/>
</linearGradient>
<linearGradient id="paint7_linear_157_275" x1="720" y1="639.905" x2="720" y2="522" gradientUnits="userSpaceOnUse">
<stop stop-color="#FFB5F5"/>
<stop offset="1" stop-color="#F7F0F9"/>
</linearGradient>
</defs>
</svg>
