<svg width="1440" height="944" viewBox="0 0 1440 944" fill="none" xmlns="http://www.w3.org/2000/svg">
<path d="M107 264.003C65.0977 263.819 0 272.003 0 272.003V548.503H667C667 548.503 575 533 489.5 457.5C352.745 336.739 289.44 264.805 107 264.003Z" fill="url(#paint0_linear_157_275)"/>
<path d="M107 792.998C65.0977 793.112 0 788.049 0 788.049V617H667C667 617 575 626.591 489.5 673.297C352.745 748.002 289.44 792.502 107 792.998Z" fill="url(#paint1_linear_157_275)"/>
<path d="M1234.29 339.358C1075.8 475.186 878.434 547.098 667 548L1440 548L1440 237C1440 237 1333.38 254.437 1234.29 339.358Z" fill="url(#paint2_linear_157_275)"/>
<path d="M1234.29 746.479C1075.8 662.187 878.434 617.56 667 617L1440 617L1440 810C1440 810 1333.38 799.179 1234.29 746.479Z" fill="url(#paint3_linear_157_275)"/>
<path d="M187.521 469.56C112.969 465.623 0 506.723 0 506.723V570H1440V506.723C1440 506.723 1402.83 463.511 1373.82 469.56C1352.2 474.065 1352.68 501.622 1331.2 506.723C1297.04 514.831 1290.93 464.974 1256.99 456C1199.74 440.863 1173.02 512.602 1114.09 506.723C1075.44 502.866 1060.67 468.756 1021.84 469.56C968.221 470.669 961.6 544.07 908.022 546.397C856.554 548.632 842.538 489.39 791.198 485.128C752.229 481.893 732.517 507.691 693.426 506.723C646.683 505.564 626.366 469.916 579.61 469.56C531.736 469.195 509.998 514.666 462.785 506.723C424.919 500.352 416.551 461.528 378.552 456C338.01 450.103 318.707 483.503 277.772 485.128C242.034 486.547 223.237 471.446 187.521 469.56Z" fill="url(#paint4_linear_157_275)"/>
<path d="M187.521 666.287C112.969 668.728 0 643.241 0 643.241V604H1440V643.241C1440 643.241 1402.83 670.038 1373.82 666.287C1352.2 663.493 1352.68 646.404 1331.2 643.241C1297.04 638.213 1290.93 669.131 1256.99 674.696C1199.74 684.083 1173.02 639.595 1114.09 643.241C1075.44 645.632 1060.67 666.785 1021.84 666.287C968.221 665.599 961.6 620.08 908.022 618.637C856.554 617.251 842.538 653.99 791.198 656.632C752.229 658.639 732.517 642.64 693.426 643.241C646.683 643.959 626.366 666.066 579.61 666.287C531.736 666.513 509.998 638.315 462.785 643.241C424.919 647.192 416.551 671.268 378.552 674.696C338.01 678.353 318.707 657.64 277.772 656.632C242.034 655.753 223.237 665.117 187.521 666.287Z" fill="url(#paint5_linear_157_275)"/>
<path d="M92.0455 468C54.9688 464.539 0 492.899 0 492.899V591H1440V552.158C1440 552.158 1401.46 508.421 1368.41 506.842C1332.62 505.133 1324.47 552.144 1288.64 552.158C1239.78 552.177 1243.37 480.265 1196.08 468C1122.02 448.791 1103.28 595.87 1030.4 572.575C987.916 558.997 989.527 510.574 948.58 492.899C874.686 461.004 831.444 546.05 751.193 552.158C654.782 559.497 599.177 475.278 507.784 506.842C473.918 518.538 463.526 547.422 428.011 552.158C375.612 559.146 359.007 488.748 306.307 492.899C260.805 496.483 251.209 551.725 205.568 552.158C150.384 552.682 146.994 473.13 92.0455 468Z" fill="url(#paint6_linear_157_275)"/>
<path d="M92.0455 666.929C54.9688 669.065 0 651.558 0 651.558V591H1440V614.977C1440 614.977 1401.46 641.977 1368.41 642.951C1332.62 644.006 1324.47 614.986 1288.64 614.977C1239.78 614.966 1243.37 659.357 1196.08 666.929C1122.02 678.787 1103.28 587.994 1030.4 602.374C987.916 610.756 989.527 640.648 948.58 651.558C874.686 671.248 831.444 618.748 751.193 614.977C654.782 610.447 599.177 662.436 507.784 642.951C473.918 635.731 463.526 617.901 428.011 614.977C375.612 610.664 359.007 654.121 306.307 651.558C260.805 649.346 251.209 615.245 205.568 614.977C150.384 614.654 146.994 663.762 92.0455 666.929Z" fill="url(#paint7_linear_157_275)"/>
<defs>
<linearGradient id="paint0_linear_157_275" x1="334" y1="312.5" x2="333.5" y2="548.503" gradientUnits="userSpaceOnUse">
<stop stop-color="#F9F8F9"/>
<stop offset="1" stop-color="white"/>
</linearGradient>
<linearGradient id="paint1_linear_157_275" x1="334" y1="762.997" x2="333.809" y2="617" gradientUnits="userSpaceOnUse">
<stop stop-color="#F9F8F9"/>
<stop offset="1" stop-color="white"/>
</linearGradient>
<linearGradient id="paint2_linear_157_275" x1="1054.08" y1="494.983" x2="1053.56" y2="237" gradientUnits="userSpaceOnUse">
<stop stop-color="#F9F8F9"/>
<stop offset="1" stop-color="white"/>
</linearGradient>
<linearGradient id="paint3_linear_157_275" x1="1053.5" y1="617" x2="1053.5" y2="810" gradientUnits="userSpaceOnUse">
<stop stop-color="white"/>
<stop offset="1" stop-color="#F9F8F9"/>
</linearGradient>
<linearGradient id="paint4_linear_157_275" x1="720" y1="453.897" x2="720" y2="570" gradientUnits="userSpaceOnUse">
<stop stop-color="#AFDBFB"/>
<stop offset="1" stop-color="white"/>
</linearGradient>
<linearGradient id="paint5_linear_157_275" x1="720" y1="676" x2="720" y2="604" gradientUnits="userSpaceOnUse">
<stop stop-color="#AFDBFB"/>
<stop offset="1" stop-color="white"/>
</linearGradient>
<linearGradient id="paint6_linear_157_275" x1="720" y1="400" x2="720" y2="591" gradientUnits="userSpaceOnUse">
<stop stop-color="#FFB5F5"/>
<stop offset="1" stop-color="#F7F0F9"/>
</linearGradient>
<linearGradient id="paint7_linear_157_275" x1="720" y1="708.905" x2="720" y2="591" gradientUnits="userSpaceOnUse">
<stop stop-color="#FFB5F5"/>
<stop offset="1" stop-color="#F7F0F9"/>
</linearGradient>
</defs>
</svg>
