<svg width="375" height="724" viewBox="0 0 375 724" fill="none" xmlns="http://www.w3.org/2000/svg">
<g clip-path="url(#clip0_437_352)">
<path d="M20.0354 202.144C1.61586 202.02 -27 207.519 -27 207.519V393.3H266.202C266.202 393.3 225.76 382.883 188.176 332.154C128.061 251.015 100.233 202.683 20.0354 202.144Z" fill="url(#paint0_linear_437_352)"/>
<path d="M30.0354 557.575C11.6159 557.652 -17 554.25 -17 554.25V439.322H276.202C276.202 439.322 235.76 445.766 198.176 477.148C138.061 527.342 110.233 557.242 30.0354 557.575Z" fill="url(#paint1_linear_437_352)"/>
<path d="M555.575 252.775C485.906 344.038 399.146 392.355 306.203 392.961L646.001 392.961L646.001 184C646.001 184 599.132 195.716 555.575 252.775Z" fill="url(#paint2_linear_437_352)"/>
<path d="M525.575 526.32C455.906 469.684 369.146 439.699 276.203 439.323L616.001 439.323L616.001 569C616.001 569 569.132 561.729 525.575 526.32Z" fill="url(#paint3_linear_437_352)"/>
<path d="M65.4311 340.256C32.6593 337.611 -17 365.226 -17 365.226V407.742H616V365.226C616 365.226 599.663 336.192 586.907 340.256C577.404 343.284 577.617 361.799 568.172 365.226C553.159 370.674 550.47 337.175 535.553 331.146C510.387 320.975 498.639 369.176 472.737 365.226C455.748 362.635 449.254 339.717 432.183 340.256C408.614 341.001 405.703 390.32 382.151 391.883C359.527 393.385 353.365 353.58 330.797 350.717C313.667 348.543 305.002 365.877 287.819 365.226C267.271 364.448 258.34 340.495 237.787 340.256C216.742 340.011 207.186 370.563 186.433 365.226C169.787 360.946 166.109 334.86 149.405 331.146C131.584 327.183 123.098 349.625 105.104 350.717C89.3941 351.67 81.1312 341.523 65.4311 340.256Z" fill="url(#paint4_linear_437_352)"/>
<path d="M65.4311 472.438C32.6593 474.079 -17 456.953 -17 456.953V430.587H616V456.953C616 456.953 599.663 474.958 586.907 472.438C577.404 470.561 577.617 459.079 568.172 456.953C553.159 453.575 550.47 474.349 535.553 478.088C510.387 484.395 498.639 454.504 472.737 456.953C455.748 458.56 449.254 472.773 432.183 472.438C408.614 471.976 405.703 441.392 382.151 440.422C359.527 439.491 353.365 464.175 330.797 465.951C313.667 467.299 305.002 456.55 287.819 456.953C267.271 457.436 258.34 472.29 237.787 472.438C216.742 472.59 207.186 453.644 186.433 456.953C169.787 459.608 166.109 475.785 149.405 478.088C131.584 480.545 123.098 466.628 105.104 465.951C89.3941 465.36 81.1312 471.652 65.4311 472.438Z" fill="url(#paint5_linear_437_352)"/>
<path d="M23.4616 339.209C7.16335 336.883 -17 355.938 -17 355.938V421.852H616V395.754C616 395.754 599.058 366.367 584.53 365.307C568.798 364.158 565.213 395.745 549.463 395.754C527.988 395.767 529.564 347.45 508.777 339.209C476.22 326.302 467.983 425.125 435.946 409.473C417.271 400.349 417.98 367.814 399.98 355.938C367.497 334.508 348.489 391.65 313.212 395.754C270.831 400.685 246.388 344.099 206.213 365.307C191.327 373.165 186.758 392.572 171.147 395.754C148.113 400.45 140.813 353.149 117.647 355.938C97.6455 358.346 93.4272 395.463 73.3643 395.754C49.1062 396.106 47.6159 342.655 23.4616 339.209Z" fill="url(#paint6_linear_437_352)"/>
<path d="M23.4616 472.869C7.16335 474.305 -17 462.542 -17 462.542V421.853H616V437.963C616 437.963 599.058 456.104 584.53 456.759C568.798 457.468 565.213 437.969 549.463 437.963C527.988 437.956 529.564 467.782 508.777 472.869C476.22 480.837 467.983 419.833 435.946 429.495C417.271 435.127 417.98 455.211 399.98 462.542C367.497 475.771 348.489 440.497 313.212 437.963C270.831 434.92 246.388 469.851 206.213 456.759C191.327 451.908 186.758 439.928 171.147 437.963C148.113 435.065 140.813 464.264 117.647 462.542C97.6455 461.056 93.4272 438.143 73.3643 437.963C49.1062 437.746 47.6159 470.742 23.4616 472.869Z" fill="url(#paint7_linear_437_352)"/>
</g>
<defs>
<linearGradient id="paint0_linear_437_352" x1="119.821" y1="234.729" x2="119.307" y2="393.299" gradientUnits="userSpaceOnUse">
<stop stop-color="#F9F8F9"/>
<stop offset="1" stop-color="white"/>
</linearGradient>
<linearGradient id="paint1_linear_437_352" x1="129.821" y1="537.417" x2="129.624" y2="439.322" gradientUnits="userSpaceOnUse">
<stop stop-color="#F9F8F9"/>
<stop offset="1" stop-color="white"/>
</linearGradient>
<linearGradient id="paint2_linear_437_352" x1="476.357" y1="357.339" x2="475.827" y2="184.001" gradientUnits="userSpaceOnUse">
<stop stop-color="#F9F8F9"/>
<stop offset="1" stop-color="white"/>
</linearGradient>
<linearGradient id="paint3_linear_437_352" x1="446.102" y1="439.323" x2="446.102" y2="569" gradientUnits="userSpaceOnUse">
<stop stop-color="white"/>
<stop offset="1" stop-color="#F9F8F9"/>
</linearGradient>
<linearGradient id="paint4_linear_437_352" x1="299.5" y1="329.732" x2="299.5" y2="407.742" gradientUnits="userSpaceOnUse">
<stop stop-color="#AFDBFB"/>
<stop offset="1" stop-color="white"/>
</linearGradient>
<linearGradient id="paint5_linear_437_352" x1="299.5" y1="478.964" x2="299.5" y2="430.587" gradientUnits="userSpaceOnUse">
<stop stop-color="#AFDBFB"/>
<stop offset="1" stop-color="white"/>
</linearGradient>
<linearGradient id="paint6_linear_437_352" x1="299.5" y1="293.519" x2="299.5" y2="421.852" gradientUnits="userSpaceOnUse">
<stop stop-color="#FFB5F5"/>
<stop offset="1" stop-color="#F7F0F9"/>
</linearGradient>
<linearGradient id="paint7_linear_437_352" x1="299.5" y1="501.074" x2="299.5" y2="421.853" gradientUnits="userSpaceOnUse">
<stop stop-color="#FFB5F5"/>
<stop offset="1" stop-color="#F7F0F9"/>
</linearGradient>
<clipPath id="clip0_437_352">
<rect width="375" height="724" fill="white"/>
</clipPath>
</defs>
</svg>
