<svg width="77" height="77" viewBox="0 0 77 77" fill="none" xmlns="http://www.w3.org/2000/svg">
<path d="M45.3568 8.78358C42.9724 11.1681 41.7372 15.3243 42.6365 18.5751C43.1129 20.2958 43.1906 22.3793 41.9281 23.6417L23.6412 41.9286C22.3788 43.1911 20.2954 43.1134 18.5746 42.637C15.3238 41.7377 11.1676 42.9729 8.78309 45.3573C5.62699 48.5137 5.62699 53.6307 8.78309 56.7867C11.9392 59.9427 17.0563 59.9427 20.2124 56.7867C17.0563 59.9427 17.0563 65.06 20.2124 68.2161C23.3686 71.3721 28.4856 71.3721 31.6418 68.2161C34.0263 65.8316 35.2615 61.6752 34.3622 58.4245C33.8858 56.7039 33.8081 54.6204 35.0706 53.3579L53.3575 35.0711C54.6199 33.8086 56.7034 33.8863 58.4241 34.3627C61.6747 35.262 65.8311 34.0268 68.2156 31.6422C71.3716 28.4861 71.3716 23.369 68.2156 20.2129C65.0595 17.0568 59.9422 17.0568 56.7862 20.2129C59.9422 17.0568 59.9422 11.9397 56.7862 8.78358C53.6302 5.62748 48.5132 5.62748 45.3568 8.78358Z" stroke="#9A9A9A" stroke-width="3" stroke-linecap="round" stroke-linejoin="round"/>
</svg>
