<svg width="77" height="77" viewBox="0 0 77 77" fill="none" xmlns="http://www.w3.org/2000/svg">
<path d="M61.2776 34.2013C64.8452 38.4177 64.1032 43.5738 64.1035 48.1248C64.1035 60.6572 47.2055 64.1665 38.5006 64.1665C29.7957 64.1665 12.898 60.6572 12.898 48.1248C12.898 43.5738 12.1562 38.4177 15.7236 34.2013M61.2776 34.2013C60.6536 33.4637 59.8977 32.755 58.9827 32.0832M61.2776 34.2013C63.5234 35.4949 64.0971 30.6545 64.1035 29.0754V23.0601C64.1035 17.8465 60.5191 16.0419 57.4468 16.0419C54.3745 16.0419 48.2296 21.0545 46.1814 21.0545C43.7235 21.0545 43.2503 20.5536 38.5006 20.5536C33.7514 20.5536 33.2778 21.0545 30.8199 21.0545C28.7717 21.0545 22.627 16.0415 19.5547 16.0415C16.4823 16.0415 12.898 17.8462 12.898 23.0597V29.0754C12.9042 30.6545 13.478 35.4949 15.7236 34.2013M15.7236 34.2013C16.3477 33.4637 17.1037 32.755 18.0186 32.0832" stroke="#9A9A9A" stroke-width="3" stroke-linecap="round"/>
<path d="M41.1493 51.3332C41.1493 51.8869 39.9908 52.3358 38.5618 52.3358C37.1331 52.3358 35.9746 51.8869 35.9746 51.3332C35.9746 50.7794 37.1331 50.3306 38.5618 50.3306C39.9908 50.3306 41.1493 50.7794 41.1493 51.3332Z" stroke="#9A9A9A" stroke-width="3"/>
<path d="M49.7297 43.6136C49.7297 44.9977 49.0348 46.12 48.1772 46.12C47.3199 46.12 46.625 44.9977 46.625 43.6136C46.625 42.2292 47.3199 41.1069 48.1772 41.1069C49.0348 41.1069 49.7297 42.2292 49.7297 43.6136Z" stroke="#9A9A9A" stroke-width="3"/>
<path d="M30.4798 43.6136C30.4798 44.9977 29.7848 46.12 28.9274 46.12C28.07 46.12 27.375 44.9977 27.375 43.6136C27.375 42.2292 28.07 41.1069 28.9274 41.1069C29.7848 41.1069 30.4798 42.2292 30.4798 43.6136Z" stroke="#9A9A9A" stroke-width="3"/>
<path d="M70.5837 49.6289C69.0312 48.626 62.304 46.1196 59.7168 46.1196" stroke="#9A9A9A" stroke-width="3" stroke-linecap="round"/>
<path d="M65.4084 57.6499C63.8562 56.647 60.2337 54.1406 57.6465 54.1406" stroke="#9A9A9A" stroke-width="3" stroke-linecap="round"/>
<path d="M6.41602 49.6289C7.96843 48.626 14.6956 46.1196 17.283 46.1196" stroke="#9A9A9A" stroke-width="3" stroke-linecap="round"/>
<path d="M11.5918 57.6499C13.1442 56.647 16.7665 54.1406 19.3539 54.1406" stroke="#9A9A9A" stroke-width="3" stroke-linecap="round"/>
</svg>
