<svg width="30" height="30" viewBox="0 0 30 30" fill="none" xmlns="http://www.w3.org/2000/svg">
<path fill-rule="evenodd" clip-rule="evenodd" d="M15.0006 17.8278L26.3146 29.1418C26.6918 29.5061 27.197 29.7077 27.7214 29.7032C28.2458 29.6986 28.7474 29.4883 29.1183 29.1175C29.4891 28.7466 29.6994 28.245 29.704 27.7206C29.7085 27.1962 29.5069 26.691 29.1426 26.3138L17.8286 14.9998L29.1426 3.68581C29.5069 3.30861 29.7085 2.8034 29.704 2.27901C29.6994 1.75461 29.4891 1.25299 29.1183 0.882174C28.7474 0.511358 28.2458 0.301019 27.7214 0.296462C27.197 0.291905 26.6918 0.493494 26.3146 0.85781L15.0006 12.1718L3.68662 0.85781C3.30772 0.5025 2.80545 0.308541 2.28608 0.316975C1.76672 0.325408 1.27101 0.535573 0.903842 0.902998C0.536677 1.27042 0.326862 1.76628 0.318796 2.28565C0.31073 2.80502 0.505044 3.30716 0.860623 3.68581L12.1726 14.9998L0.858623 26.3138C0.667602 26.4983 0.515239 26.719 0.410421 26.963C0.305603 27.207 0.25043 27.4695 0.248122 27.735C0.245815 28.0006 0.296418 28.2639 0.396979 28.5097C0.497541 28.7555 0.646048 28.9788 0.833833 29.1666C1.02162 29.3544 1.24492 29.5029 1.49072 29.6035C1.73651 29.704 1.99987 29.7546 2.26542 29.7523C2.53098 29.75 2.79342 29.6948 3.03743 29.59C3.28144 29.4852 3.50213 29.3328 3.68662 29.1418L15.0006 17.8278Z" fill="#1E1E1E"/>
</svg>
