<svg width="20" height="20" viewBox="0 0 20 20" fill="none" xmlns="http://www.w3.org/2000/svg">
<g clip-path="url(#clip0_442_446)">
<path fill-rule="evenodd" clip-rule="evenodd" d="M9.99847 11.1783L14.7126 15.8925C14.8698 16.0443 15.0803 16.1283 15.2988 16.1264C15.5173 16.1245 15.7263 16.0368 15.8808 15.8823C16.0353 15.7278 16.123 15.5188 16.1249 15.3003C16.1268 15.0818 16.0428 14.8713 15.891 14.7141L11.1768 9.99996L15.891 5.2858C16.0428 5.12863 16.1268 4.91812 16.1249 4.69963C16.123 4.48113 16.0353 4.27212 15.8808 4.11761C15.7263 3.96311 15.5173 3.87547 15.2988 3.87357C15.0803 3.87167 14.8698 3.95566 14.7126 4.10746L9.99847 8.82163L5.2843 4.10746C5.12643 3.95942 4.91715 3.8786 4.70074 3.88211C4.48434 3.88563 4.2778 3.9732 4.12481 4.12629C3.97182 4.27938 3.8844 4.48599 3.88104 4.7024C3.87768 4.9188 3.95864 5.12802 4.1068 5.2858L8.82014 9.99996L4.10597 14.7141C4.02638 14.791 3.96289 14.883 3.91922 14.9846C3.87554 15.0863 3.85256 15.1956 3.85159 15.3063C3.85063 15.4169 3.87172 15.5267 3.91362 15.6291C3.95552 15.7315 4.0174 15.8245 4.09564 15.9028C4.17388 15.981 4.26693 16.0429 4.36934 16.0848C4.47175 16.1267 4.58149 16.1478 4.69214 16.1468C4.80279 16.1459 4.91214 16.1229 5.01381 16.0792C5.11548 16.0355 5.20743 15.9721 5.2843 15.8925L9.99847 11.1783Z" fill="#1E1E1E"/>
</g>
<defs>
<clipPath id="clip0_442_446">
<rect width="20" height="20" fill="white"/>
</clipPath>
</defs>
</svg>
