<svg width="120" height="120" viewBox="0 0 120 120" fill="none" xmlns="http://www.w3.org/2000/svg">
<g id="ph:microphone-fill">
<path id="Vector" d="M37.5 60V30C37.5 24.0326 39.8705 18.3097 44.0901 14.0901C48.3097 9.87053 54.0326 7.5 60 7.5C65.9674 7.5 71.6903 9.87053 75.9099 14.0901C80.1295 18.3097 82.5 24.0326 82.5 30V60C82.5 65.9674 80.1295 71.6903 75.9099 75.9099C71.6903 80.1295 65.9674 82.5 60 82.5C54.0326 82.5 48.3097 80.1295 44.0901 75.9099C39.8705 71.6903 37.5 65.9674 37.5 60ZM97.5 60C97.5 59.0054 97.1049 58.0516 96.4017 57.3484C95.6984 56.6451 94.7446 56.25 93.75 56.25C92.7554 56.25 91.8016 56.6451 91.0983 57.3484C90.3951 58.0516 90 59.0054 90 60C90 67.9565 86.8393 75.5871 81.2132 81.2132C75.5871 86.8393 67.9565 90 60 90C52.0435 90 44.4129 86.8393 38.7868 81.2132C33.1607 75.5871 30 67.9565 30 60C30 59.0054 29.6049 58.0516 28.9016 57.3484C28.1984 56.6451 27.2446 56.25 26.25 56.25C25.2554 56.25 24.3016 56.6451 23.5984 57.3484C22.8951 58.0516 22.5 59.0054 22.5 60C22.5114 69.2932 25.9684 78.252 32.2024 85.144C38.4364 92.0361 47.0046 96.3717 56.25 97.3125V108.75C56.25 109.745 56.6451 110.698 57.3484 111.402C58.0516 112.105 59.0054 112.5 60 112.5C60.9946 112.5 61.9484 112.105 62.6517 111.402C63.3549 110.698 63.75 109.745 63.75 108.75V97.3125C72.9954 96.3717 81.5636 92.0361 87.7976 85.144C94.0316 78.252 97.4886 69.2932 97.5 60Z" fill="#151517"/>
</g>
</svg>
