<svg width="77" height="77" viewBox="0 0 77 77" fill="none" xmlns="http://www.w3.org/2000/svg">
<path d="M38.4993 54.5417C50.9027 54.5417 60.9577 44.4867 60.9577 32.0833C60.9577 19.6799 50.9027 9.625 38.4993 9.625C26.096 9.625 16.041 19.6799 16.041 32.0833C16.041 44.4867 26.096 54.5417 38.4993 54.5417Z" stroke="#9A9A9A" stroke-width="3"/>
<path d="M12.834 53.1372C18.8925 59.9065 27.697 64.1665 37.4964 64.1665C55.7701 64.1665 70.584 49.3527 70.584 31.0789C70.584 21.2795 66.324 12.4751 59.5547 6.4165" stroke="#9A9A9A" stroke-width="3" stroke-linecap="round"/>
<path d="M22.459 14.6065C24.3364 16.3795 28.204 21.2257 28.6546 26.4266C29.0758 31.2879 32.17 35.2379 36.8965 35.2915C38.713 35.312 40.5501 33.9514 40.5453 32.0676C40.5437 31.485 40.451 30.8894 40.306 30.3415C40.1042 29.5793 40.0862 28.7025 40.5059 27.8056C41.9734 24.6678 44.8596 23.8249 47.1468 22.1208C48.1613 21.365 49.0865 20.5677 49.4943 19.9255C50.6208 18.1525 51.7475 14.6065 51.1842 12.8335" stroke="#9A9A9A" stroke-width="3"/>
<path d="M60.9589 35.2915C60.2544 37.2829 59.7558 42.5103 51.8008 42.5933C51.8008 42.5933 44.7559 42.5934 42.6426 46.5759C40.9518 49.7621 41.938 53.2139 42.6426 54.5415" stroke="#9A9A9A" stroke-width="3"/>
<path d="M38.5 70.5832V64.1665" stroke="#9A9A9A" stroke-width="3" stroke-linecap="round"/>
<path d="M38.5007 70.5835H32.084" stroke="#9A9A9A" stroke-width="3" stroke-linecap="round"/>
<path d="M44.9167 70.5835H38.5" stroke="#9A9A9A" stroke-width="3" stroke-linecap="round"/>
</svg>
