<svg width="50" height="50" viewBox="0 0 50 50" fill="none" xmlns="http://www.w3.org/2000/svg">
<circle cx="25" cy="25" r="24" fill="white" stroke="#9A9A9A" stroke-width="2"/>
<path d="M22.6989 30.6364V30.483C22.7159 28.8551 22.8864 27.5597 23.2102 26.5966C23.5341 25.6335 23.9943 24.8537 24.5909 24.2571C25.1875 23.6605 25.9034 23.1108 26.7386 22.608C27.2415 22.3011 27.6932 21.9389 28.0938 21.5213C28.4943 21.0952 28.8097 20.6051 29.0398 20.0511C29.2784 19.4972 29.3977 18.8835 29.3977 18.2102C29.3977 17.375 29.2017 16.6506 28.8097 16.0369C28.4176 15.4233 27.8935 14.9503 27.2372 14.6179C26.581 14.2855 25.8523 14.1193 25.0511 14.1193C24.3523 14.1193 23.679 14.2642 23.0312 14.554C22.3835 14.8437 21.8423 15.2997 21.4077 15.9219C20.973 16.544 20.7216 17.358 20.6534 18.3636H17.4318C17.5 16.9148 17.875 15.6747 18.5568 14.6435C19.2472 13.6122 20.1548 12.8239 21.2798 12.2784C22.4134 11.733 23.6705 11.4602 25.0511 11.4602C26.5511 11.4602 27.8551 11.7585 28.9631 12.3551C30.0795 12.9517 30.9403 13.7699 31.5455 14.8097C32.1591 15.8494 32.4659 17.0341 32.4659 18.3636C32.4659 19.3011 32.321 20.1491 32.0312 20.9077C31.75 21.6662 31.3409 22.3437 30.804 22.9403C30.2756 23.5369 29.6364 24.0653 28.8864 24.5256C28.1364 24.9943 27.5355 25.4886 27.0838 26.0085C26.6321 26.5199 26.304 27.1293 26.0994 27.8366C25.8949 28.544 25.7841 29.4261 25.767 30.483V30.6364H22.6989ZM24.3352 38.2045C23.7045 38.2045 23.1634 37.9787 22.7116 37.527C22.2599 37.0753 22.0341 36.5341 22.0341 35.9034C22.0341 35.2727 22.2599 34.7315 22.7116 34.2798C23.1634 33.8281 23.7045 33.6023 24.3352 33.6023C24.9659 33.6023 25.5071 33.8281 25.9588 34.2798C26.4105 34.7315 26.6364 35.2727 26.6364 35.9034C26.6364 36.321 26.5298 36.7045 26.3168 37.054C26.1122 37.4034 25.8352 37.6847 25.4858 37.8977C25.1449 38.1023 24.7614 38.2045 24.3352 38.2045Z" fill="#9A9A9A"/>
</svg>
