<svg width="35" height="35" viewBox="0 0 35 35" fill="none" xmlns="http://www.w3.org/2000/svg">
<circle cx="17.5" cy="17.5" r="16.5" fill="white" stroke="#9A9A9A" stroke-width="2"/>
<path d="M16.0373 21.7819V21.6711C16.0496 20.4955 16.1727 19.5599 16.4066 18.8643C16.6405 18.1688 16.9729 17.6055 17.4038 17.1747C17.8346 16.7438 18.3517 16.3468 18.9549 15.9836C19.3181 15.762 19.6443 15.5004 19.9336 15.1988C20.2229 14.8911 20.4506 14.5371 20.6168 14.137C20.7892 13.7369 20.8754 13.2938 20.8754 12.8075C20.8754 12.2043 20.7338 11.6811 20.4506 11.2379C20.1675 10.7947 19.7889 10.4531 19.315 10.213C18.841 9.97297 18.3147 9.85294 17.7362 9.85294C17.2314 9.85294 16.7451 9.95758 16.2773 10.1669C15.8095 10.3761 15.4187 10.7054 15.1048 11.1548C14.7908 11.6041 14.6093 12.192 14.56 12.9183H12.2333C12.2826 11.8719 12.5534 10.9763 13.0458 10.2315C13.5444 9.4867 14.1999 8.91733 15.0124 8.52339C15.8311 8.12945 16.739 7.93248 17.7362 7.93248C18.8195 7.93248 19.7612 8.14792 20.5614 8.57879C21.3678 9.00966 21.9895 9.60057 22.4265 10.3515C22.8697 11.1025 23.0913 11.9581 23.0913 12.9183C23.0913 13.5954 22.9866 14.2078 22.7773 14.7556C22.5742 15.3035 22.2788 15.7928 21.891 16.2237C21.5094 16.6545 21.0477 17.0362 20.506 17.3686C19.9644 17.7071 19.5304 18.0641 19.2042 18.4396C18.878 18.8089 18.641 19.249 18.4933 19.7599C18.3455 20.2708 18.2655 20.9079 18.2532 21.6711V21.7819H16.0373ZM17.2191 27.2478C16.7636 27.2478 16.3728 27.0847 16.0465 26.7585C15.7203 26.4322 15.5572 26.0414 15.5572 25.5859C15.5572 25.1304 15.7203 24.7395 16.0465 24.4133C16.3728 24.0871 16.7636 23.924 17.2191 23.924C17.6746 23.924 18.0655 24.0871 18.3917 24.4133C18.7179 24.7395 18.881 25.1304 18.881 25.5859C18.881 25.8875 18.8041 26.1645 18.6502 26.4169C18.5025 26.6692 18.3024 26.8724 18.0501 27.0262C17.8039 27.174 17.5269 27.2478 17.2191 27.2478Z" fill="#9A9A9A"/>
</svg>
