<svg width="77" height="77" viewBox="0 0 77 77" fill="none" xmlns="http://www.w3.org/2000/svg">
<path d="M6.41602 38.4998C6.41602 23.3756 6.41602 15.8135 11.1145 11.115C15.813 6.4165 23.3751 6.4165 38.4993 6.4165C53.6234 6.4165 61.1858 6.4165 65.8841 11.115C70.5827 15.8135 70.5827 23.3756 70.5827 38.4998C70.5827 53.6239 70.5827 61.1863 65.8841 65.8846C61.1858 70.5832 53.6234 70.5832 38.4993 70.5832C23.3751 70.5832 15.813 70.5832 11.1145 65.8846C6.41602 61.1863 6.41602 53.6239 6.41602 38.4998Z" stroke="#9A9A9A" stroke-width="3"/>
<path d="M12.834 48.125H20.2179C22.8114 48.125 24.1081 48.125 25.2719 48.5989C25.3779 48.6422 25.4827 48.6881 25.5862 48.7368C26.723 49.2723 27.6009 50.2268 29.3569 52.1354L29.4707 52.2589C31.1138 54.045 31.9353 54.9379 32.9852 55.4647C33.1819 55.5632 33.3834 55.6518 33.5893 55.7297C34.6875 56.1458 35.9009 56.1458 38.328 56.1458C40.6223 56.1458 41.7696 56.1458 42.8184 55.7701C43.0151 55.6999 43.2082 55.6197 43.3972 55.5305C44.4046 55.0544 45.216 54.243 46.8381 52.6208L47.5751 51.8839C49.4298 50.0291 50.357 49.1019 51.5364 48.6133C52.7155 48.125 54.0271 48.125 56.6499 48.125H64.1673" stroke="#9A9A9A" stroke-width="3" stroke-linecap="round"/>
<path d="M16.041 48.125V43.3125C16.041 40.6547 18.1956 38.5 20.8535 38.5H56.1452C58.803 38.5 60.9577 40.6547 60.9577 43.3125V48.125" stroke="#9A9A9A" stroke-width="3" stroke-linecap="round"/>
<path d="M16.041 44.9167V33.6875C16.041 31.0296 18.1956 28.875 20.8535 28.875H56.1452C58.803 28.875 60.9577 31.0296 60.9577 33.6875V44.9167" stroke="#9A9A9A" stroke-width="3" stroke-linecap="round"/>
<path d="M16.041 35.2917V24.0625C16.041 21.4046 18.1956 19.25 20.8535 19.25H56.1452C58.803 19.25 60.9577 21.4046 60.9577 24.0625V35.2917" stroke="#9A9A9A" stroke-width="3" stroke-linecap="round"/>
</svg>
