<svg width="77" height="77" viewBox="0 0 77 77" fill="none" xmlns="http://www.w3.org/2000/svg">
<path d="M12.834 11.229C12.834 9.73411 12.834 8.98667 13.0782 8.39707C13.4038 7.61093 14.0284 6.98634 14.8146 6.66072C15.4041 6.4165 16.1516 6.4165 17.6465 6.4165H46.5215C48.0162 6.4165 48.7638 6.4165 49.3535 6.66072C50.1395 6.98634 50.7642 7.61093 51.0898 8.39707C51.334 8.98667 51.334 9.73411 51.334 11.229C51.334 12.7239 51.334 13.4713 51.0898 14.0609C50.7642 14.8471 50.1395 15.4717 49.3535 15.7973C48.7638 16.0415 48.0162 16.0415 46.5215 16.0415H17.6465C16.1516 16.0415 15.4041 16.0415 14.8146 15.7973C14.0284 15.4717 13.4038 14.8471 13.0782 14.0609C12.834 13.4713 12.834 12.7239 12.834 11.229Z" stroke="#9A9A9A" stroke-width="3"/>
<path d="M8.02148 57.75H33.6882" stroke="#9A9A9A" stroke-width="3" stroke-linecap="round"/>
<path d="M8.02148 32.0835H56.1465" stroke="#9A9A9A" stroke-width="3" stroke-linecap="round"/>
<path d="M33.6869 70.5832H22.3195C20.4872 70.5832 19.571 70.5832 18.7026 70.4638C16.1264 70.1103 13.7184 68.9825 11.7976 67.2298C11.15 66.6388 10.5635 65.9353 9.39049 64.5274C7.46854 62.2213 6.41602 59.3139 6.41602 56.3119V35.0429C6.41602 31.1443 8.18817 27.4571 11.2324 25.0217L18.9424 18.8537C20.6831 17.4612 21.5534 16.765 22.5846 16.4032C23.6157 16.0415 24.7303 16.0415 26.9594 16.0415H37.353C39.6024 16.0415 40.7269 16.0415 41.7661 16.4094C42.8053 16.7773 43.6795 17.4849 45.4277 18.9002L52.9908 25.0226C56.0008 27.4592 57.7494 31.1247 57.7494 34.9973V40.104" stroke="#9A9A9A" stroke-width="3" stroke-linecap="round"/>
<path d="M32.0827 38.5V51.3333M25.666 44.9167H38.4993" stroke="#9A9A9A" stroke-width="3" stroke-linecap="round"/>
<path d="M47.3962 53.8122C47.3962 53.8122 50.5795 54.4882 54.1921 58.1008C57.805 61.7133 58.4803 64.8963 58.4803 64.8963M61.8054 50.4871C64.8662 53.5478 64.9653 58.411 62.0271 61.3492L54.9332 68.4431C51.995 71.3813 47.1318 71.2822 44.071 68.2214C41.0103 65.1607 40.9112 60.2975 43.8493 57.3593L50.9433 50.2654C53.8815 47.3272 58.7447 47.4263 61.8054 50.4871Z" stroke="#9A9A9A" stroke-width="3"/>
</svg>
