<svg width="77" height="77" viewBox="0 0 77 77" fill="none" xmlns="http://www.w3.org/2000/svg">
<path d="M24.2892 49.3324C29.3766 38.975 31.9203 33.7964 35.5817 32.5625C37.4765 31.9238 39.5235 31.9238 41.4183 32.5625C45.0796 33.7964 47.6235 38.975 52.711 49.3324L55.5301 55.0722C56.8443 57.7476 57.5013 59.0855 57.657 59.9969C58.3025 63.7786 55.5048 67.2641 51.7357 67.3739C50.8271 67.4005 49.4083 67.0116 46.5709 66.2339C44.9491 65.7896 44.1383 65.5673 43.3276 65.4033C40.1404 64.7581 36.8596 64.7581 33.6724 65.4033C32.8617 65.5673 32.0508 65.7896 30.4293 66.2339C27.5917 67.0116 26.1728 67.4005 25.2643 67.3739C21.4952 67.2641 18.6974 63.7786 19.3429 59.9969C19.4985 59.0855 20.1556 57.7476 21.4698 55.0722L24.2892 49.3324Z" stroke="#9A9A9A" stroke-width="3"/>
<path d="M19.7145 17.7338C21.0357 22.9658 24.7717 26.4495 28.059 25.5149C31.3463 24.5803 32.94 19.5813 31.6189 14.3492C30.2976 9.11722 26.5616 5.63348 23.2743 6.5681C19.987 7.50272 18.3932 12.5018 19.7145 17.7338Z" stroke="#9A9A9A" stroke-width="3"/>
<path d="M57.2847 17.7338C55.9635 22.9658 52.2277 26.4495 48.9401 25.5149C45.6529 24.5803 44.0593 19.5813 45.3805 14.3492C46.7017 9.11722 50.4375 5.63348 53.7251 6.5681C57.0123 7.50272 58.6059 12.5018 57.2847 17.7338Z" stroke="#9A9A9A" stroke-width="3"/>
<path d="M7.063 39.453C8.50675 43.3191 11.9012 45.6676 14.6447 44.698C17.3883 43.7288 18.4419 39.8085 16.9982 35.9425C15.5544 32.0763 12.16 29.728 9.41644 30.6974C6.6729 31.6669 5.61925 35.587 7.063 39.453Z" stroke="#9A9A9A" stroke-width="3"/>
<path d="M69.9354 39.453C68.4917 43.3191 65.0973 45.6676 62.3538 44.698C59.6104 43.7288 58.5568 39.8085 60.0005 35.9425C61.4443 32.0763 64.8387 29.728 67.5821 30.6974C70.3256 31.6669 71.3792 35.587 69.9354 39.453Z" stroke="#9A9A9A" stroke-width="3"/>
</svg>
