<svg width="48" height="48" viewBox="0 0 48 48" fill="none" xmlns="http://www.w3.org/2000/svg">
<g clip-path="url(#clip0_157_25275)">
<path fill-rule="evenodd" clip-rule="evenodd" d="M24.0006 26.8278L35.3146 38.1418C35.6918 38.5061 36.197 38.7077 36.7214 38.7032C37.2458 38.6986 37.7474 38.4883 38.1183 38.1175C38.4891 37.7466 38.6994 37.245 38.704 36.7206C38.7085 36.1962 38.5069 35.691 38.1426 35.3138L26.8286 23.9998L38.1426 12.6858C38.5069 12.3086 38.7085 11.8034 38.704 11.279C38.6994 10.7546 38.4891 10.253 38.1183 9.88217C37.7474 9.51136 37.2458 9.30102 36.7214 9.29646C36.197 9.29191 35.6918 9.49349 35.3146 9.85781L24.0006 21.1718L12.6866 9.85781C12.3077 9.5025 11.8054 9.30854 11.2861 9.31697C10.7667 9.32541 10.271 9.53557 9.90384 9.903C9.53668 10.2704 9.32686 10.7663 9.3188 11.2857C9.31073 11.805 9.50504 12.3072 9.86062 12.6858L21.1726 23.9998L9.85862 35.3138C9.6676 35.4983 9.51524 35.719 9.41042 35.963C9.3056 36.207 9.25043 36.4695 9.24812 36.735C9.24581 37.0006 9.29642 37.2639 9.39698 37.5097C9.49754 37.7555 9.64605 37.9788 9.83383 38.1666C10.0216 38.3544 10.2449 38.5029 10.4907 38.6035C10.7365 38.704 10.9999 38.7546 11.2654 38.7523C11.531 38.75 11.7934 38.6948 12.0374 38.59C12.2814 38.4852 12.5021 38.3328 12.6866 38.1418L24.0006 26.8278Z" fill="#1E1E1E"/>
</g>
<defs>
<clipPath id="clip0_157_25275">
<rect width="48" height="48" fill="white"/>
</clipPath>
</defs>
</svg>
