<svg width="24" height="24" viewBox="0 0 24 24" fill="none" xmlns="http://www.w3.org/2000/svg">
<path d="M12.2575 16.3684L20.2225 8.00892C20.3555 7.86944 20.4297 7.68413 20.4297 7.49142C20.4297 7.29872 20.3555 7.11341 20.2225 6.97392L20.2135 6.96492C20.1491 6.89707 20.0715 6.84304 19.9855 6.80612C19.8995 6.7692 19.8069 6.75016 19.7133 6.75016C19.6197 6.75016 19.5271 6.7692 19.4411 6.80612C19.3551 6.84304 19.2775 6.89707 19.213 6.96492L11.713 14.8369L4.21604 6.96492C4.15158 6.89707 4.07399 6.84304 3.988 6.80612C3.902 6.7692 3.80938 6.75016 3.71579 6.75016C3.6222 6.75016 3.52959 6.7692 3.44359 6.80612C3.35759 6.84304 3.28 6.89707 3.21554 6.96492L3.20654 6.97392C3.07358 7.1134 2.9994 7.29872 2.9994 7.49142C2.9994 7.68413 3.07358 7.86944 3.20654 8.00892L11.1715 16.3684C11.2416 16.4419 11.3258 16.5005 11.4192 16.5405C11.5125 16.5805 11.613 16.6011 11.7145 16.6011C11.8161 16.6011 11.9166 16.5805 12.0099 16.5405C12.1033 16.5005 12.1875 16.4419 12.2575 16.3684Z" fill="#151517"/>
</svg>
