<svg width="70" height="28" viewBox="0 0 70 28" fill="none" xmlns="http://www.w3.org/2000/svg">
<path d="M37.1807 27.3387L69.1681 3.57788C69.7021 3.18142 70 2.65469 70 2.10695C70 1.55921 69.7021 1.03248 69.1681 0.636022L69.132 0.610439C68.8731 0.417578 68.5615 0.264004 68.2161 0.159061C67.8708 0.0541189 67.4988 5.50339e-06 67.123 5.47053e-06C66.7471 5.43767e-06 66.3752 0.0541188 66.0298 0.159061C65.6844 0.264003 65.3728 0.417577 65.114 0.610439L34.994 22.9856L4.88604 0.610434C4.62717 0.417572 4.31558 0.263998 3.9702 0.159056C3.62483 0.0541133 3.25289 -1.13172e-07 2.87704 -1.4603e-07C2.50119 -1.78888e-07 2.12926 0.0541132 1.78388 0.159055C1.43851 0.263998 1.12691 0.417572 0.868037 0.610433L0.831889 0.636017C0.297892 1.03248 2.31153e-06 1.5592 2.26364e-06 2.10694C2.21576e-06 2.65469 0.297892 3.18141 0.831888 3.57787L32.8193 27.3387C33.1006 27.5477 33.4389 27.714 33.8138 27.8277C34.1886 27.9414 34.5922 28 35 28C35.4078 28 35.8114 27.9414 36.1862 27.8277C36.5611 27.714 36.8994 27.5477 37.1807 27.3387Z" fill="#A4A4A4"/>
</svg>
