<svg width="141" height="32" viewBox="0 0 141 32" fill="none" xmlns="http://www.w3.org/2000/svg">
<path d="M11.979 4.344C13.3443 4.344 14.5817 4.49333 15.691 4.792C16.8003 5.06933 17.739 5.528 18.507 6.168C19.2963 6.78667 19.8937 7.608 20.299 8.632C20.7257 9.63467 20.9283 10.872 20.907 12.344C20.8857 13.624 20.6617 14.7653 20.235 15.768C19.8083 16.7493 19.211 17.5813 18.443 18.264C17.6963 18.9253 16.7897 19.4373 15.723 19.8C14.6777 20.1413 13.5363 20.312 12.299 20.312H7.915V27H3.275V4.344H11.979ZM12.043 16.216C12.619 16.216 13.163 16.1413 13.675 15.992C14.2083 15.8427 14.667 15.608 15.051 15.288C15.435 14.968 15.7443 14.5733 15.979 14.104C16.2137 13.6347 16.3417 13.08 16.363 12.44C16.4057 10.9893 16.011 9.96533 15.179 9.368C14.3683 8.77067 13.3123 8.472 12.011 8.472H7.915V16.216H12.043ZM27.2193 22.68L25.5873 27H20.5312L29.2993 4.344H34.5473L43.1873 27H38.0993L36.5312 22.68H27.2193ZM28.5633 18.584H35.1553L31.8913 9.24L28.5633 18.584ZM48.0748 27L42.3148 4.344H47.5948L51.3068 21.72L54.7948 4.344H61.0347L64.4268 21.72L67.9148 4.344H72.9068L67.5308 27H61.3868L57.8348 9.336L54.3148 27H48.0748Z" fill="url(#paint0_linear_158_31364)"/>
<path d="M15.691 4.792L15.561 5.27489L15.5697 5.27707L15.691 4.792ZM18.507 6.168L18.1869 6.55211L18.1927 6.55691L18.1986 6.56153L18.507 6.168ZM20.299 8.632L19.8339 8.81608L19.8389 8.82778L20.299 8.632ZM20.907 12.344L21.4069 12.3523L21.4069 12.3512L20.907 12.344ZM20.235 15.768L20.6935 15.9674L20.6951 15.9638L20.235 15.768ZM18.443 18.264L18.7745 18.6383L18.7752 18.6377L18.443 18.264ZM15.723 19.8L15.8782 20.2753L15.884 20.2734L15.723 19.8ZM7.915 20.312V19.812H7.415V20.312H7.915ZM7.915 27V27.5H8.415V27H7.915ZM3.275 27H2.775V27.5H3.275V27ZM3.275 4.344V3.844H2.775V4.344H3.275ZM13.675 15.992L13.5402 15.5105L13.535 15.512L13.675 15.992ZM15.051 15.288L14.7309 14.9039L14.7309 14.9039L15.051 15.288ZM15.979 14.104L16.4262 14.3276L16.4262 14.3276L15.979 14.104ZM16.363 12.44L16.8627 12.4567L16.8628 12.4547L16.363 12.44ZM15.179 9.368L14.8824 9.77056L14.8874 9.77416L15.179 9.368ZM7.915 8.472V7.972H7.415V8.472H7.915ZM7.915 16.216H7.415V16.716H7.915V16.216ZM11.979 4.844C13.3084 4.844 14.5011 4.98946 15.561 5.27481L15.821 4.30919C14.6622 3.99721 13.3802 3.844 11.979 3.844V4.844ZM15.5697 5.27707C16.6166 5.53878 17.4845 5.96679 18.1869 6.55211L18.8271 5.78389C17.9935 5.0892 16.9841 4.59989 15.8123 4.30693L15.5697 5.27707ZM18.1986 6.56153C18.9114 7.1202 19.4581 7.86617 19.8341 8.81602L20.7639 8.44798C20.3292 7.34982 19.6813 6.45313 18.8154 5.77447L18.1986 6.56153ZM19.8389 8.82778C20.2305 9.74798 20.4277 10.9114 20.4071 12.3368L21.4069 12.3512C21.429 10.8326 21.2208 9.52135 20.7591 8.43622L19.8389 8.82778ZM20.4071 12.3357C20.3866 13.5623 20.1723 14.6383 19.7749 15.5722L20.6951 15.9638C21.151 14.8924 21.3847 13.6857 21.4069 12.3523L20.4071 12.3357ZM19.7765 15.5686C19.3775 16.4862 18.8223 17.2579 18.1108 17.8903L18.7752 18.6377C19.5997 17.9048 20.2391 17.0125 20.6935 15.9674L19.7765 15.5686ZM18.1115 17.8897C17.4206 18.5017 16.574 18.9826 15.562 19.3266L15.884 20.2734C17.0054 19.8921 17.9721 19.349 18.7745 18.6383L18.1115 17.8897ZM15.5678 19.3247C14.5784 19.6478 13.4901 19.812 12.299 19.812V20.812C13.5825 20.812 14.7769 20.6349 15.8782 20.2753L15.5678 19.3247ZM12.299 19.812H7.915V20.812H12.299V19.812ZM7.415 20.312V27H8.415V20.312H7.415ZM7.915 26.5H3.275V27.5H7.915V26.5ZM3.775 27V4.344H2.775V27H3.775ZM3.275 4.844H11.979V3.844H3.275V4.844ZM12.043 16.716C12.6626 16.716 13.254 16.6356 13.815 16.472L13.535 15.512C13.072 15.6471 12.5754 15.716 12.043 15.716V16.716ZM13.8098 16.4735C14.4037 16.3072 14.9273 16.0419 15.3711 15.6721L14.7309 14.9039C14.4067 15.1741 14.013 15.3781 13.5402 15.5105L13.8098 16.4735ZM15.3711 15.6721C15.8107 15.3058 16.1623 14.8555 16.4262 14.3276L15.5318 13.8804C15.3264 14.2912 15.0593 14.6302 14.7309 14.9039L15.3711 15.6721ZM16.4262 14.3276C16.6994 13.7813 16.8395 13.1531 16.8627 12.4567L15.8633 12.4233C15.8438 13.0069 15.728 13.488 15.5318 13.8804L16.4262 14.3276ZM16.8628 12.4547C16.9081 10.9128 16.4889 9.6929 15.4706 8.96184L14.8874 9.77416C15.5331 10.2378 15.9032 11.0659 15.8632 12.4253L16.8628 12.4547ZM15.4756 8.96547C14.5569 8.2885 13.3878 7.972 12.011 7.972V8.972C13.2369 8.972 14.1798 9.25283 14.8824 9.77053L15.4756 8.96547ZM12.011 7.972H7.915V8.972H12.011V7.972ZM7.415 8.472V16.216H8.415V8.472H7.415ZM7.915 16.716H12.043V15.716H7.915V16.716ZM27.2193 22.68V22.18H26.8736L26.7515 22.5033L27.2193 22.68ZM25.5873 27V27.5H25.9329L26.055 27.1767L25.5873 27ZM20.5312 27L20.065 26.8195L19.8016 27.5H20.5312V27ZM29.2993 4.344V3.844H28.9566L28.833 4.16354L29.2993 4.344ZM34.5473 4.344L35.0144 4.16584L34.8917 3.844H34.5473V4.344ZM43.1873 27V27.5H43.9131L43.6544 26.8218L43.1873 27ZM38.0993 27L37.6293 27.1706L37.7488 27.5H38.0993V27ZM36.5312 22.68L37.0012 22.5094L36.8817 22.18H36.5312V22.68ZM28.5633 18.584L28.0922 18.4162L27.8544 19.084H28.5633V18.584ZM35.1553 18.584V19.084H35.8595L35.6273 18.4191L35.1553 18.584ZM31.8913 9.24L32.3633 9.07511L31.8958 7.73692L31.4202 9.07224L31.8913 9.24ZM26.7515 22.5033L25.1195 26.8233L26.055 27.1767L27.687 22.8567L26.7515 22.5033ZM25.5873 26.5H20.5312V27.5H25.5873V26.5ZM20.9975 27.1805L29.7655 4.52446L28.833 4.16354L20.065 26.8195L20.9975 27.1805ZM29.2993 4.844H34.5473V3.844H29.2993V4.844ZM34.0801 4.52216L42.7201 27.1782L43.6544 26.8218L35.0144 4.16584L34.0801 4.52216ZM43.1873 26.5H38.0993V27.5H43.1873V26.5ZM38.5692 26.8294L37.0012 22.5094L36.0613 22.8506L37.6293 27.1706L38.5692 26.8294ZM36.5312 22.18H27.2193V23.18H36.5312V22.18ZM28.5633 19.084H35.1553V18.084H28.5633V19.084ZM35.6273 18.4191L32.3633 9.07511L31.4192 9.40489L34.6832 18.7489L35.6273 18.4191ZM31.4202 9.07224L28.0922 18.4162L29.0343 18.7518L32.3623 9.40776L31.4202 9.07224ZM48.0748 27L47.5902 27.1232L47.686 27.5H48.0748V27ZM42.3148 4.344V3.844H41.6717L41.8302 4.4672L42.3148 4.344ZM47.5948 4.344L48.0837 4.23954L47.9992 3.844H47.5948V4.344ZM51.3068 21.72L50.8178 21.8245L51.797 21.8184L51.3068 21.72ZM54.7948 4.344V3.844H54.3851L54.3045 4.24559L54.7948 4.344ZM61.0347 4.344L61.5255 4.2482L61.4466 3.844H61.0347V4.344ZM64.4268 21.72L63.936 21.8158L64.917 21.8184L64.4268 21.72ZM67.9148 4.344V3.844H67.5051L67.4245 4.24559L67.9148 4.344ZM72.9068 4.344L73.3932 4.45944L73.5393 3.844H72.9068V4.344ZM67.5308 27V27.5H67.926L68.0172 27.1154L67.5308 27ZM61.3868 27L60.8966 27.0986L60.9773 27.5H61.3868V27ZM57.8348 9.336L58.3249 9.23743L57.3444 9.23828L57.8348 9.336ZM54.3148 27V27.5H54.7249L54.8051 27.0977L54.3148 27ZM48.5593 26.8768L42.7993 4.2208L41.8302 4.4672L47.5902 27.1232L48.5593 26.8768ZM42.3148 4.844H47.5948V3.844H42.3148V4.844ZM47.1058 4.44846L50.8178 21.8245L51.7957 21.6155L48.0837 4.23954L47.1058 4.44846ZM51.797 21.8184L55.285 4.44241L54.3045 4.24559L50.8165 21.6216L51.797 21.8184ZM54.7948 4.844H61.0347V3.844H54.7948V4.844ZM60.544 4.4398L63.936 21.8158L64.9175 21.6242L61.5255 4.2482L60.544 4.4398ZM64.917 21.8184L68.405 4.44241L67.4245 4.24559L63.9365 21.6216L64.917 21.8184ZM67.9148 4.844H72.9068V3.844H67.9148V4.844ZM72.4203 4.22856L67.0443 26.8846L68.0172 27.1154L73.3932 4.45944L72.4203 4.22856ZM67.5308 26.5H61.3868V27.5H67.5308V26.5ZM61.8769 26.9014L58.3249 9.23743L57.3446 9.43457L60.8966 27.0986L61.8769 26.9014ZM57.3444 9.23828L53.8244 26.9023L54.8051 27.0977L58.3251 9.43371L57.3444 9.23828ZM54.3148 26.5H48.0748V27.5H54.3148V26.5Z" fill="#1E1E1E"/>
<path d="M81.23 19.944C81.174 19.524 80.9873 19.2253 80.67 19.048C80.3527 18.8613 79.956 18.7587 79.48 18.74C79.312 18.74 79.1347 18.754 78.948 18.782C78.7707 18.81 78.6027 18.866 78.444 18.95C78.2853 19.034 78.1547 19.146 78.052 19.286C77.9493 19.426 77.898 19.5987 77.898 19.804C77.8887 20.0187 77.94 20.2007 78.052 20.35C78.1733 20.4993 78.332 20.6207 78.528 20.714C78.668 20.7793 78.8173 20.84 78.976 20.896C79.144 20.9427 79.3073 20.9893 79.466 21.036C79.6247 21.0733 79.7787 21.106 79.928 21.134C80.0773 21.162 80.208 21.19 80.32 21.218C80.7213 21.302 81.1087 21.4 81.482 21.512C81.8553 21.624 82.1867 21.778 82.476 21.974C82.7653 22.17 82.9987 22.4313 83.176 22.758C83.3533 23.0847 83.4467 23.5093 83.456 24.032C83.456 24.6013 83.3487 25.0867 83.134 25.488C82.9193 25.8893 82.63 26.2113 82.266 26.454C81.9207 26.6967 81.5193 26.874 81.062 26.986C80.6047 27.0887 80.1007 27.1307 79.55 27.112C79.018 27.1027 78.5187 27.0327 78.052 26.902C77.5853 26.762 77.17 26.5613 76.806 26.3C76.4513 26.0387 76.1667 25.712 75.952 25.32C75.7373 24.928 75.616 24.466 75.588 23.934H77.66C77.716 24.1767 77.8093 24.3773 77.94 24.536C78.0707 24.6947 78.2247 24.8253 78.402 24.928C78.5793 25.0307 78.7753 25.1053 78.99 25.152C79.214 25.1987 79.438 25.2267 79.662 25.236C79.8953 25.2453 80.1193 25.236 80.334 25.208C80.5487 25.18 80.7353 25.1287 80.894 25.054C81.062 24.97 81.1927 24.858 81.286 24.718C81.3793 24.578 81.426 24.4007 81.426 24.186C81.426 23.8873 81.3327 23.668 81.146 23.528C80.9687 23.388 80.7727 23.29 80.558 23.234C80.4087 23.1967 80.2733 23.164 80.152 23.136C80.04 23.0987 79.928 23.0707 79.816 23.052C79.704 23.024 79.5873 22.996 79.466 22.968C79.3447 22.94 79.2047 22.9073 79.046 22.87C78.6913 22.7767 78.3227 22.674 77.94 22.562C77.5667 22.4407 77.2307 22.2727 76.932 22.058C76.568 21.806 76.2927 21.484 76.106 21.092C75.9287 20.7 75.8493 20.266 75.868 19.79C75.896 19.23 76.0267 18.768 76.26 18.404C76.4933 18.0307 76.792 17.7367 77.156 17.522C77.52 17.3073 77.9213 17.158 78.36 17.074C78.7987 16.99 79.2373 16.9527 79.676 16.962C80.1613 16.9713 80.6093 17.0413 81.02 17.172C81.44 17.2933 81.804 17.4753 82.112 17.718C82.4293 17.9607 82.686 18.2687 82.882 18.642C83.078 19.0153 83.1993 19.4493 83.246 19.944H81.23ZM88.2508 27H86.2208V17.088H88.2508V27ZM96.6497 19.944C96.5937 19.524 96.407 19.2253 96.0897 19.048C95.7724 18.8613 95.3757 18.7587 94.8997 18.74C94.7317 18.74 94.5544 18.754 94.3677 18.782C94.1904 18.81 94.0224 18.866 93.8637 18.95C93.705 19.034 93.5744 19.146 93.4717 19.286C93.369 19.426 93.3177 19.5987 93.3177 19.804C93.3084 20.0187 93.3597 20.2007 93.4717 20.35C93.593 20.4993 93.7517 20.6207 93.9477 20.714C94.0877 20.7793 94.237 20.84 94.3957 20.896C94.5637 20.9427 94.727 20.9893 94.8857 21.036C95.0444 21.0733 95.1984 21.106 95.3477 21.134C95.497 21.162 95.6277 21.19 95.7397 21.218C96.141 21.302 96.5284 21.4 96.9017 21.512C97.275 21.624 97.6064 21.778 97.8957 21.974C98.185 22.17 98.4184 22.4313 98.5957 22.758C98.773 23.0847 98.8664 23.5093 98.8757 24.032C98.8757 24.6013 98.7684 25.0867 98.5537 25.488C98.339 25.8893 98.0497 26.2113 97.6857 26.454C97.3404 26.6967 96.939 26.874 96.4817 26.986C96.0244 27.0887 95.5204 27.1307 94.9697 27.112C94.4377 27.1027 93.9384 27.0327 93.4717 26.902C93.005 26.762 92.5897 26.5613 92.2257 26.3C91.871 26.0387 91.5864 25.712 91.3717 25.32C91.157 24.928 91.0357 24.466 91.0077 23.934H93.0797C93.1357 24.1767 93.229 24.3773 93.3597 24.536C93.4904 24.6947 93.6444 24.8253 93.8217 24.928C93.999 25.0307 94.195 25.1053 94.4097 25.152C94.6337 25.1987 94.8577 25.2267 95.0817 25.236C95.315 25.2453 95.539 25.236 95.7537 25.208C95.9684 25.18 96.155 25.1287 96.3137 25.054C96.4817 24.97 96.6124 24.858 96.7057 24.718C96.799 24.578 96.8457 24.4007 96.8457 24.186C96.8457 23.8873 96.7524 23.668 96.5657 23.528C96.3884 23.388 96.1924 23.29 95.9777 23.234C95.8284 23.1967 95.693 23.164 95.5717 23.136C95.4597 23.0987 95.3477 23.0707 95.2357 23.052C95.1237 23.024 95.007 22.996 94.8857 22.968C94.7644 22.94 94.6244 22.9073 94.4657 22.87C94.111 22.7767 93.7424 22.674 93.3597 22.562C92.9864 22.4407 92.6504 22.2727 92.3517 22.058C91.9877 21.806 91.7124 21.484 91.5257 21.092C91.3484 20.7 91.269 20.266 91.2877 19.79C91.3157 19.23 91.4464 18.768 91.6797 18.404C91.913 18.0307 92.2117 17.7367 92.5757 17.522C92.9397 17.3073 93.341 17.158 93.7797 17.074C94.2184 16.99 94.657 16.9527 95.0957 16.962C95.581 16.9713 96.029 17.0413 96.4397 17.172C96.8597 17.2933 97.2237 17.4753 97.5317 17.718C97.849 17.9607 98.1057 18.2687 98.3017 18.642C98.4977 19.0153 98.619 19.4493 98.6657 19.944H96.6497ZM100.538 18.894V17.088H108.784V18.894H105.676V27H103.646V18.894H100.538ZM112.211 25.11L111.497 27H109.285L113.121 17.088H115.417L119.197 27H116.971L116.285 25.11H112.211ZM112.799 23.318H115.683L114.255 19.23L112.799 23.318ZM123.313 17.088L128.017 23.724V17.088H130.005V27H128.059L123.355 20.392V27H121.367V17.088H123.313ZM132.253 18.894V17.088H140.499V18.894H137.391V27H135.361V18.894H132.253Z" fill="#1E1E1E"/>
<path d="M81.23 19.944L80.7344 20.0101L80.7922 20.444H81.23V19.944ZM80.67 19.048L80.4164 19.4791L80.4261 19.4845L80.67 19.048ZM79.48 18.74L79.4996 18.2404L79.4898 18.24H79.48V18.74ZM78.948 18.782L78.8738 18.2875L78.87 18.2881L78.948 18.782ZM78.444 18.95L78.2101 18.5081L78.2101 18.5081L78.444 18.95ZM78.052 19.286L78.4552 19.5817L78.4552 19.5817L78.052 19.286ZM77.898 19.804L78.3975 19.8257L78.398 19.8149V19.804H77.898ZM78.052 20.35L77.652 20.65L77.6578 20.6578L77.6639 20.6653L78.052 20.35ZM78.528 20.714L78.313 21.1654L78.3166 21.1671L78.528 20.714ZM78.976 20.896L78.8096 21.3675L78.8257 21.3732L78.8422 21.3778L78.976 20.896ZM79.466 21.036L79.3249 21.5157L79.3381 21.5196L79.3515 21.5227L79.466 21.036ZM79.928 21.134L80.0201 20.6426L80.0201 20.6426L79.928 21.134ZM80.32 21.218L80.1987 21.7031L80.2081 21.7054L80.2176 21.7074L80.32 21.218ZM81.482 21.512L81.6257 21.0331L81.6257 21.0331L81.482 21.512ZM82.476 21.974L82.7564 21.56L82.7564 21.56L82.476 21.974ZM83.176 22.758L83.6154 22.5195L83.6154 22.5195L83.176 22.758ZM83.456 24.032L83.9561 24.032L83.9559 24.0231L83.456 24.032ZM83.134 25.488L83.5749 25.7238L83.5749 25.7238L83.134 25.488ZM82.266 26.454L81.9886 26.0378L81.9785 26.0449L82.266 26.454ZM81.062 26.986L81.1715 27.4739L81.1809 27.4716L81.062 26.986ZM79.55 27.112L79.5669 26.6122L79.5588 26.6121L79.55 27.112ZM78.052 26.902L77.9083 27.381L77.9172 27.3835L78.052 26.902ZM76.806 26.3L76.5094 26.7026L76.5144 26.7062L76.806 26.3ZM75.952 25.32L76.3905 25.0798L76.3905 25.0798L75.952 25.32ZM75.588 23.934V23.434H75.061L75.0887 23.9603L75.588 23.934ZM77.66 23.934L78.1472 23.8216L78.0578 23.434H77.66V23.934ZM77.94 24.536L78.326 24.2181L78.326 24.2181L77.94 24.536ZM78.402 24.928L78.1515 25.3607L78.1515 25.3607L78.402 24.928ZM78.99 25.152L78.8838 25.6406L78.888 25.6415L78.99 25.152ZM79.662 25.236L79.6412 25.7356L79.642 25.7356L79.662 25.236ZM80.894 25.054L81.107 25.5065L81.1176 25.5012L80.894 25.054ZM81.286 24.718L81.702 24.9954L81.702 24.9953L81.286 24.718ZM81.146 23.528L80.8361 23.9206L80.846 23.928L81.146 23.528ZM80.558 23.234L80.6842 22.7502L80.6793 22.7489L80.558 23.234ZM80.152 23.136L79.9939 23.6103L80.0164 23.6179L80.0396 23.6232L80.152 23.136ZM79.816 23.052L79.6947 23.5371L79.7141 23.5419L79.7338 23.5452L79.816 23.052ZM79.466 22.968L79.3536 23.4552L79.3536 23.4552L79.466 22.968ZM79.046 22.87L78.9187 23.3537L78.9315 23.3567L79.046 22.87ZM77.94 22.562L77.7855 23.0375L77.7925 23.0398L77.7996 23.0419L77.94 22.562ZM76.932 22.058L77.2239 21.6519L77.2166 21.6469L76.932 22.058ZM76.106 21.092L75.6504 21.2981L75.6546 21.307L76.106 21.092ZM75.868 19.79L75.3686 19.765L75.3684 19.7704L75.868 19.79ZM76.26 18.404L76.681 18.6739L76.684 18.669L76.26 18.404ZM77.156 17.522L77.41 17.9527L77.41 17.9527L77.156 17.522ZM78.36 17.074L78.454 17.5651L78.454 17.5651L78.36 17.074ZM79.676 16.962L79.6654 17.4619L79.6664 17.4619L79.676 16.962ZM81.02 17.172L80.8683 17.6486L80.8812 17.6524L81.02 17.172ZM82.112 17.718L81.8025 18.1108L81.8083 18.1152L82.112 17.718ZM82.882 18.642L82.4393 18.8744L82.4393 18.8744L82.882 18.642ZM83.246 19.944V20.444H83.7954L83.7438 19.897L83.246 19.944ZM81.7256 19.8779C81.6527 19.331 81.3928 18.8791 80.9139 18.6115L80.4261 19.4845C80.5819 19.5715 80.6953 19.717 80.7344 20.0101L81.7256 19.8779ZM80.9235 18.617C80.5172 18.378 80.0345 18.2614 79.4996 18.2404L79.4604 19.2396C79.8775 19.256 80.1881 19.3446 80.4165 19.479L80.9235 18.617ZM79.48 18.24C79.2844 18.24 79.0821 18.2563 78.8738 18.2875L79.0222 19.2765C79.1872 19.2517 79.3396 19.24 79.48 19.24V18.24ZM78.87 18.2881C78.6382 18.3247 78.4175 18.3983 78.2101 18.5081L78.6779 19.3919C78.7878 19.3337 78.9031 19.2953 79.026 19.2759L78.87 18.2881ZM78.2101 18.5081C77.987 18.6262 77.7977 18.7873 77.6488 18.9903L78.4552 19.5817C78.5117 19.5047 78.5837 19.4418 78.6779 19.3919L78.2101 18.5081ZM77.6488 18.9903C77.4724 19.2309 77.398 19.5123 77.398 19.804H78.398C78.398 19.685 78.4263 19.6211 78.4552 19.5817L77.6488 18.9903ZM77.3985 19.7823C77.3849 20.0941 77.4603 20.3944 77.652 20.65L78.452 20.05C78.4197 20.0069 78.3924 19.9433 78.3975 19.8257L77.3985 19.7823ZM77.6639 20.6653C77.8378 20.8793 78.0586 21.0443 78.313 21.1654L78.743 20.2626C78.6054 20.1971 78.5088 20.1194 78.4401 20.0347L77.6639 20.6653ZM78.3166 21.1671C78.4725 21.2399 78.637 21.3066 78.8096 21.3675L79.1424 20.4245C78.9977 20.3734 78.8635 20.3188 78.7394 20.2609L78.3166 21.1671ZM78.8422 21.3778C79.0079 21.4238 79.1688 21.4698 79.3249 21.5157L79.6071 20.5563C79.4459 20.5089 79.2801 20.4615 79.1098 20.4142L78.8422 21.3778ZM79.3515 21.5227C79.517 21.5617 79.6785 21.5959 79.8359 21.6254L80.0201 20.6426C79.8788 20.6161 79.7323 20.585 79.5805 20.5493L79.3515 21.5227ZM79.8359 21.6254C79.9783 21.6521 80.0988 21.6781 80.1987 21.7031L80.4413 20.7329C80.3172 20.7019 80.1764 20.6719 80.0201 20.6426L79.8359 21.6254ZM80.2176 21.7074C80.6057 21.7886 80.9793 21.8832 81.3383 21.9909L81.6257 21.0331C81.2381 20.9168 80.8369 20.8154 80.4224 20.7286L80.2176 21.7074ZM81.3383 21.9909C81.6686 22.09 81.9528 22.2235 82.1956 22.388L82.7564 21.56C82.4205 21.3325 82.0421 21.158 81.6257 21.0331L81.3383 21.9909ZM82.1956 22.388C82.4144 22.5362 82.5949 22.7356 82.7366 22.9965L83.6154 22.5195C83.4024 22.127 83.1162 21.8038 82.7564 21.56L82.1956 22.388ZM82.7366 22.9965C82.8632 23.2299 82.9476 23.5679 82.9561 24.0409L83.9559 24.0231C83.9457 23.4508 83.8434 22.9395 83.6154 22.5195L82.7366 22.9965ZM82.956 24.032C82.956 24.5393 82.8604 24.9394 82.6931 25.2522L83.5749 25.7238C83.8369 25.234 83.956 24.6633 83.956 24.032H82.956ZM82.6931 25.2522C82.5157 25.5839 82.2813 25.8429 81.9887 26.038L82.5434 26.87C82.9787 26.5798 83.323 26.1947 83.5749 25.7238L82.6931 25.2522ZM81.9785 26.0449C81.6897 26.2479 81.3469 26.4015 80.9431 26.5004L81.1809 27.4716C81.6918 27.3465 82.1517 27.1455 82.5535 26.8631L81.9785 26.0449ZM80.9525 26.4981C80.5431 26.59 80.0823 26.6298 79.5669 26.6123L79.5331 27.6117C80.119 27.6316 80.6662 27.5873 81.1715 27.4739L80.9525 26.4981ZM79.5588 26.6121C79.0653 26.6034 78.6086 26.5386 78.1868 26.4205L77.9172 27.3835C78.4287 27.5267 78.9707 27.6019 79.5412 27.6119L79.5588 26.6121ZM78.1957 26.4231C77.7774 26.2976 77.4129 26.1202 77.0976 25.8938L76.5144 26.7062C76.9271 27.0025 77.3933 27.2264 77.9083 27.3809L78.1957 26.4231ZM77.1026 25.8975C76.8074 25.6799 76.5708 25.409 76.3905 25.0798L75.5135 25.5602C75.7625 26.015 76.0953 26.3974 76.5094 26.7025L77.1026 25.8975ZM76.3905 25.0798C76.2182 24.7651 76.1121 24.379 76.0873 23.9077L75.0887 23.9603C75.1199 24.553 75.2565 25.0909 75.5135 25.5602L76.3905 25.0798ZM75.588 24.434H77.66V23.434H75.588V24.434ZM77.1728 24.0464C77.2426 24.3487 77.3649 24.6241 77.554 24.8539L78.326 24.2181C78.2538 24.1305 78.1894 24.0046 78.1472 23.8216L77.1728 24.0464ZM77.554 24.8539C77.7225 25.0584 77.9223 25.2281 78.1515 25.3607L78.6525 24.4953C78.527 24.4226 78.4188 24.3309 78.326 24.2181L77.554 24.8539ZM78.1515 25.3607C78.3769 25.4912 78.6221 25.5837 78.8838 25.6406L79.0962 24.6634C78.9286 24.627 78.7818 24.5701 78.6525 24.4953L78.1515 25.3607ZM78.888 25.6415C79.1382 25.6936 79.3893 25.7251 79.6412 25.7356L79.6828 24.7364C79.4867 24.7283 79.2898 24.7037 79.092 24.6625L78.888 25.6415ZM79.642 25.7356C79.9014 25.746 80.1538 25.7357 80.3987 25.7038L80.2693 24.7122C80.0848 24.7363 79.8892 24.7447 79.682 24.7364L79.642 25.7356ZM80.3987 25.7038C80.6531 25.6706 80.8919 25.6076 81.1069 25.5064L80.6811 24.6016C80.5788 24.6497 80.4442 24.6894 80.2693 24.7122L80.3987 25.7038ZM81.1176 25.5012C81.3542 25.3829 81.555 25.2159 81.702 24.9954L80.87 24.4406C80.8303 24.5001 80.7698 24.5571 80.6704 24.6068L81.1176 25.5012ZM81.702 24.9953C81.8634 24.7533 81.926 24.4723 81.926 24.186H80.926C80.926 24.329 80.8952 24.4027 80.87 24.4407L81.702 24.9953ZM81.926 24.186C81.926 23.7784 81.7929 23.3882 81.446 23.128L80.846 23.928C80.8725 23.9478 80.926 23.9962 80.926 24.186H81.926ZM81.4558 23.1356C81.2253 22.9536 80.967 22.824 80.6842 22.7502L80.4318 23.7178C80.5783 23.756 80.7121 23.8224 80.8362 23.9204L81.4558 23.1356ZM80.6793 22.7489C80.5276 22.711 80.3893 22.6776 80.2644 22.6488L80.0396 23.6232C80.1574 23.6504 80.2897 23.6823 80.4367 23.7191L80.6793 22.7489ZM80.3101 22.6617C80.1743 22.6164 80.037 22.5819 79.8982 22.5588L79.7338 23.5452C79.819 23.5594 79.9057 23.5809 79.9939 23.6103L80.3101 22.6617ZM79.9373 22.5669C79.8221 22.5381 79.7025 22.5094 79.5784 22.4808L79.3536 23.4552C79.4722 23.4826 79.5859 23.5099 79.6947 23.5371L79.9373 22.5669ZM79.5784 22.4808C79.458 22.453 79.3187 22.4205 79.1605 22.3833L78.9315 23.3567C79.0906 23.3942 79.2314 23.427 79.3536 23.4552L79.5784 22.4808ZM79.1732 22.3865C78.8234 22.2944 78.4591 22.193 78.0804 22.0821L77.7996 23.0419C78.1862 23.155 78.5593 23.2589 78.9188 23.3535L79.1732 22.3865ZM78.0945 22.0865C77.767 21.98 77.4779 21.8346 77.2238 21.652L76.6402 22.464C76.9835 22.7108 77.3664 22.9013 77.7855 23.0375L78.0945 22.0865ZM77.2166 21.6469C76.9229 21.4436 76.7058 21.1886 76.5574 20.877L75.6546 21.307C75.8795 21.7794 76.2131 22.1684 76.6474 22.4691L77.2166 21.6469ZM76.5616 20.8859C76.4195 20.572 76.3517 20.2164 76.3676 19.8096L75.3684 19.7704C75.347 20.3156 75.4378 20.828 75.6504 21.2981L76.5616 20.8859ZM76.3674 19.815C76.3923 19.3168 76.5066 18.9458 76.6809 18.6738L75.8391 18.1342C75.5467 18.5902 75.3997 19.1432 75.3686 19.765L76.3674 19.815ZM76.684 18.669C76.8766 18.3608 77.1181 18.1248 77.41 17.9527L76.902 17.0913C76.4659 17.3485 76.11 17.7005 75.836 18.139L76.684 18.669ZM77.41 17.9527C77.7218 17.7688 78.0685 17.6389 78.454 17.5651L78.266 16.5829C77.7741 16.6771 77.3182 16.8459 76.902 17.0913L77.41 17.9527ZM78.454 17.5651C78.8588 17.4876 79.2624 17.4533 79.6654 17.4619L79.6866 16.4621C79.2122 16.452 78.7385 16.4924 78.266 16.5829L78.454 17.5651ZM79.6664 17.4619C80.1095 17.4704 80.5091 17.5341 80.8684 17.6485L81.1716 16.6955C80.7096 16.5485 80.2132 16.4722 79.6856 16.4621L79.6664 17.4619ZM80.8812 17.6524C81.2463 17.7578 81.5508 17.9124 81.8026 18.1107L82.4214 17.3253C82.0572 17.0383 81.6337 16.8288 81.1588 16.6916L80.8812 17.6524ZM81.8083 18.1152C82.0647 18.3112 82.2752 18.5618 82.4393 18.8744L83.3247 18.4096C83.0968 17.9755 82.794 17.6101 82.4157 17.3208L81.8083 18.1152ZM82.4393 18.8744C82.6001 19.1808 82.7066 19.5497 82.7482 19.991L83.7438 19.897C83.6921 19.3489 83.5559 18.8499 83.3247 18.4096L82.4393 18.8744ZM83.246 19.444H81.23V20.444H83.246V19.444ZM88.2508 27V27.5H88.7508V27H88.2508ZM86.2208 27H85.7208V27.5H86.2208V27ZM86.2208 17.088V16.588H85.7208V17.088H86.2208ZM88.2508 17.088H88.7508V16.588H88.2508V17.088ZM88.2508 26.5H86.2208V27.5H88.2508V26.5ZM86.7208 27V17.088H85.7208V27H86.7208ZM86.2208 17.588H88.2508V16.588H86.2208V17.588ZM87.7508 17.088V27H88.7508V17.088H87.7508ZM96.6497 19.944L96.1541 20.0101L96.2119 20.444H96.6497V19.944ZM96.0897 19.048L95.8361 19.4791L95.8458 19.4845L96.0897 19.048ZM94.8997 18.74L94.9193 18.2404L94.9095 18.24H94.8997V18.74ZM94.3677 18.782L94.2935 18.2875L94.2897 18.2881L94.3677 18.782ZM93.8637 18.95L93.6297 18.5081L93.6297 18.5081L93.8637 18.95ZM93.4717 19.286L93.8749 19.5817L93.8749 19.5817L93.4717 19.286ZM93.3177 19.804L93.8172 19.8257L93.8177 19.8149V19.804H93.3177ZM93.4717 20.35L93.0717 20.65L93.0775 20.6578L93.0836 20.6653L93.4717 20.35ZM93.9477 20.714L93.7327 21.1654L93.7362 21.1671L93.9477 20.714ZM94.3957 20.896L94.2293 21.3675L94.2454 21.3732L94.2619 21.3778L94.3957 20.896ZM94.8857 21.036L94.7446 21.5157L94.7578 21.5196L94.7712 21.5227L94.8857 21.036ZM95.3477 21.134L95.4398 20.6426L95.4398 20.6426L95.3477 21.134ZM95.7397 21.218L95.6184 21.7031L95.6278 21.7054L95.6373 21.7074L95.7397 21.218ZM96.9017 21.512L97.0454 21.0331L97.0454 21.0331L96.9017 21.512ZM97.8957 21.974L98.1761 21.56L98.1761 21.56L97.8957 21.974ZM98.5957 22.758L99.0351 22.5195L99.0351 22.5195L98.5957 22.758ZM98.8757 24.032L99.3758 24.032L99.3756 24.0231L98.8757 24.032ZM98.5537 25.488L98.9946 25.7238L98.9946 25.7238L98.5537 25.488ZM97.6857 26.454L97.4083 26.0378L97.3982 26.0449L97.6857 26.454ZM96.4817 26.986L96.5912 27.4739L96.6006 27.4716L96.4817 26.986ZM94.9697 27.112L94.9866 26.6122L94.9785 26.6121L94.9697 27.112ZM93.4717 26.902L93.328 27.381L93.3369 27.3835L93.4717 26.902ZM92.2257 26.3L91.9291 26.7026L91.9341 26.7062L92.2257 26.3ZM91.3717 25.32L91.8102 25.0798L91.8102 25.0798L91.3717 25.32ZM91.0077 23.934V23.434H90.4807L90.5084 23.9603L91.0077 23.934ZM93.0797 23.934L93.5669 23.8216L93.4774 23.434H93.0797V23.934ZM93.3597 24.536L93.7457 24.2181L93.7457 24.2181L93.3597 24.536ZM93.8217 24.928L93.5712 25.3607L93.5712 25.3607L93.8217 24.928ZM94.4097 25.152L94.3035 25.6406L94.3077 25.6415L94.4097 25.152ZM95.0817 25.236L95.0609 25.7356L95.0617 25.7356L95.0817 25.236ZM96.3137 25.054L96.5266 25.5065L96.5373 25.5012L96.3137 25.054ZM96.7057 24.718L97.1217 24.9954L97.1217 24.9953L96.7057 24.718ZM96.5657 23.528L96.2558 23.9206L96.2657 23.928L96.5657 23.528ZM95.9777 23.234L96.1039 22.7502L96.099 22.7489L95.9777 23.234ZM95.5717 23.136L95.4136 23.6103L95.4361 23.6179L95.4593 23.6232L95.5717 23.136ZM95.2357 23.052L95.1144 23.5371L95.1338 23.5419L95.1535 23.5452L95.2357 23.052ZM94.8857 22.968L94.7733 23.4552L94.7733 23.4552L94.8857 22.968ZM94.4657 22.87L94.3384 23.3537L94.3512 23.3567L94.4657 22.87ZM93.3597 22.562L93.2051 23.0375L93.2122 23.0398L93.2192 23.0419L93.3597 22.562ZM92.3517 22.058L92.6436 21.6519L92.6363 21.6469L92.3517 22.058ZM91.5257 21.092L91.07 21.2981L91.0743 21.307L91.5257 21.092ZM91.2877 19.79L90.7883 19.765L90.7881 19.7704L91.2877 19.79ZM91.6797 18.404L92.1007 18.6739L92.1037 18.669L91.6797 18.404ZM92.5757 17.522L92.8297 17.9527L92.8297 17.9527L92.5757 17.522ZM93.7797 17.074L93.8737 17.5651L93.8737 17.5651L93.7797 17.074ZM95.0957 16.962L95.0851 17.4619L95.0861 17.4619L95.0957 16.962ZM96.4397 17.172L96.288 17.6486L96.3009 17.6524L96.4397 17.172ZM97.5317 17.718L97.2222 18.1108L97.228 18.1152L97.5317 17.718ZM98.3017 18.642L97.859 18.8744L97.859 18.8744L98.3017 18.642ZM98.6657 19.944V20.444H99.2151L99.1635 19.897L98.6657 19.944ZM97.1453 19.8779C97.0724 19.331 96.8125 18.8791 96.3336 18.6115L95.8458 19.4845C96.0016 19.5715 96.115 19.717 96.1541 20.0101L97.1453 19.8779ZM96.3432 18.617C95.9369 18.378 95.4542 18.2614 94.9193 18.2404L94.8801 19.2396C95.2972 19.256 95.6078 19.3446 95.8362 19.479L96.3432 18.617ZM94.8997 18.24C94.704 18.24 94.5018 18.2563 94.2935 18.2875L94.4419 19.2765C94.6069 19.2517 94.7593 19.24 94.8997 19.24V18.24ZM94.2897 18.2881C94.0579 18.3247 93.8372 18.3983 93.6297 18.5081L94.0976 19.3919C94.2075 19.3337 94.3228 19.2953 94.4457 19.2759L94.2897 18.2881ZM93.6297 18.5081C93.4067 18.6262 93.2173 18.7873 93.0685 18.9903L93.8749 19.5817C93.9314 19.5047 94.0034 19.4418 94.0976 19.3919L93.6297 18.5081ZM93.0685 18.9903C92.892 19.2309 92.8177 19.5123 92.8177 19.804H93.8177C93.8177 19.685 93.846 19.6211 93.8749 19.5817L93.0685 18.9903ZM92.8182 19.7823C92.8046 20.0941 92.88 20.3944 93.0717 20.65L93.8717 20.05C93.8394 20.0069 93.8121 19.9433 93.8172 19.8257L92.8182 19.7823ZM93.0836 20.6653C93.2575 20.8793 93.4783 21.0443 93.7327 21.1654L94.1627 20.2626C94.0251 20.1971 93.9285 20.1194 93.8597 20.0347L93.0836 20.6653ZM93.7362 21.1671C93.8922 21.2399 94.0566 21.3066 94.2293 21.3675L94.5621 20.4245C94.4174 20.3734 94.2832 20.3188 94.1591 20.2609L93.7362 21.1671ZM94.2619 21.3778C94.4276 21.4238 94.5885 21.4698 94.7446 21.5157L95.0268 20.5563C94.8656 20.5089 94.6998 20.4615 94.5295 20.4142L94.2619 21.3778ZM94.7712 21.5227C94.9367 21.5617 95.0982 21.5959 95.2555 21.6254L95.4398 20.6426C95.2985 20.6161 95.152 20.585 95.0002 20.5493L94.7712 21.5227ZM95.2555 21.6254C95.398 21.6521 95.5185 21.6781 95.6184 21.7031L95.861 20.7329C95.7369 20.7019 95.5961 20.6719 95.4398 20.6426L95.2555 21.6254ZM95.6373 21.7074C96.0254 21.7886 96.399 21.8832 96.758 21.9909L97.0454 21.0331C96.6578 20.9168 96.2566 20.8154 95.8421 20.7286L95.6373 21.7074ZM96.758 21.9909C97.0883 22.09 97.3725 22.2235 97.6153 22.388L98.1761 21.56C97.8402 21.3325 97.4618 21.158 97.0454 21.0331L96.758 21.9909ZM97.6153 22.388C97.8341 22.5362 98.0146 22.7356 98.1563 22.9965L99.0351 22.5195C98.8221 22.127 98.5359 21.8038 98.1761 21.56L97.6153 22.388ZM98.1563 22.9965C98.2829 23.2299 98.3673 23.5679 98.3758 24.0409L99.3756 24.0231C99.3654 23.4508 99.2631 22.9395 99.0351 22.5195L98.1563 22.9965ZM98.3757 24.032C98.3757 24.5393 98.2801 24.9394 98.1128 25.2522L98.9946 25.7238C99.2566 25.234 99.3757 24.6633 99.3757 24.032H98.3757ZM98.1128 25.2522C97.9353 25.5839 97.701 25.8429 97.4083 26.038L97.963 26.87C98.3984 26.5798 98.7427 26.1947 98.9946 25.7238L98.1128 25.2522ZM97.3982 26.0449C97.1094 26.2479 96.7666 26.4015 96.3628 26.5004L96.6006 27.4716C97.1114 27.3465 97.5713 27.1455 97.9732 26.8631L97.3982 26.0449ZM96.3722 26.4981C95.9628 26.59 95.502 26.6298 94.9866 26.6123L94.9527 27.6117C95.5387 27.6316 96.0859 27.5873 96.5912 27.4739L96.3722 26.4981ZM94.9785 26.6121C94.485 26.6034 94.0283 26.5386 93.6065 26.4205L93.3369 27.3835C93.8484 27.5267 94.3904 27.6019 94.9609 27.6119L94.9785 26.6121ZM93.6154 26.4231C93.1971 26.2976 92.8326 26.1202 92.5173 25.8938L91.9341 26.7062C92.3468 27.0025 92.813 27.2264 93.328 27.3809L93.6154 26.4231ZM92.5223 25.8975C92.2271 25.6799 91.9905 25.409 91.8102 25.0798L90.9331 25.5602C91.1822 26.015 91.515 26.3974 91.9291 26.7025L92.5223 25.8975ZM91.8102 25.0798C91.6379 24.7651 91.5318 24.379 91.507 23.9077L90.5084 23.9603C90.5396 24.553 90.6762 25.0909 90.9331 25.5602L91.8102 25.0798ZM91.0077 24.434H93.0797V23.434H91.0077V24.434ZM92.5925 24.0464C92.6623 24.3487 92.7845 24.6241 92.9737 24.8539L93.7457 24.2181C93.6735 24.1305 93.6091 24.0046 93.5669 23.8216L92.5925 24.0464ZM92.9737 24.8539C93.1422 25.0584 93.342 25.2281 93.5712 25.3607L94.0722 24.4953C93.9467 24.4226 93.8385 24.3309 93.7457 24.2181L92.9737 24.8539ZM93.5712 25.3607C93.7965 25.4912 94.0418 25.5837 94.3035 25.6406L94.5159 24.6634C94.3483 24.627 94.2015 24.5701 94.0722 24.4953L93.5712 25.3607ZM94.3077 25.6415C94.5579 25.6936 94.809 25.7251 95.0609 25.7356L95.1025 24.7364C94.9063 24.7283 94.7095 24.7037 94.5117 24.6625L94.3077 25.6415ZM95.0617 25.7356C95.3211 25.746 95.5735 25.7357 95.8184 25.7038L95.689 24.7122C95.5045 24.7363 95.3089 24.7447 95.1017 24.7364L95.0617 25.7356ZM95.8184 25.7038C96.0728 25.6706 96.3116 25.6076 96.5266 25.5064L96.1008 24.6016C95.9985 24.6497 95.8639 24.6894 95.689 24.7122L95.8184 25.7038ZM96.5373 25.5012C96.7739 25.3829 96.9747 25.2159 97.1217 24.9954L96.2897 24.4406C96.25 24.5001 96.1895 24.5571 96.0901 24.6068L96.5373 25.5012ZM97.1217 24.9953C97.2831 24.7533 97.3457 24.4723 97.3457 24.186H96.3457C96.3457 24.329 96.3149 24.4027 96.2897 24.4407L97.1217 24.9953ZM97.3457 24.186C97.3457 23.7784 97.2126 23.3882 96.8657 23.128L96.2657 23.928C96.2921 23.9478 96.3457 23.9962 96.3457 24.186H97.3457ZM96.8755 23.1356C96.645 22.9536 96.3867 22.824 96.1039 22.7502L95.8515 23.7178C95.998 23.756 96.1317 23.8224 96.2559 23.9204L96.8755 23.1356ZM96.099 22.7489C95.9473 22.711 95.809 22.6776 95.6841 22.6488L95.4593 23.6232C95.577 23.6504 95.7094 23.6823 95.8564 23.7191L96.099 22.7489ZM95.7298 22.6617C95.594 22.6164 95.4566 22.5819 95.3179 22.5588L95.1535 23.5452C95.2387 23.5594 95.3254 23.5809 95.4136 23.6103L95.7298 22.6617ZM95.357 22.5669C95.2418 22.5381 95.1222 22.5094 94.9981 22.4808L94.7733 23.4552C94.8919 23.4826 95.0056 23.5099 95.1144 23.5371L95.357 22.5669ZM94.9981 22.4808C94.8777 22.453 94.7384 22.4205 94.5802 22.3833L94.3512 23.3567C94.5103 23.3942 94.6511 23.427 94.7733 23.4552L94.9981 22.4808ZM94.5929 22.3865C94.243 22.2944 93.8788 22.193 93.5001 22.0821L93.2192 23.0419C93.6059 23.155 93.979 23.2589 94.3384 23.3535L94.5929 22.3865ZM93.5142 22.0865C93.1867 21.98 92.8975 21.8346 92.6435 21.652L92.0599 22.464C92.4032 22.7108 92.786 22.9013 93.2051 23.0375L93.5142 22.0865ZM92.6363 21.6469C92.3426 21.4436 92.1255 21.1886 91.9771 20.877L91.0743 21.307C91.2992 21.7794 91.6328 22.1684 92.0671 22.4691L92.6363 21.6469ZM91.9812 20.8859C91.8392 20.572 91.7713 20.2164 91.7873 19.8096L90.7881 19.7704C90.7667 20.3156 90.8575 20.828 91.0701 21.2981L91.9812 20.8859ZM91.7871 19.815C91.812 19.3168 91.9263 18.9458 92.1006 18.6738L91.2587 18.1342C90.9664 18.5902 90.8194 19.1432 90.7883 19.765L91.7871 19.815ZM92.1037 18.669C92.2963 18.3608 92.5378 18.1248 92.8297 17.9527L92.3217 17.0913C91.8856 17.3485 91.5297 17.7005 91.2557 18.139L92.1037 18.669ZM92.8297 17.9527C93.1415 17.7688 93.4882 17.6389 93.8737 17.5651L93.6857 16.5829C93.1938 16.6771 92.7379 16.8459 92.3217 17.0913L92.8297 17.9527ZM93.8737 17.5651C94.2785 17.4876 94.6821 17.4533 95.0851 17.4619L95.1063 16.4621C94.6319 16.452 94.1582 16.4924 93.6857 16.5829L93.8737 17.5651ZM95.0861 17.4619C95.5292 17.4704 95.9288 17.5341 96.2881 17.6485L96.5913 16.6955C96.1293 16.5485 95.6329 16.4722 95.1053 16.4621L95.0861 17.4619ZM96.3009 17.6524C96.666 17.7578 96.9705 17.9124 97.2223 18.1107L97.8411 17.3253C97.4769 17.0383 97.0533 16.8288 96.5785 16.6916L96.3009 17.6524ZM97.228 18.1152C97.4844 18.3112 97.6949 18.5618 97.859 18.8744L98.7444 18.4096C98.5165 17.9755 98.2137 17.6101 97.8354 17.3208L97.228 18.1152ZM97.859 18.8744C98.0198 19.1808 98.1263 19.5497 98.1679 19.991L99.1635 19.897C99.1118 19.3489 98.9755 18.8499 98.7444 18.4096L97.859 18.8744ZM98.6657 19.444H96.6497V20.444H98.6657V19.444ZM100.538 18.894H100.038V19.394H100.538V18.894ZM100.538 17.088V16.588H100.038V17.088H100.538ZM108.784 17.088H109.284V16.588H108.784V17.088ZM108.784 18.894V19.394H109.284V18.894H108.784ZM105.676 18.894V18.394H105.176V18.894H105.676ZM105.676 27V27.5H106.176V27H105.676ZM103.646 27H103.146V27.5H103.646V27ZM103.646 18.894H104.146V18.394H103.646V18.894ZM101.038 18.894V17.088H100.038V18.894H101.038ZM100.538 17.588H108.784V16.588H100.538V17.588ZM108.284 17.088V18.894H109.284V17.088H108.284ZM108.784 18.394H105.676V19.394H108.784V18.394ZM105.176 18.894V27H106.176V18.894H105.176ZM105.676 26.5H103.646V27.5H105.676V26.5ZM104.146 27V18.894H103.146V27H104.146ZM103.646 18.394H100.538V19.394H103.646V18.394ZM112.211 25.11V24.61H111.865L111.743 24.9333L112.211 25.11ZM111.497 27V27.5H111.842L111.964 27.1767L111.497 27ZM109.285 27L108.818 26.8195L108.555 27.5H109.285V27ZM113.121 17.088V16.588H112.778L112.654 16.9075L113.121 17.088ZM115.417 17.088L115.884 16.9098L115.761 16.588H115.417V17.088ZM119.197 27V27.5H119.922L119.664 26.8218L119.197 27ZM116.971 27L116.501 27.1706L116.62 27.5H116.971V27ZM116.285 25.11L116.755 24.9394L116.635 24.61H116.285V25.11ZM112.799 23.318L112.328 23.1502L112.09 23.818H112.799V23.318ZM115.683 23.318V23.818H116.387L116.155 23.1531L115.683 23.318ZM114.255 19.23L114.727 19.0651L114.259 17.7269L113.784 19.0622L114.255 19.23ZM111.743 24.9333L111.029 26.8233L111.964 27.1767L112.678 25.2867L111.743 24.9333ZM111.497 26.5H109.285V27.5H111.497V26.5ZM109.751 27.1805L113.587 17.2685L112.654 16.9075L108.818 26.8195L109.751 27.1805ZM113.121 17.588H115.417V16.588H113.121V17.588ZM114.95 17.2662L118.73 27.1782L119.664 26.8218L115.884 16.9098L114.95 17.2662ZM119.197 26.5H116.971V27.5H119.197V26.5ZM117.441 26.8294L116.755 24.9394L115.815 25.2806L116.501 27.1706L117.441 26.8294ZM116.285 24.61H112.211V25.61H116.285V24.61ZM112.799 23.818H115.683V22.818H112.799V23.818ZM116.155 23.1531L114.727 19.0651L113.783 19.3949L115.211 23.4829L116.155 23.1531ZM113.784 19.0622L112.328 23.1502L113.27 23.4858L114.726 19.3978L113.784 19.0622ZM123.313 17.088L123.721 16.7988L123.571 16.588H123.313V17.088ZM128.017 23.724L127.609 24.0132L128.517 25.294V23.724H128.017ZM128.017 17.088V16.588H127.517V17.088H128.017ZM130.005 17.088H130.505V16.588H130.005V17.088ZM130.005 27V27.5H130.505V27H130.005ZM128.059 27L127.651 27.29L127.801 27.5H128.059V27ZM123.355 20.392L123.762 20.102L122.855 18.8274V20.392H123.355ZM123.355 27V27.5H123.855V27H123.355ZM121.367 27H120.867V27.5H121.367V27ZM121.367 17.088V16.588H120.867V17.088H121.367ZM122.905 17.3772L127.609 24.0132L128.425 23.4348L123.721 16.7988L122.905 17.3772ZM128.517 23.724V17.088H127.517V23.724H128.517ZM128.017 17.588H130.005V16.588H128.017V17.588ZM129.505 17.088V27H130.505V17.088H129.505ZM130.005 26.5H128.059V27.5H130.005V26.5ZM128.466 26.71L123.762 20.102L122.947 20.682L127.651 27.29L128.466 26.71ZM122.855 20.392V27H123.855V20.392H122.855ZM123.355 26.5H121.367V27.5H123.355V26.5ZM121.867 27V17.088H120.867V27H121.867ZM121.367 17.588H123.313V16.588H121.367V17.588ZM132.253 18.894H131.753V19.394H132.253V18.894ZM132.253 17.088V16.588H131.753V17.088H132.253ZM140.499 17.088H140.999V16.588H140.499V17.088ZM140.499 18.894V19.394H140.999V18.894H140.499ZM137.391 18.894V18.394H136.891V18.894H137.391ZM137.391 27V27.5H137.891V27H137.391ZM135.361 27H134.861V27.5H135.361V27ZM135.361 18.894H135.861V18.394H135.361V18.894ZM132.753 18.894V17.088H131.753V18.894H132.753ZM132.253 17.588H140.499V16.588H132.253V17.588ZM139.999 17.088V18.894H140.999V17.088H139.999ZM140.499 18.394H137.391V19.394H140.499V18.394ZM136.891 18.894V27H137.891V18.894H136.891ZM137.391 26.5H135.361V27.5H137.391V26.5ZM135.861 27V18.894H134.861V27H135.861ZM135.361 18.394H132.253V19.394H135.361V18.394Z" fill="#1E1E1E"/>
<defs>
<linearGradient id="paint0_linear_158_31364" x1="13.2727" y1="-10.6667" x2="80.223" y2="9.478" gradientUnits="userSpaceOnUse">
<stop stop-color="#8FCAED"/>
<stop offset="1" stop-color="#7A6398"/>
</linearGradient>
</defs>
</svg>
