<svg width="132" height="32" viewBox="0 0 132 32" fill="none" xmlns="http://www.w3.org/2000/svg">
<circle cx="3.5" cy="5.5" r="0.5" fill="#1E1E1E"/>
<circle cx="3.5" cy="9.5" r="0.5" fill="#1E1E1E"/>
<circle cx="3.5" cy="13.5" r="0.5" fill="#1E1E1E"/>
<circle cx="3.5" cy="17.5" r="0.5" fill="#1E1E1E"/>
<circle cx="3.5" cy="23.5" r="0.5" fill="#1E1E1E"/>
<circle cx="5.5" cy="15.5" r="0.5" fill="#1E1E1E"/>
<circle cx="5.5" cy="21.5" r="0.5" fill="#1E1E1E"/>
<circle cx="5.5" cy="13.5" r="0.5" fill="#1E1E1E"/>
<circle cx="5.5" cy="9.5" r="0.5" fill="#1E1E1E"/>
<circle cx="5.5" cy="5.5" r="0.5" fill="#1E1E1E"/>
<circle cx="7.5" cy="5.5" r="0.5" fill="#1E1E1E"/>
<circle cx="9.5" cy="5.5" r="0.5" fill="#1E1E1E"/>
<circle cx="11.5" cy="5.5" r="0.5" fill="#1E1E1E"/>
<circle cx="13.5" cy="5.5" r="0.5" fill="#1E1E1E"/>
<circle cx="15.5" cy="6.5" r="0.5" fill="#1E1E1E"/>
<circle cx="17.5" cy="8.5" r="0.5" fill="#1E1E1E"/>
<circle cx="16.5" cy="14.5" r="0.5" fill="#1E1E1E"/>
<circle cx="16.5" cy="10.5" r="0.5" fill="#1E1E1E"/>
<circle cx="18.5" cy="10.5" r="0.5" fill="#1E1E1E"/>
<circle cx="18.5" cy="12.5" r="0.5" fill="#1E1E1E"/>
<circle cx="18.5" cy="14.5" r="0.5" fill="#1E1E1E"/>
<circle cx="15.5" cy="16.5" r="0.5" fill="#1E1E1E"/>
<circle cx="13.5" cy="17.5" r="0.5" fill="#1E1E1E"/>
<circle cx="11.5" cy="17.5" r="0.5" fill="#1E1E1E"/>
<circle cx="9.5" cy="17.5" r="0.5" fill="#1E1E1E"/>
<circle cx="7.5" cy="17.5" r="0.5" fill="#1E1E1E"/>
<circle cx="3.5" cy="7.5" r="0.5" fill="#1E1E1E"/>
<circle cx="3.5" cy="11.5" r="0.5" fill="#1E1E1E"/>
<circle cx="3.5" cy="15.5" r="0.5" fill="#1E1E1E"/>
<circle cx="3.5" cy="21.5" r="0.5" fill="#1E1E1E"/>
<circle cx="3.5" cy="19.5" r="0.5" fill="#1E1E1E"/>
<circle cx="3.5" cy="25.5" r="0.5" fill="#1E1E1E"/>
<circle cx="5.5" cy="19.5" r="0.5" fill="#1E1E1E"/>
<circle cx="5.5" cy="25.5" r="0.5" fill="#1E1E1E"/>
<circle cx="5.5" cy="17.5" r="0.5" fill="#1E1E1E"/>
<circle cx="5.5" cy="23.5" r="0.5" fill="#1E1E1E"/>
<circle cx="5.5" cy="11.5" r="0.5" fill="#1E1E1E"/>
<circle cx="5.5" cy="7.5" r="0.5" fill="#1E1E1E"/>
<circle cx="7.5" cy="7.5" r="0.5" fill="#1E1E1E"/>
<circle cx="9.5" cy="7.5" r="0.5" fill="#1E1E1E"/>
<circle cx="11.5" cy="7.5" r="0.5" fill="#1E1E1E"/>
<circle cx="13.5" cy="7.5" r="0.5" fill="#1E1E1E"/>
<circle cx="15.5" cy="8.5" r="0.5" fill="#1E1E1E"/>
<circle cx="16.5" cy="12.5" r="0.5" fill="#1E1E1E"/>
<circle cx="17.5" cy="16.5" r="0.5" fill="#1E1E1E"/>
<circle cx="15.5" cy="18.5" r="0.5" fill="#1E1E1E"/>
<circle cx="13.5" cy="19.5" r="0.5" fill="#1E1E1E"/>
<circle cx="11.5" cy="19.5" r="0.5" fill="#1E1E1E"/>
<circle cx="9.5" cy="19.5" r="0.5" fill="#1E1E1E"/>
<circle cx="7.5" cy="19.5" r="0.5" fill="#1E1E1E"/>
<path d="M26.688 22.68L25.056 27H20L28.768 4.344H34.016L42.656 27H37.568L36 22.68H26.688ZM28.032 18.584H34.624L31.36 9.24L28.032 18.584ZM47.5435 27L41.7835 4.344H47.0635L50.7755 21.72L54.2635 4.344H60.5035L63.8955 21.72L67.3835 4.344H72.3755L66.9995 27H60.8555L57.3035 9.336L53.7835 27H47.5435Z" fill="url(#paint0_linear_157_299)"/>
<path d="M26.688 22.68V22.18H26.3424L26.2203 22.5033L26.688 22.68ZM25.056 27V27.5H25.4016L25.5237 27.1767L25.056 27ZM20 27L19.5337 26.8195L19.2704 27.5H20V27ZM28.768 4.344V3.844H28.4254L28.3017 4.16354L28.768 4.344ZM34.016 4.344L34.4832 4.16584L34.3604 3.844H34.016V4.344ZM42.656 27V27.5H43.3818L43.1232 26.8218L42.656 27ZM37.568 27L37.098 27.1706L37.2176 27.5H37.568V27ZM36 22.68L36.47 22.5094L36.3504 22.18H36V22.68ZM28.032 18.584L27.561 18.4162L27.3232 19.084H28.032V18.584ZM34.624 18.584V19.084H35.3283L35.096 18.4191L34.624 18.584ZM31.36 9.24L31.832 9.07511L31.3646 7.73692L30.889 9.07224L31.36 9.24ZM26.2203 22.5033L24.5883 26.8233L25.5237 27.1767L27.1557 22.8567L26.2203 22.5033ZM25.056 26.5H20V27.5H25.056V26.5ZM20.4663 27.1805L29.2343 4.52446L28.3017 4.16354L19.5337 26.8195L20.4663 27.1805ZM28.768 4.844H34.016V3.844H28.768V4.844ZM33.5488 4.52216L42.1888 27.1782L43.1232 26.8218L34.4832 4.16584L33.5488 4.52216ZM42.656 26.5H37.568V27.5H42.656V26.5ZM38.038 26.8294L36.47 22.5094L35.53 22.8506L37.098 27.1706L38.038 26.8294ZM36 22.18H26.688V23.18H36V22.18ZM28.032 19.084H34.624V18.084H28.032V19.084ZM35.096 18.4191L31.832 9.07511L30.888 9.40489L34.152 18.7489L35.096 18.4191ZM30.889 9.07224L27.561 18.4162L28.503 18.7518L31.831 9.40776L30.889 9.07224ZM47.5435 27L47.0589 27.1232L47.1547 27.5H47.5435V27ZM41.7835 4.344V3.844H41.1405L41.2989 4.4672L41.7835 4.344ZM47.0635 4.344L47.5525 4.23954L47.468 3.844H47.0635V4.344ZM50.7755 21.72L50.2865 21.8245L51.2657 21.8184L50.7755 21.72ZM54.2635 4.344V3.844H53.8539L53.7733 4.24559L54.2635 4.344ZM60.5035 4.344L60.9942 4.2482L60.9153 3.844H60.5035V4.344ZM63.8955 21.72L63.4048 21.8158L64.3857 21.8184L63.8955 21.72ZM67.3835 4.344V3.844H66.9739L66.8933 4.24559L67.3835 4.344ZM72.3755 4.344L72.862 4.45944L73.008 3.844H72.3755V4.344ZM66.9995 27V27.5H67.3947L67.486 27.1154L66.9995 27ZM60.8555 27L60.3653 27.0986L60.446 27.5H60.8555V27ZM57.3035 9.336L57.7937 9.23743L56.8131 9.23828L57.3035 9.336ZM53.7835 27V27.5H54.1937L54.2739 27.0977L53.7835 27ZM48.0281 26.8768L42.2681 4.2208L41.2989 4.4672L47.0589 27.1232L48.0281 26.8768ZM41.7835 4.844H47.0635V3.844H41.7835V4.844ZM46.5745 4.44846L50.2865 21.8245L51.2645 21.6155L47.5525 4.23954L46.5745 4.44846ZM51.2657 21.8184L54.7537 4.44241L53.7733 4.24559L50.2853 21.6216L51.2657 21.8184ZM54.2635 4.844H60.5035V3.844H54.2635V4.844ZM60.0128 4.4398L63.4048 21.8158L64.3862 21.6242L60.9942 4.2482L60.0128 4.4398ZM64.3857 21.8184L67.8737 4.44241L66.8933 4.24559L63.4053 21.6216L64.3857 21.8184ZM67.3835 4.844H72.3755V3.844H67.3835V4.844ZM71.889 4.22856L66.513 26.8846L67.486 27.1154L72.862 4.45944L71.889 4.22856ZM66.9995 26.5H60.8555V27.5H66.9995V26.5ZM61.3457 26.9014L57.7937 9.23743L56.8133 9.43457L60.3653 27.0986L61.3457 26.9014ZM56.8131 9.23828L53.2931 26.9023L54.2739 27.0977L57.7939 9.43371L56.8131 9.23828ZM53.7835 26.5H47.5435V27.5H53.7835V26.5Z" fill="#1E1E1E"/>
<path d="M79.23 19.944L78.7344 20.0101L78.7922 20.444H79.23V19.944ZM78.67 19.048L78.4164 19.4791L78.4261 19.4845L78.67 19.048ZM77.48 18.74L77.4996 18.2404L77.4898 18.24H77.48V18.74ZM76.948 18.782L76.8738 18.2875L76.87 18.2881L76.948 18.782ZM76.444 18.95L76.2101 18.5081H76.2101L76.444 18.95ZM76.052 19.286L76.4552 19.5817L76.4552 19.5817L76.052 19.286ZM75.898 19.804L76.3975 19.8257L76.398 19.8149V19.804H75.898ZM76.052 20.35L75.652 20.65L75.6578 20.6578L75.6639 20.6653L76.052 20.35ZM76.528 20.714L76.313 21.1654L76.3166 21.1671L76.528 20.714ZM76.976 20.896L76.8096 21.3675L76.8257 21.3732L76.8422 21.3778L76.976 20.896ZM77.466 21.036L77.3249 21.5157L77.3381 21.5196L77.3515 21.5227L77.466 21.036ZM77.928 21.134L78.0201 20.6426L78.0201 20.6426L77.928 21.134ZM78.32 21.218L78.1987 21.7031L78.2081 21.7054L78.2176 21.7074L78.32 21.218ZM79.482 21.512L79.6257 21.0331L79.482 21.512ZM80.476 21.974L80.7564 21.56L80.7564 21.56L80.476 21.974ZM81.176 22.758L81.6154 22.5195L81.176 22.758ZM81.456 24.032H81.9561L81.9559 24.0231L81.456 24.032ZM81.134 25.488L81.5749 25.7238L81.134 25.488ZM80.266 26.454L79.9886 26.0378L79.9785 26.0449L80.266 26.454ZM79.062 26.986L79.1715 27.4739L79.1809 27.4716L79.062 26.986ZM77.55 27.112L77.5669 26.6122L77.5588 26.6121L77.55 27.112ZM76.052 26.902L75.9083 27.381L75.9172 27.3835L76.052 26.902ZM74.806 26.3L74.5094 26.7026L74.5144 26.7062L74.806 26.3ZM73.952 25.32L74.3905 25.0798H74.3905L73.952 25.32ZM73.588 23.934V23.434H73.061L73.0887 23.9603L73.588 23.934ZM75.66 23.934L76.1472 23.8216L76.0578 23.434H75.66V23.934ZM75.94 24.536L76.326 24.2181H76.326L75.94 24.536ZM76.402 24.928L76.1515 25.3607H76.1515L76.402 24.928ZM76.99 25.152L76.8838 25.6406L76.888 25.6415L76.99 25.152ZM77.662 25.236L77.6412 25.7356L77.642 25.7356L77.662 25.236ZM78.894 25.054L79.107 25.5065L79.1176 25.5012L78.894 25.054ZM79.286 24.718L79.702 24.9954L79.702 24.9953L79.286 24.718ZM79.146 23.528L78.8361 23.9206L78.846 23.928L79.146 23.528ZM78.558 23.234L78.6842 22.7502L78.6793 22.7489L78.558 23.234ZM78.152 23.136L77.9939 23.6103L78.0164 23.6179L78.0396 23.6232L78.152 23.136ZM77.816 23.052L77.6947 23.5371L77.7141 23.5419L77.7338 23.5452L77.816 23.052ZM77.466 22.968L77.3536 23.4552H77.3536L77.466 22.968ZM77.046 22.87L76.9187 23.3537L76.9315 23.3567L77.046 22.87ZM75.94 22.562L75.7855 23.0375L75.7925 23.0398L75.7996 23.0419L75.94 22.562ZM74.932 22.058L75.2239 21.6519L75.2166 21.6469L74.932 22.058ZM74.106 21.092L73.6504 21.2981L73.6546 21.307L74.106 21.092ZM73.868 19.79L73.3686 19.765L73.3684 19.7704L73.868 19.79ZM74.26 18.404L74.681 18.6739L74.684 18.669L74.26 18.404ZM75.156 17.522L75.41 17.9527L75.156 17.522ZM76.36 17.074L76.454 17.5651L76.36 17.074ZM77.676 16.962L77.6654 17.4619L77.6664 17.4619L77.676 16.962ZM79.02 17.172L78.8683 17.6486L78.8812 17.6524L79.02 17.172ZM80.112 17.718L79.8025 18.1108L79.8083 18.1152L80.112 17.718ZM80.882 18.642L80.4393 18.8744L80.4393 18.8744L80.882 18.642ZM81.246 19.944V20.444H81.7954L81.7438 19.897L81.246 19.944ZM79.7256 19.8779C79.6527 19.331 79.3928 18.8791 78.9139 18.6115L78.4261 19.4845C78.5819 19.5715 78.6953 19.717 78.7344 20.0101L79.7256 19.8779ZM78.9235 18.617C78.5172 18.378 78.0345 18.2614 77.4996 18.2404L77.4604 19.2396C77.8775 19.256 78.1881 19.3446 78.4165 19.479L78.9235 18.617ZM77.48 18.24C77.2844 18.24 77.0821 18.2563 76.8738 18.2875L77.0222 19.2765C77.1872 19.2517 77.3396 19.24 77.48 19.24V18.24ZM76.87 18.2881C76.6382 18.3247 76.4175 18.3983 76.2101 18.5081L76.6779 19.3919C76.7878 19.3337 76.9031 19.2953 77.026 19.2759L76.87 18.2881ZM76.2101 18.5081C75.987 18.6262 75.7977 18.7873 75.6488 18.9903L76.4552 19.5817C76.5117 19.5047 76.5837 19.4418 76.6779 19.3919L76.2101 18.5081ZM75.6488 18.9903C75.4724 19.2309 75.398 19.5123 75.398 19.804H76.398C76.398 19.685 76.4263 19.6211 76.4552 19.5817L75.6488 18.9903ZM75.3985 19.7823C75.3849 20.0941 75.4603 20.3944 75.652 20.65L76.452 20.05C76.4197 20.0069 76.3924 19.9433 76.3975 19.8257L75.3985 19.7823ZM75.6639 20.6653C75.8378 20.8793 76.0586 21.0443 76.313 21.1654L76.743 20.2626C76.6054 20.1971 76.5088 20.1194 76.4401 20.0347L75.6639 20.6653ZM76.3166 21.1671C76.4725 21.2399 76.637 21.3066 76.8096 21.3675L77.1424 20.4245C76.9977 20.3734 76.8635 20.3188 76.7394 20.2609L76.3166 21.1671ZM76.8422 21.3778C77.0079 21.4238 77.1688 21.4698 77.3249 21.5157L77.6071 20.5563C77.4459 20.5089 77.2801 20.4615 77.1098 20.4142L76.8422 21.3778ZM77.3515 21.5227C77.517 21.5617 77.6785 21.5959 77.8359 21.6254L78.0201 20.6426C77.8788 20.6161 77.7323 20.585 77.5805 20.5493L77.3515 21.5227ZM77.8359 21.6254C77.9783 21.6521 78.0988 21.6781 78.1987 21.7031L78.4413 20.7329C78.3172 20.7019 78.1764 20.6719 78.0201 20.6426L77.8359 21.6254ZM78.2176 21.7074C78.6057 21.7886 78.9793 21.8832 79.3383 21.9909L79.6257 21.0331C79.2381 20.9168 78.8369 20.8154 78.4224 20.7286L78.2176 21.7074ZM79.3383 21.9909C79.6686 22.09 79.9528 22.2235 80.1956 22.388L80.7564 21.56C80.4205 21.3325 80.0421 21.158 79.6257 21.0331L79.3383 21.9909ZM80.1956 22.388C80.4144 22.5362 80.5949 22.7356 80.7366 22.9965L81.6154 22.5195C81.4024 22.127 81.1162 21.8038 80.7564 21.56L80.1956 22.388ZM80.7366 22.9965C80.8632 23.2299 80.9476 23.5679 80.9561 24.0409L81.9559 24.0231C81.9457 23.4508 81.8434 22.9395 81.6154 22.5195L80.7366 22.9965ZM80.956 24.032C80.956 24.5393 80.8604 24.9394 80.6931 25.2522L81.5749 25.7238C81.8369 25.234 81.956 24.6633 81.956 24.032H80.956ZM80.6931 25.2522C80.5157 25.5839 80.2813 25.8429 79.9887 26.038L80.5434 26.87C80.9787 26.5798 81.323 26.1947 81.5749 25.7238L80.6931 25.2522ZM79.9785 26.0449C79.6897 26.2479 79.3469 26.4015 78.9431 26.5004L79.1809 27.4716C79.6918 27.3465 80.1517 27.1455 80.5535 26.8631L79.9785 26.0449ZM78.9525 26.4981C78.5431 26.59 78.0823 26.6298 77.5669 26.6123L77.5331 27.6117C78.119 27.6316 78.6662 27.5873 79.1715 27.4739L78.9525 26.4981ZM77.5588 26.6121C77.0653 26.6034 76.6086 26.5386 76.1868 26.4205L75.9172 27.3835C76.4287 27.5267 76.9707 27.6019 77.5412 27.6119L77.5588 26.6121ZM76.1957 26.4231C75.7774 26.2976 75.4129 26.1202 75.0976 25.8938L74.5144 26.7062C74.9271 27.0025 75.3933 27.2264 75.9083 27.3809L76.1957 26.4231ZM75.1026 25.8975C74.8074 25.6799 74.5708 25.409 74.3905 25.0798L73.5135 25.5602C73.7625 26.015 74.0953 26.3974 74.5094 26.7025L75.1026 25.8975ZM74.3905 25.0798C74.2182 24.7651 74.1121 24.379 74.0873 23.9077L73.0887 23.9603C73.1199 24.553 73.2565 25.0909 73.5135 25.5602L74.3905 25.0798ZM73.588 24.434H75.66V23.434H73.588V24.434ZM75.1728 24.0464C75.2426 24.3487 75.3649 24.6241 75.554 24.8539L76.326 24.2181C76.2538 24.1305 76.1894 24.0046 76.1472 23.8216L75.1728 24.0464ZM75.554 24.8539C75.7225 25.0584 75.9223 25.2281 76.1515 25.3607L76.6525 24.4953C76.527 24.4226 76.4188 24.3309 76.326 24.2181L75.554 24.8539ZM76.1515 25.3607C76.3769 25.4912 76.6221 25.5837 76.8838 25.6406L77.0962 24.6634C76.9286 24.627 76.7818 24.5701 76.6525 24.4953L76.1515 25.3607ZM76.888 25.6415C77.1382 25.6936 77.3893 25.7251 77.6412 25.7356L77.6828 24.7364C77.4867 24.7283 77.2898 24.7037 77.092 24.6625L76.888 25.6415ZM77.642 25.7356C77.9014 25.746 78.1538 25.7357 78.3987 25.7038L78.2693 24.7122C78.0848 24.7363 77.8892 24.7447 77.682 24.7364L77.642 25.7356ZM78.3987 25.7038C78.6531 25.6706 78.8919 25.6076 79.1069 25.5064L78.6811 24.6016C78.5788 24.6497 78.4442 24.6894 78.2693 24.7122L78.3987 25.7038ZM79.1176 25.5012C79.3542 25.3829 79.555 25.2159 79.702 24.9954L78.87 24.4406C78.8303 24.5001 78.7698 24.5571 78.6704 24.6068L79.1176 25.5012ZM79.702 24.9953C79.8634 24.7533 79.926 24.4723 79.926 24.186H78.926C78.926 24.329 78.8952 24.4027 78.87 24.4406L79.702 24.9953ZM79.926 24.186C79.926 23.7784 79.7929 23.3882 79.446 23.128L78.846 23.928C78.8725 23.9478 78.926 23.9962 78.926 24.186H79.926ZM79.4558 23.1356C79.2253 22.9536 78.967 22.824 78.6842 22.7502L78.4318 23.7178C78.5783 23.756 78.7121 23.8224 78.8362 23.9204L79.4558 23.1356ZM78.6793 22.7489C78.5276 22.711 78.3893 22.6776 78.2644 22.6488L78.0396 23.6232C78.1574 23.6504 78.2897 23.6823 78.4367 23.7191L78.6793 22.7489ZM78.3101 22.6617C78.1743 22.6164 78.037 22.5819 77.8982 22.5588L77.7338 23.5452C77.819 23.5594 77.9057 23.5809 77.9939 23.6103L78.3101 22.6617ZM77.9373 22.5669C77.8221 22.5381 77.7025 22.5094 77.5784 22.4808L77.3536 23.4552C77.4722 23.4826 77.5859 23.5099 77.6947 23.5371L77.9373 22.5669ZM77.5784 22.4808C77.458 22.453 77.3187 22.4205 77.1605 22.3833L76.9315 23.3567C77.0906 23.3942 77.2314 23.427 77.3536 23.4552L77.5784 22.4808ZM77.1732 22.3865C76.8234 22.2944 76.4591 22.193 76.0804 22.0821L75.7996 23.0419C76.1862 23.155 76.5593 23.2589 76.9188 23.3535L77.1732 22.3865ZM76.0945 22.0865C75.767 21.98 75.4779 21.8346 75.2238 21.652L74.6402 22.464C74.9835 22.7108 75.3664 22.9013 75.7855 23.0375L76.0945 22.0865ZM75.2166 21.6469C74.9229 21.4436 74.7058 21.1886 74.5574 20.877L73.6546 21.307C73.8795 21.7794 74.2131 22.1684 74.6474 22.4691L75.2166 21.6469ZM74.5616 20.8859C74.4195 20.572 74.3517 20.2164 74.3676 19.8096L73.3684 19.7704C73.347 20.3156 73.4378 20.828 73.6504 21.2981L74.5616 20.8859ZM74.3674 19.815C74.3923 19.3168 74.5066 18.9458 74.6809 18.6738L73.8391 18.1342C73.5467 18.5902 73.3997 19.1432 73.3686 19.765L74.3674 19.815ZM74.684 18.669C74.8766 18.3608 75.1181 18.1248 75.41 17.9527L74.902 17.0913C74.4659 17.3485 74.11 17.7005 73.836 18.139L74.684 18.669ZM75.41 17.9527C75.7218 17.7688 76.0685 17.6389 76.454 17.5651L76.266 16.5829C75.7741 16.6771 75.3182 16.8459 74.902 17.0913L75.41 17.9527ZM76.454 17.5651C76.8588 17.4876 77.2624 17.4533 77.6654 17.4619L77.6866 16.4621C77.2122 16.452 76.7385 16.4924 76.266 16.5829L76.454 17.5651ZM77.6664 17.4619C78.1095 17.4704 78.5091 17.5341 78.8684 17.6485L79.1716 16.6955C78.7096 16.5485 78.2132 16.4722 77.6856 16.4621L77.6664 17.4619ZM78.8812 17.6524C79.2463 17.7578 79.5508 17.9124 79.8026 18.1107L80.4214 17.3253C80.0572 17.0383 79.6337 16.8288 79.1588 16.6916L78.8812 17.6524ZM79.8083 18.1152C80.0647 18.3112 80.2752 18.5618 80.4393 18.8744L81.3247 18.4096C81.0968 17.9755 80.794 17.6101 80.4157 17.3208L79.8083 18.1152ZM80.4393 18.8744C80.6001 19.1808 80.7066 19.5497 80.7482 19.991L81.7438 19.897C81.6921 19.3489 81.5559 18.8499 81.3247 18.4096L80.4393 18.8744ZM81.246 19.444H79.23V20.444H81.246V19.444ZM85.1308 27V27.5H85.6308V27H85.1308ZM83.1008 27H82.6008V27.5H83.1008V27ZM83.1008 17.088V16.588H82.6008V17.088H83.1008ZM85.1308 17.088H85.6308V16.588H85.1308V17.088ZM85.1308 26.5H83.1008V27.5H85.1308V26.5ZM83.6008 27V17.088H82.6008V27H83.6008ZM83.1008 17.588H85.1308V16.588H83.1008V17.588ZM84.6308 17.088V27H85.6308V17.088H84.6308ZM92.4097 19.944L91.9141 20.0101L91.9719 20.444H92.4097V19.944ZM91.8497 19.048L91.5961 19.4791L91.6058 19.4845L91.8497 19.048ZM90.6597 18.74L90.6793 18.2404L90.6695 18.24H90.6597V18.74ZM90.1277 18.782L90.0535 18.2875L90.0497 18.2881L90.1277 18.782ZM89.6237 18.95L89.3897 18.5081L89.6237 18.95ZM89.2317 19.286L89.6349 19.5817V19.5817L89.2317 19.286ZM89.0777 19.804L89.5772 19.8257L89.5777 19.8149V19.804H89.0777ZM89.2317 20.35L88.8317 20.65L88.8375 20.6578L88.8436 20.6653L89.2317 20.35ZM89.7077 20.714L89.4927 21.1654L89.4962 21.1671L89.7077 20.714ZM90.1557 20.896L89.9893 21.3675L90.0054 21.3732L90.0219 21.3778L90.1557 20.896ZM90.6457 21.036L90.5046 21.5157L90.5178 21.5196L90.5312 21.5227L90.6457 21.036ZM91.1077 21.134L91.1998 20.6426L91.1998 20.6426L91.1077 21.134ZM91.4997 21.218L91.3784 21.7031L91.3878 21.7054L91.3973 21.7074L91.4997 21.218ZM92.6617 21.512L92.8054 21.0331H92.8054L92.6617 21.512ZM93.6557 21.974L93.9361 21.56V21.56L93.6557 21.974ZM94.3557 22.758L94.7951 22.5195L94.3557 22.758ZM94.6357 24.032H95.1358L95.1356 24.0231L94.6357 24.032ZM94.3137 25.488L94.7546 25.7238L94.3137 25.488ZM93.4457 26.454L93.1683 26.0378L93.1582 26.0449L93.4457 26.454ZM92.2417 26.986L92.3512 27.4739L92.3606 27.4716L92.2417 26.986ZM90.7297 27.112L90.7466 26.6122L90.7385 26.6121L90.7297 27.112ZM89.2317 26.902L89.088 27.381L89.0969 27.3835L89.2317 26.902ZM87.9857 26.3L87.6891 26.7026L87.6941 26.7062L87.9857 26.3ZM87.1317 25.32L87.5702 25.0798L87.1317 25.32ZM86.7677 23.934V23.434H86.2407L86.2684 23.9603L86.7677 23.934ZM88.8397 23.934L89.3269 23.8216L89.2374 23.434H88.8397V23.934ZM89.1197 24.536L89.5057 24.2181L89.1197 24.536ZM89.5817 24.928L89.3312 25.3607L89.5817 24.928ZM90.1697 25.152L90.0635 25.6406L90.0677 25.6415L90.1697 25.152ZM90.8417 25.236L90.8209 25.7356L90.8217 25.7356L90.8417 25.236ZM92.0737 25.054L92.2866 25.5065L92.2973 25.5012L92.0737 25.054ZM92.4657 24.718L92.8817 24.9954L92.8817 24.9953L92.4657 24.718ZM92.3257 23.528L92.0158 23.9206L92.0257 23.928L92.3257 23.528ZM91.7377 23.234L91.8639 22.7502L91.859 22.7489L91.7377 23.234ZM91.3317 23.136L91.1736 23.6103L91.1961 23.6179L91.2193 23.6232L91.3317 23.136ZM90.9957 23.052L90.8744 23.5371L90.8938 23.5419L90.9135 23.5452L90.9957 23.052ZM90.6457 22.968L90.5333 23.4552L90.6457 22.968ZM90.2257 22.87L90.0984 23.3537L90.1112 23.3567L90.2257 22.87ZM89.1197 22.562L88.9651 23.0375L88.9722 23.0398L88.9792 23.0419L89.1197 22.562ZM88.1117 22.058L88.4036 21.6519L88.3963 21.6469L88.1117 22.058ZM87.2857 21.092L86.83 21.2981L86.8343 21.307L87.2857 21.092ZM87.0477 19.79L86.5483 19.765L86.5481 19.7704L87.0477 19.79ZM87.4397 18.404L87.8607 18.6739L87.8637 18.669L87.4397 18.404ZM88.3357 17.522L88.5897 17.9527H88.5897L88.3357 17.522ZM89.5397 17.074L89.6337 17.5651L89.5397 17.074ZM90.8557 16.962L90.8451 17.4619L90.8461 17.4619L90.8557 16.962ZM92.1997 17.172L92.048 17.6486L92.0609 17.6524L92.1997 17.172ZM93.2917 17.718L92.9822 18.1108L92.988 18.1152L93.2917 17.718ZM94.0617 18.642L93.619 18.8744L93.619 18.8744L94.0617 18.642ZM94.4257 19.944V20.444H94.9751L94.9235 19.897L94.4257 19.944ZM92.9053 19.8779C92.8324 19.331 92.5725 18.8791 92.0936 18.6115L91.6058 19.4845C91.7616 19.5715 91.875 19.717 91.9141 20.0101L92.9053 19.8779ZM92.1032 18.617C91.6969 18.378 91.2142 18.2614 90.6793 18.2404L90.6401 19.2396C91.0572 19.256 91.3678 19.3446 91.5962 19.479L92.1032 18.617ZM90.6597 18.24C90.464 18.24 90.2618 18.2563 90.0535 18.2875L90.2019 19.2765C90.3669 19.2517 90.5193 19.24 90.6597 19.24V18.24ZM90.0497 18.2881C89.8179 18.3247 89.5972 18.3983 89.3897 18.5081L89.8576 19.3919C89.9675 19.3337 90.0828 19.2953 90.2057 19.2759L90.0497 18.2881ZM89.3897 18.5081C89.1667 18.6262 88.9773 18.7873 88.8285 18.9903L89.6349 19.5817C89.6914 19.5047 89.7634 19.4418 89.8576 19.3919L89.3897 18.5081ZM88.8285 18.9903C88.652 19.2309 88.5777 19.5123 88.5777 19.804H89.5777C89.5777 19.685 89.606 19.6211 89.6349 19.5817L88.8285 18.9903ZM88.5782 19.7823C88.5646 20.0941 88.64 20.3944 88.8317 20.65L89.6317 20.05C89.5994 20.0069 89.5721 19.9433 89.5772 19.8257L88.5782 19.7823ZM88.8436 20.6653C89.0175 20.8793 89.2383 21.0443 89.4927 21.1654L89.9227 20.2626C89.7851 20.1971 89.6885 20.1194 89.6197 20.0347L88.8436 20.6653ZM89.4962 21.1671C89.6522 21.2399 89.8166 21.3066 89.9893 21.3675L90.3221 20.4245C90.1774 20.3734 90.0432 20.3188 89.9191 20.2609L89.4962 21.1671ZM90.0219 21.3778C90.1876 21.4238 90.3485 21.4698 90.5046 21.5157L90.7868 20.5563C90.6256 20.5089 90.4598 20.4615 90.2895 20.4142L90.0219 21.3778ZM90.5312 21.5227C90.6967 21.5617 90.8582 21.5959 91.0155 21.6254L91.1998 20.6426C91.0585 20.6161 90.912 20.585 90.7602 20.5493L90.5312 21.5227ZM91.0155 21.6254C91.158 21.6521 91.2785 21.6781 91.3784 21.7031L91.621 20.7329C91.4969 20.7019 91.3561 20.6719 91.1998 20.6426L91.0155 21.6254ZM91.3973 21.7074C91.7854 21.7886 92.159 21.8832 92.518 21.9909L92.8054 21.0331C92.4178 20.9168 92.0166 20.8154 91.6021 20.7286L91.3973 21.7074ZM92.518 21.9909C92.8483 22.09 93.1325 22.2235 93.3753 22.388L93.9361 21.56C93.6002 21.3325 93.2218 21.158 92.8054 21.0331L92.518 21.9909ZM93.3753 22.388C93.5941 22.5362 93.7746 22.7356 93.9163 22.9965L94.7951 22.5195C94.5821 22.127 94.2959 21.8038 93.9361 21.56L93.3753 22.388ZM93.9163 22.9965C94.0429 23.2299 94.1273 23.5679 94.1358 24.0409L95.1356 24.0231C95.1254 23.4508 95.0231 22.9395 94.7951 22.5195L93.9163 22.9965ZM94.1357 24.032C94.1357 24.5393 94.0401 24.9394 93.8728 25.2522L94.7546 25.7238C95.0166 25.234 95.1357 24.6633 95.1357 24.032H94.1357ZM93.8728 25.2522C93.6953 25.5839 93.461 25.8429 93.1683 26.038L93.723 26.87C94.1584 26.5798 94.5027 26.1947 94.7546 25.7238L93.8728 25.2522ZM93.1582 26.0449C92.8694 26.2479 92.5266 26.4015 92.1228 26.5004L92.3606 27.4716C92.8714 27.3465 93.3313 27.1455 93.7332 26.8631L93.1582 26.0449ZM92.1322 26.4981C91.7228 26.59 91.262 26.6298 90.7466 26.6123L90.7127 27.6117C91.2987 27.6316 91.8459 27.5873 92.3512 27.4739L92.1322 26.4981ZM90.7385 26.6121C90.245 26.6034 89.7883 26.5386 89.3665 26.4205L89.0969 27.3835C89.6084 27.5267 90.1504 27.6019 90.7209 27.6119L90.7385 26.6121ZM89.3754 26.4231C88.9571 26.2976 88.5926 26.1202 88.2773 25.8938L87.6941 26.7062C88.1068 27.0025 88.573 27.2264 89.088 27.3809L89.3754 26.4231ZM88.2823 25.8975C87.9871 25.6799 87.7505 25.409 87.5702 25.0798L86.6931 25.5602C86.9422 26.015 87.275 26.3974 87.6891 26.7025L88.2823 25.8975ZM87.5702 25.0798C87.3979 24.7651 87.2918 24.379 87.267 23.9077L86.2684 23.9603C86.2996 24.553 86.4362 25.0909 86.6931 25.5602L87.5702 25.0798ZM86.7677 24.434H88.8397V23.434H86.7677V24.434ZM88.3525 24.0464C88.4223 24.3487 88.5445 24.6241 88.7337 24.8539L89.5057 24.2181C89.4335 24.1305 89.3691 24.0046 89.3269 23.8216L88.3525 24.0464ZM88.7337 24.8539C88.9022 25.0584 89.102 25.2281 89.3312 25.3607L89.8322 24.4953C89.7067 24.4226 89.5985 24.3309 89.5057 24.2181L88.7337 24.8539ZM89.3312 25.3607C89.5565 25.4912 89.8018 25.5837 90.0635 25.6406L90.2759 24.6634C90.1083 24.627 89.9615 24.5701 89.8322 24.4953L89.3312 25.3607ZM90.0677 25.6415C90.3179 25.6936 90.569 25.7251 90.8209 25.7356L90.8625 24.7364C90.6663 24.7283 90.4695 24.7037 90.2717 24.6625L90.0677 25.6415ZM90.8217 25.7356C91.0811 25.746 91.3335 25.7357 91.5784 25.7038L91.449 24.7122C91.2645 24.7363 91.0689 24.7447 90.8617 24.7364L90.8217 25.7356ZM91.5784 25.7038C91.8328 25.6706 92.0716 25.6076 92.2866 25.5064L91.8608 24.6016C91.7585 24.6497 91.6239 24.6894 91.449 24.7122L91.5784 25.7038ZM92.2973 25.5012C92.5339 25.3829 92.7347 25.2159 92.8817 24.9954L92.0497 24.4406C92.01 24.5001 91.9495 24.5571 91.8501 24.6068L92.2973 25.5012ZM92.8817 24.9953C93.0431 24.7533 93.1057 24.4723 93.1057 24.186H92.1057C92.1057 24.329 92.0749 24.4027 92.0497 24.4406L92.8817 24.9953ZM93.1057 24.186C93.1057 23.7784 92.9726 23.3882 92.6257 23.128L92.0257 23.928C92.0521 23.9478 92.1057 23.9962 92.1057 24.186H93.1057ZM92.6355 23.1356C92.405 22.9536 92.1467 22.824 91.8639 22.7502L91.6115 23.7178C91.758 23.756 91.8917 23.8224 92.0159 23.9204L92.6355 23.1356ZM91.859 22.7489C91.7073 22.711 91.569 22.6776 91.4441 22.6488L91.2193 23.6232C91.337 23.6504 91.4694 23.6823 91.6164 23.7191L91.859 22.7489ZM91.4898 22.6617C91.354 22.6164 91.2166 22.5819 91.0779 22.5588L90.9135 23.5452C90.9987 23.5594 91.0854 23.5809 91.1736 23.6103L91.4898 22.6617ZM91.117 22.5669C91.0018 22.5381 90.8822 22.5094 90.7581 22.4808L90.5333 23.4552C90.6519 23.4826 90.7656 23.5099 90.8744 23.5371L91.117 22.5669ZM90.7581 22.4808C90.6377 22.453 90.4984 22.4205 90.3402 22.3833L90.1112 23.3567C90.2703 23.3942 90.4111 23.427 90.5333 23.4552L90.7581 22.4808ZM90.3529 22.3865C90.003 22.2944 89.6388 22.193 89.2601 22.0821L88.9792 23.0419C89.3659 23.155 89.739 23.2589 90.0984 23.3535L90.3529 22.3865ZM89.2742 22.0865C88.9467 21.98 88.6575 21.8346 88.4035 21.652L87.8199 22.464C88.1632 22.7108 88.546 22.9013 88.9651 23.0375L89.2742 22.0865ZM88.3963 21.6469C88.1026 21.4436 87.8855 21.1886 87.7371 20.877L86.8343 21.307C87.0592 21.7794 87.3928 22.1684 87.8271 22.4691L88.3963 21.6469ZM87.7412 20.8859C87.5992 20.572 87.5314 20.2164 87.5473 19.8096L86.5481 19.7704C86.5267 20.3156 86.6175 20.828 86.8301 21.2981L87.7412 20.8859ZM87.5471 19.815C87.572 19.3168 87.6863 18.9458 87.8606 18.6738L87.0187 18.1342C86.7264 18.5902 86.5794 19.1432 86.5483 19.765L87.5471 19.815ZM87.8637 18.669C88.0563 18.3608 88.2978 18.1248 88.5897 17.9527L88.0817 17.0913C87.6456 17.3485 87.2897 17.7005 87.0157 18.139L87.8637 18.669ZM88.5897 17.9527C88.9015 17.7688 89.2482 17.6389 89.6337 17.5651L89.4457 16.5829C88.9538 16.6771 88.4979 16.8459 88.0817 17.0913L88.5897 17.9527ZM89.6337 17.5651C90.0385 17.4876 90.4421 17.4533 90.8451 17.4619L90.8663 16.4621C90.3919 16.452 89.9182 16.4924 89.4457 16.5829L89.6337 17.5651ZM90.8461 17.4619C91.2892 17.4704 91.6888 17.5341 92.0481 17.6485L92.3513 16.6955C91.8893 16.5485 91.3929 16.4722 90.8653 16.4621L90.8461 17.4619ZM92.0609 17.6524C92.426 17.7578 92.7305 17.9124 92.9823 18.1107L93.6011 17.3253C93.2369 17.0383 92.8133 16.8288 92.3385 16.6916L92.0609 17.6524ZM92.988 18.1152C93.2444 18.3112 93.4549 18.5618 93.619 18.8744L94.5044 18.4096C94.2765 17.9755 93.9737 17.6101 93.5954 17.3208L92.988 18.1152ZM93.619 18.8744C93.7798 19.1808 93.8863 19.5497 93.9279 19.991L94.9235 19.897C94.8718 19.3489 94.7355 18.8499 94.5044 18.4096L93.619 18.8744ZM94.4257 19.444H92.4097V20.444H94.4257V19.444ZM95.1777 18.894H94.6777V19.394H95.1777V18.894ZM95.1777 17.088V16.588H94.6777V17.088H95.1777ZM103.424 17.088H103.924V16.588H103.424V17.088ZM103.424 18.894V19.394H103.924V18.894H103.424ZM100.316 18.894V18.394H99.8158V18.894H100.316ZM100.316 27V27.5H100.816V27H100.316ZM98.2857 27H97.7857V27.5H98.2857V27ZM98.2857 18.894H98.7857V18.394H98.2857V18.894ZM95.6777 18.894V17.088H94.6777V18.894H95.6777ZM95.1777 17.588H103.424V16.588H95.1777V17.588ZM102.924 17.088V18.894H103.924V17.088H102.924ZM103.424 18.394H100.316V19.394H103.424V18.394ZM99.8158 18.894V27H100.816V18.894H99.8158ZM100.316 26.5H98.2857V27.5H100.316V26.5ZM98.7857 27V18.894H97.7857V27H98.7857ZM98.2857 18.394H95.1777V19.394H98.2857V18.394ZM105.731 25.11V24.61H105.385L105.263 24.9333L105.731 25.11ZM105.017 27V27.5H105.362L105.484 27.1767L105.017 27ZM102.805 27L102.338 26.8195L102.075 27.5H102.805V27ZM106.641 17.088V16.588H106.298L106.174 16.9075L106.641 17.088ZM108.937 17.088L109.404 16.9098L109.281 16.588H108.937V17.088ZM112.717 27V27.5H113.442L113.184 26.8218L112.717 27ZM110.491 27L110.021 27.1706L110.14 27.5H110.491V27ZM109.805 25.11L110.275 24.9394L110.155 24.61H109.805V25.11ZM106.319 23.318L105.848 23.1502L105.61 23.818H106.319V23.318ZM109.203 23.318V23.818H109.907L109.675 23.1531L109.203 23.318ZM107.775 19.23L108.247 19.0651L107.779 17.7269L107.304 19.0622L107.775 19.23ZM105.263 24.9333L104.549 26.8233L105.484 27.1767L106.198 25.2867L105.263 24.9333ZM105.017 26.5H102.805V27.5H105.017V26.5ZM103.271 27.1805L107.107 17.2685L106.174 16.9075L102.338 26.8195L103.271 27.1805ZM106.641 17.588H108.937V16.588H106.641V17.588ZM108.47 17.2662L112.25 27.1782L113.184 26.8218L109.404 16.9098L108.47 17.2662ZM112.717 26.5H110.491V27.5H112.717V26.5ZM110.961 26.8294L110.275 24.9394L109.335 25.2806L110.021 27.1706L110.961 26.8294ZM109.805 24.61H105.731V25.61H109.805V24.61ZM106.319 23.818H109.203V22.818H106.319V23.818ZM109.675 23.1531L108.247 19.0651L107.303 19.3949L108.731 23.4829L109.675 23.1531ZM107.304 19.0622L105.848 23.1502L106.79 23.4858L108.246 19.3978L107.304 19.0622ZM115.713 17.088L116.121 16.7988L115.971 16.588H115.713V17.088ZM120.417 23.724L120.009 24.0132L120.917 25.294V23.724H120.417ZM120.417 17.088V16.588H119.917V17.088H120.417ZM122.405 17.088H122.905V16.588H122.405V17.088ZM122.405 27V27.5H122.905V27H122.405ZM120.459 27L120.051 27.29L120.201 27.5H120.459V27ZM115.755 20.392L116.162 20.102L115.255 18.8274V20.392H115.755ZM115.755 27V27.5H116.255V27H115.755ZM113.767 27H113.267V27.5H113.767V27ZM113.767 17.088V16.588H113.267V17.088H113.767ZM115.305 17.3772L120.009 24.0132L120.825 23.4348L116.121 16.7988L115.305 17.3772ZM120.917 23.724V17.088H119.917V23.724H120.917ZM120.417 17.588H122.405V16.588H120.417V17.588ZM121.905 17.088V27H122.905V17.088H121.905ZM122.405 26.5H120.459V27.5H122.405V26.5ZM120.866 26.71L116.162 20.102L115.347 20.682L120.051 27.29L120.866 26.71ZM115.255 20.392V27H116.255V20.392H115.255ZM115.755 26.5H113.767V27.5H115.755V26.5ZM114.267 27V17.088H113.267V27H114.267ZM113.767 17.588H115.713V16.588H113.767V17.588ZM123.533 18.894H123.033V19.394H123.533V18.894ZM123.533 17.088V16.588H123.033V17.088H123.533ZM131.779 17.088H132.279V16.588H131.779V17.088ZM131.779 18.894V19.394H132.279V18.894H131.779ZM128.671 18.894V18.394H128.171V18.894H128.671ZM128.671 27V27.5H129.171V27H128.671ZM126.641 27H126.141V27.5H126.641V27ZM126.641 18.894H127.141V18.394H126.641V18.894ZM124.033 18.894V17.088H123.033V18.894H124.033ZM123.533 17.588H131.779V16.588H123.533V17.588ZM131.279 17.088V18.894H132.279V17.088H131.279ZM131.779 18.394H128.671V19.394H131.779V18.394ZM128.171 18.894V27H129.171V18.894H128.171ZM128.671 26.5H126.641V27.5H128.671V26.5ZM127.141 27V18.894H126.141V27H127.141ZM126.641 18.394H123.533V19.394H126.641V18.394Z" fill="#1E1E1E"/>
<path d="M14.816 4.792L14.686 5.27489L14.6947 5.27707L14.816 4.792ZM17.632 6.168L17.3119 6.55211L17.3177 6.55691L17.3236 6.56153L17.632 6.168ZM19.424 8.632L18.9589 8.81608L18.9639 8.82778L19.424 8.632ZM20.032 12.344L20.5319 12.3523L20.5319 12.3512L20.032 12.344ZM19.36 15.768L19.8186 15.9674L19.8201 15.9638L19.36 15.768ZM17.568 18.264L17.8995 18.6383L17.9002 18.6377L17.568 18.264ZM14.848 19.8L15.0032 20.2753L15.009 20.2734L14.848 19.8ZM7.04 20.312V19.812H6.54V20.312H7.04ZM7.04 27V27.5H7.54V27H7.04ZM2.4 27H1.9V27.5H2.4V27ZM2.4 4.344V3.844H1.9V4.344H2.4ZM12.8 15.992L12.6652 15.5105L12.66 15.512L12.8 15.992ZM14.176 15.288L13.8559 14.9039L14.176 15.288ZM15.104 14.104L15.5512 14.3276L15.5512 14.3276L15.104 14.104ZM15.488 12.44L15.9877 12.4567L15.9878 12.4547L15.488 12.44ZM14.304 9.368L14.0074 9.77056L14.0124 9.77416L14.304 9.368ZM7.04 8.472V7.972H6.54V8.472H7.04ZM7.04 16.216H6.54V16.716H7.04V16.216ZM11.104 4.844C12.4334 4.844 13.6261 4.98946 14.686 5.27481L14.946 4.30919C13.7872 3.99721 12.5052 3.844 11.104 3.844V4.844ZM14.6947 5.27707C15.7416 5.53878 16.6095 5.96679 17.3119 6.55211L17.9521 5.78389C17.1185 5.0892 16.1091 4.59989 14.9373 4.30693L14.6947 5.27707ZM17.3236 6.56153C18.0364 7.1202 18.5831 7.86617 18.9591 8.81602L19.8889 8.44798C19.4542 7.34982 18.8063 6.45313 17.9404 5.77447L17.3236 6.56153ZM18.9639 8.82778C19.3555 9.74798 19.5527 10.9114 19.5321 12.3368L20.5319 12.3512C20.554 10.8326 20.3458 9.52135 19.8841 8.43622L18.9639 8.82778ZM19.5321 12.3357C19.5116 13.5623 19.2973 14.6383 18.8999 15.5722L19.8201 15.9638C20.276 14.8924 20.5097 13.6857 20.5319 12.3523L19.5321 12.3357ZM18.9015 15.5686C18.5025 16.4862 17.9473 17.2579 17.2358 17.8903L17.9002 18.6377C18.7247 17.9048 19.3641 17.0125 19.8185 15.9674L18.9015 15.5686ZM17.2365 17.8897C16.5456 18.5017 15.699 18.9826 14.687 19.3266L15.009 20.2734C16.1304 19.8921 17.0971 19.349 17.8995 18.6383L17.2365 17.8897ZM14.6928 19.3247C13.7034 19.6478 12.6151 19.812 11.424 19.812V20.812C12.7075 20.812 13.9019 20.6349 15.0032 20.2753L14.6928 19.3247ZM11.424 19.812H7.04V20.812H11.424V19.812ZM6.54 20.312V27H7.54V20.312H6.54ZM7.04 26.5H2.4V27.5H7.04V26.5ZM2.9 27V4.344H1.9V27H2.9ZM2.4 4.844H11.104V3.844H2.4V4.844ZM11.168 16.716C11.7876 16.716 12.379 16.6356 12.94 16.472L12.66 15.512C12.197 15.6471 11.7004 15.716 11.168 15.716V16.716ZM12.9348 16.4735C13.5287 16.3072 14.0523 16.0419 14.4961 15.6721L13.8559 14.9039C13.5317 15.1741 13.138 15.3781 12.6652 15.5105L12.9348 16.4735ZM14.4961 15.6721C14.9357 15.3058 15.2873 14.8555 15.5512 14.3276L14.6568 13.8804C14.4514 14.2912 14.1843 14.6302 13.8559 14.9039L14.4961 15.6721ZM15.5512 14.3276C15.8244 13.7813 15.9645 13.1531 15.9877 12.4567L14.9883 12.4233C14.9688 13.0069 14.853 13.488 14.6568 13.8804L15.5512 14.3276ZM15.9878 12.4547C16.0331 10.9128 15.6139 9.6929 14.5956 8.96184L14.0124 9.77416C14.6581 10.2378 15.0282 11.0659 14.9882 12.4253L15.9878 12.4547ZM14.6006 8.96547C13.6819 8.2885 12.5128 7.972 11.136 7.972V8.972C12.3619 8.972 13.3048 9.25283 14.0074 9.77053L14.6006 8.96547ZM11.136 7.972H7.04V8.972H11.136V7.972ZM6.54 8.472V16.216H7.54V8.472H6.54ZM7.04 16.716H11.168V15.716H7.04V16.716Z" fill="#1E1E1E"/>
<defs>
<linearGradient id="paint0_linear_157_299" x1="21.2326" y1="5.25" x2="73.1714" y2="5.58696" gradientUnits="userSpaceOnUse">
<stop stop-color="#7A6398"/>
<stop offset="0.208333" stop-color="#E88C9B"/>
<stop offset="0.385417" stop-color="#8FCAED"/>
<stop offset="0.567708" stop-color="#7A6398"/>
<stop offset="0.796875" stop-color="#E88C9B"/>
<stop offset="0.989583" stop-color="#8FCAED"/>
</linearGradient>
</defs>
</svg>
