<svg width="141" height="32" viewBox="0 0 141 32" fill="none" xmlns="http://www.w3.org/2000/svg">
<path d="M11.979 4.344C13.3443 4.344 14.5817 4.49333 15.691 4.792C16.8003 5.06933 17.739 5.528 18.507 6.168C19.2963 6.78667 19.8937 7.608 20.299 8.632C20.7257 9.63467 20.9283 10.872 20.907 12.344C20.8857 13.624 20.6617 14.7653 20.235 15.768C19.8083 16.7493 19.211 17.5813 18.443 18.264C17.6963 18.9253 16.7897 19.4373 15.723 19.8C14.6777 20.1413 13.5363 20.312 12.299 20.312H7.915V27H3.275V4.344H11.979ZM12.043 16.216C12.619 16.216 13.163 16.1413 13.675 15.992C14.2083 15.8427 14.667 15.608 15.051 15.288C15.435 14.968 15.7443 14.5733 15.979 14.104C16.2137 13.6347 16.3417 13.08 16.363 12.44C16.4057 10.9893 16.011 9.96533 15.179 9.368C14.3683 8.77067 13.3123 8.472 12.011 8.472H7.915V16.216H12.043ZM27.2193 22.68L25.5873 27H20.5312L29.2993 4.344H34.5473L43.1873 27H38.0993L36.5312 22.68H27.2193ZM28.5633 18.584H35.1553L31.8913 9.24L28.5633 18.584ZM48.0748 27L42.3148 4.344H47.5948L51.3068 21.72L54.7948 4.344H61.0347L64.4268 21.72L67.9148 4.344H72.9068L67.5308 27H61.3868L57.8348 9.336L54.3148 27H48.0748Z" fill="url(#paint0_linear_157_25323)"/>
<path d="M81.23 19.944C81.174 19.524 80.9873 19.2253 80.67 19.048C80.3527 18.8613 79.956 18.7587 79.48 18.74C79.312 18.74 79.1347 18.754 78.948 18.782C78.7707 18.81 78.6027 18.866 78.444 18.95C78.2853 19.034 78.1547 19.146 78.052 19.286C77.9493 19.426 77.898 19.5987 77.898 19.804C77.8887 20.0187 77.94 20.2007 78.052 20.35C78.1733 20.4993 78.332 20.6207 78.528 20.714C78.668 20.7793 78.8173 20.84 78.976 20.896C79.144 20.9427 79.3073 20.9893 79.466 21.036C79.6247 21.0733 79.7787 21.106 79.928 21.134C80.0773 21.162 80.208 21.19 80.32 21.218C80.7213 21.302 81.1087 21.4 81.482 21.512C81.8553 21.624 82.1867 21.778 82.476 21.974C82.7653 22.17 82.9987 22.4313 83.176 22.758C83.3533 23.0847 83.4467 23.5093 83.456 24.032C83.456 24.6013 83.3487 25.0867 83.134 25.488C82.9193 25.8893 82.63 26.2113 82.266 26.454C81.9207 26.6967 81.5193 26.874 81.062 26.986C80.6047 27.0887 80.1007 27.1307 79.55 27.112C79.018 27.1027 78.5187 27.0327 78.052 26.902C77.5853 26.762 77.17 26.5613 76.806 26.3C76.4513 26.0387 76.1667 25.712 75.952 25.32C75.7373 24.928 75.616 24.466 75.588 23.934H77.66C77.716 24.1767 77.8093 24.3773 77.94 24.536C78.0707 24.6947 78.2247 24.8253 78.402 24.928C78.5793 25.0307 78.7753 25.1053 78.99 25.152C79.214 25.1987 79.438 25.2267 79.662 25.236C79.8953 25.2453 80.1193 25.236 80.334 25.208C80.5487 25.18 80.7353 25.1287 80.894 25.054C81.062 24.97 81.1927 24.858 81.286 24.718C81.3793 24.578 81.426 24.4007 81.426 24.186C81.426 23.8873 81.3327 23.668 81.146 23.528C80.9687 23.388 80.7727 23.29 80.558 23.234C80.4087 23.1967 80.2733 23.164 80.152 23.136C80.04 23.0987 79.928 23.0707 79.816 23.052C79.704 23.024 79.5873 22.996 79.466 22.968C79.3447 22.94 79.2047 22.9073 79.046 22.87C78.6913 22.7767 78.3227 22.674 77.94 22.562C77.5667 22.4407 77.2307 22.2727 76.932 22.058C76.568 21.806 76.2927 21.484 76.106 21.092C75.9287 20.7 75.8493 20.266 75.868 19.79C75.896 19.23 76.0267 18.768 76.26 18.404C76.4933 18.0307 76.792 17.7367 77.156 17.522C77.52 17.3073 77.9213 17.158 78.36 17.074C78.7987 16.99 79.2373 16.9527 79.676 16.962C80.1613 16.9713 80.6093 17.0413 81.02 17.172C81.44 17.2933 81.804 17.4753 82.112 17.718C82.4293 17.9607 82.686 18.2687 82.882 18.642C83.078 19.0153 83.1993 19.4493 83.246 19.944H81.23ZM88.2508 27H86.2208V17.088H88.2508V27ZM96.6497 19.944C96.5937 19.524 96.407 19.2253 96.0897 19.048C95.7724 18.8613 95.3757 18.7587 94.8997 18.74C94.7317 18.74 94.5544 18.754 94.3677 18.782C94.1904 18.81 94.0224 18.866 93.8637 18.95C93.705 19.034 93.5744 19.146 93.4717 19.286C93.369 19.426 93.3177 19.5987 93.3177 19.804C93.3084 20.0187 93.3597 20.2007 93.4717 20.35C93.593 20.4993 93.7517 20.6207 93.9477 20.714C94.0877 20.7793 94.237 20.84 94.3957 20.896C94.5637 20.9427 94.727 20.9893 94.8857 21.036C95.0444 21.0733 95.1984 21.106 95.3477 21.134C95.497 21.162 95.6277 21.19 95.7397 21.218C96.141 21.302 96.5284 21.4 96.9017 21.512C97.275 21.624 97.6064 21.778 97.8957 21.974C98.185 22.17 98.4184 22.4313 98.5957 22.758C98.773 23.0847 98.8664 23.5093 98.8757 24.032C98.8757 24.6013 98.7684 25.0867 98.5537 25.488C98.339 25.8893 98.0497 26.2113 97.6857 26.454C97.3404 26.6967 96.939 26.874 96.4817 26.986C96.0244 27.0887 95.5204 27.1307 94.9697 27.112C94.4377 27.1027 93.9384 27.0327 93.4717 26.902C93.005 26.762 92.5897 26.5613 92.2257 26.3C91.871 26.0387 91.5864 25.712 91.3717 25.32C91.157 24.928 91.0357 24.466 91.0077 23.934H93.0797C93.1357 24.1767 93.229 24.3773 93.3597 24.536C93.4904 24.6947 93.6444 24.8253 93.8217 24.928C93.999 25.0307 94.195 25.1053 94.4097 25.152C94.6337 25.1987 94.8577 25.2267 95.0817 25.236C95.315 25.2453 95.539 25.236 95.7537 25.208C95.9684 25.18 96.155 25.1287 96.3137 25.054C96.4817 24.97 96.6124 24.858 96.7057 24.718C96.799 24.578 96.8457 24.4007 96.8457 24.186C96.8457 23.8873 96.7524 23.668 96.5657 23.528C96.3884 23.388 96.1924 23.29 95.9777 23.234C95.8284 23.1967 95.693 23.164 95.5717 23.136C95.4597 23.0987 95.3477 23.0707 95.2357 23.052C95.1237 23.024 95.007 22.996 94.8857 22.968C94.7644 22.94 94.6244 22.9073 94.4657 22.87C94.111 22.7767 93.7424 22.674 93.3597 22.562C92.9864 22.4407 92.6504 22.2727 92.3517 22.058C91.9877 21.806 91.7124 21.484 91.5257 21.092C91.3484 20.7 91.269 20.266 91.2877 19.79C91.3157 19.23 91.4464 18.768 91.6797 18.404C91.913 18.0307 92.2117 17.7367 92.5757 17.522C92.9397 17.3073 93.341 17.158 93.7797 17.074C94.2184 16.99 94.657 16.9527 95.0957 16.962C95.581 16.9713 96.029 17.0413 96.4397 17.172C96.8597 17.2933 97.2237 17.4753 97.5317 17.718C97.849 17.9607 98.1057 18.2687 98.3017 18.642C98.4977 19.0153 98.619 19.4493 98.6657 19.944H96.6497ZM100.538 18.894V17.088H108.784V18.894H105.676V27H103.646V18.894H100.538ZM112.211 25.11L111.497 27H109.285L113.121 17.088H115.417L119.197 27H116.971L116.285 25.11H112.211ZM112.799 23.318H115.683L114.255 19.23L112.799 23.318ZM123.313 17.088L128.017 23.724V17.088H130.005V27H128.059L123.355 20.392V27H121.367V17.088H123.313ZM132.253 18.894V17.088H140.499V18.894H137.391V27H135.361V18.894H132.253Z" fill="#1E1E1E"/>
<defs>
<linearGradient id="paint0_linear_157_25323" x1="13.2727" y1="-10.6667" x2="80.223" y2="9.478" gradientUnits="userSpaceOnUse">
<stop stop-color="#8FCAED"/>
<stop offset="1" stop-color="#7A6398"/>
</linearGradient>
</defs>
</svg>
